<svg width="16" height="12" viewBox="0 0 16 12" fill="none" xmlns="http://www.w3.org/2000/svg">
<path d="M0 0.473634C0.372938 0.409377 1.13063 0.361725 1.84106 0.361725C2.71013 0.361725 3.24338 0.433924 3.70153 0.665684C4.14113 0.865676 4.45838 1.23389 4.45838 1.72124C4.45838 2.20136 4.131 2.649 3.42141 2.87282V2.8887C4.14113 3.05693 4.67353 3.52044 4.67353 4.21645C4.67353 4.70451 4.41112 5.08789 4.01962 5.36008C3.56147 5.67198 2.7945 5.84815 1.54153 5.84815C0.841219 5.84815 0.31725 5.80772 0 5.76801C0 5.76801 0 0.473634 0 0.473634ZM1.41075 2.53709H1.87819C2.62575 2.53709 3.02738 2.27284 3.02738 1.87358C3.02738 1.46565 2.66288 1.24978 2.01825 1.24978C1.71028 1.24978 1.53225 1.26566 1.41075 1.28154V2.53709ZM1.41075 4.92905C1.55081 4.94494 1.71872 4.94494 1.96172 4.94494C2.60719 4.94494 3.17672 4.737 3.17672 4.16879C3.17672 3.62513 2.60634 3.40926 1.89506 3.40926H1.41075V4.92905Z" fill="white"/>
<path d="M9.90487 4.53701C9.90487 5.0489 9.92344 5.46477 9.94284 5.79255H8.70844L8.64347 5.24095H8.61562C8.43759 5.48065 8.00813 5.88063 7.18547 5.88063C6.25987 5.88063 5.57812 5.38463 5.57812 4.17673V1.88152H7.00828V3.9854C7.00828 4.55289 7.22344 4.89728 7.71872 4.89728C8.11106 4.89728 8.3355 4.66552 8.42916 4.47347C8.46712 4.40127 8.47641 4.30525 8.47641 4.20922V1.88152H9.90572V4.53701H9.90487Z" fill="white"/>
<path d="M12.106 1.88152L12.7886 3.8013C12.8637 4.03306 12.9565 4.32114 13.0139 4.52907H13.0417C13.1067 4.32114 13.1818 4.02512 13.2468 3.8013L13.8078 1.88152H15.3317L14.266 4.45687C13.6121 6.00843 13.1717 6.63224 12.6578 7.02428C12.1625 7.39177 11.6394 7.52029 11.2842 7.56L10.9855 6.52827C11.1627 6.50444 11.388 6.43224 11.6023 6.32033C11.8174 6.22431 12.0503 6.03298 12.1904 5.83227C12.2376 5.77667 12.2655 5.71242 12.2655 5.6561C12.2655 5.61639 12.2562 5.55213 12.2005 5.45611L10.5273 1.8808H12.106V1.88152Z" fill="white"/>
<path d="M9.60302 11.9958L10.6484 11.1012L8.20385 9.00942L7.15844 9.90398L9.60302 11.9958Z" fill="white"/>
<path d="M6.67133 11.366L9.86002 8.63743L6 8.06297L6.67133 11.366Z" fill="white"/>
</svg>
