<svg width="37" height="37" viewBox="0 0 37 37" fill="none" xmlns="http://www.w3.org/2000/svg">
<g clip-path="url(#clip0_240_801)">
<path d="M18.5 37C8.29927 37 0 28.7007 0 18.5C0 8.29927 8.29927 0 18.5 0C28.7007 0 37 8.29927 37 18.5C37 28.7007 28.7007 37 18.5 37Z" fill="#fff"/>
<path d="M27.1334 30.8334C16.9326 30.8334 8.63336 22.5341 8.63336 12.3334C8.63336 8.06342 10.1017 4.13773 12.5408 1.00336C5.25863 3.49125 0 10.386 0 18.5C0 28.7007 8.29927 37 18.5 37C24.4308 37 29.7047 34.1835 33.0925 29.83C31.2196 30.47 29.22 30.8334 27.1334 30.8334Z" fill="#fff"/>
<g clip-path="url(#clip1_240_801)">
<path d="M25.7365 16.8962L23.8597 15.3665V12.9202C23.8597 12.6447 23.6355 12.4205 23.3601 12.4205H22.1791C21.9036 12.4205 21.6795 12.6447 21.6795 12.9202V13.5896L19.1716 11.5456C18.9902 11.3978 18.7511 11.3164 18.4984 11.3164C18.2467 11.3164 18.0087 11.3973 17.8283 11.5444L11.2634 16.8961C10.9652 17.1392 10.9831 17.3509 11.0203 17.4554C11.0574 17.5598 11.1769 17.7348 11.56 17.7348H12.459V24.7727C12.459 25.275 12.8665 25.6835 13.3674 25.6835H16.2062C16.7029 25.6835 17.0919 25.2834 17.0919 24.7727V21.8866C17.0919 21.6392 17.3193 21.414 17.5689 21.414H19.4765C19.7145 21.414 19.9081 21.626 19.9081 21.8866V24.7727C19.9081 25.2664 20.3345 25.6835 20.8392 25.6835H23.6326C24.1335 25.6835 24.541 25.2749 24.541 24.7727V17.7348H25.4399C25.8231 17.7348 25.9426 17.5598 25.9797 17.4554C26.0169 17.3509 26.0348 17.1392 25.7365 16.8962Z" fill="white"/>
</g>
</g>
<defs>
<clipPath id="clip0_240_801">
<rect width="37" height="37" fill="white"/>
</clipPath>
<clipPath id="clip1_240_801">
<rect width="15" height="15" fill="white" transform="translate(11 11)"/>
</clipPath>
</defs>
</svg>
