<svg width="11" height="13" viewBox="0 0 11 13" fill="none" xmlns="http://www.w3.org/2000/svg">
<path d="M11 12.1176V1.19895C10.9999 1.04919 10.9303 0.905642 10.8065 0.799747C10.6828 0.693854 10.515 0.63427 10.34 0.634186H0.660006C0.48499 0.63427 0.317234 0.693854 0.193481 0.799747C0.069731 0.90564 9.8057e-05 1.04919 0 1.19895V12.1176C9.82079e-05 12.2674 0.069731 12.4109 0.193481 12.5168C0.317232 12.6227 0.484987 12.6823 0.660006 12.6824H10.34C10.515 12.6823 10.6828 12.6227 10.8065 12.5168C10.9303 12.4109 10.9999 12.2674 11 12.1176ZM4.18001 2.51672H8.58C8.70149 2.51672 8.8 2.60101 8.8 2.70497C8.8 2.80893 8.70149 2.89323 8.58 2.89323H4.18001C4.05852 2.89323 3.96001 2.80893 3.96001 2.70497C3.96001 2.60101 4.05852 2.51672 4.18001 2.51672ZM4.18001 4.39925H8.58C8.70149 4.39925 8.8 4.48354 8.8 4.5875C8.8 4.69146 8.70149 4.77575 8.58 4.77575H4.18001C4.05852 4.77575 3.96001 4.69146 3.96001 4.5875C3.96001 4.48354 4.05852 4.39925 4.18001 4.39925ZM1.98001 2.42259C1.98001 2.32275 2.02637 2.22694 2.10887 2.15635C2.19137 2.08576 2.30333 2.04609 2.42001 2.04609H3.08001C3.19669 2.04609 3.30865 2.08576 3.39115 2.15635C3.47365 2.22694 3.52001 2.32275 3.52001 2.42259V2.98735C3.52001 3.08719 3.47365 3.183 3.39115 3.2536C3.30865 3.32419 3.19669 3.36386 3.08001 3.36386H2.42001C2.30333 3.36386 2.19137 3.32419 2.10887 3.2536C2.02637 3.183 1.98001 3.08719 1.98001 2.98735V2.42259ZM1.98001 4.30512C1.98001 4.20528 2.02637 4.10947 2.10887 4.03888C2.19137 3.96828 2.30333 3.92862 2.42001 3.92862H3.08001C3.19669 3.92862 3.30865 3.96828 3.39115 4.03888C3.47365 4.10947 3.52001 4.20528 3.52001 4.30512V4.86988C3.52001 4.96972 3.47365 5.06553 3.39115 5.13612C3.30865 5.20672 3.19669 5.24639 3.08001 5.24639H2.42001C2.30333 5.24639 2.19137 5.20672 2.10887 5.13612C2.02637 5.06553 1.98001 4.96972 1.98001 4.86988V4.30512ZM9.46 11.741C9.45961 11.8449 9.36139 11.9289 9.24 11.9293H3.96001C3.91512 11.9294 3.87122 11.9176 3.83459 11.8954H3.83351L1.63351 10.5776C1.62909 10.5748 1.62693 10.572 1.62359 10.5701C1.57115 10.5345 1.54031 10.4805 1.54001 10.4232V6.28167C1.54041 6.17779 1.63862 6.09375 1.76001 6.09342H7.04001C7.07399 6.09325 7.10758 6.10006 7.13792 6.11317L9.33792 7.05443C9.34195 7.05569 9.34568 7.05762 9.34892 7.06006C9.41728 7.09351 9.45961 7.15562 9.46 7.22293V11.741Z" fill="white"/>
</svg>
