<svg width="13" height="11" viewBox="0 0 13 11" fill="none" xmlns="http://www.w3.org/2000/svg">
<path d="M12.0685 0.140397C11.9925 0.113435 11.9049 0.127884 11.8466 0.177955L11.1774 0.750607L10.5082 0.177955C10.4289 0.110134 10.3001 0.110134 10.2208 0.177955L9.55159 0.750607L8.88236 0.177955C8.8031 0.110134 8.67426 0.110134 8.595 0.177955L7.92578 0.750607L7.25655 0.177955C7.17729 0.110134 7.04845 0.110134 6.96919 0.177955L6.29997 0.750607L5.63074 0.177955C5.57242 0.12823 5.48504 0.113089 5.40923 0.140213C5.33342 0.166991 5.28384 0.230472 5.28384 0.300902C5.28384 4.07484 4.92393 6.23884 4.18438 6.90904H0.203259C0.14453 6.90904 0.0886339 6.93079 0.0500285 6.96869C0.0114231 7.00678 -0.00605774 7.05704 0.00187293 7.10676C0.275207 8.7955 0.80218 10.5265 2.64197 10.5609H9.14517C9.14579 10.5609 9.1466 10.5609 9.14741 10.5609C11.9287 10.5425 12.1822 2.70366 12.1935 0.301595C12.1939 0.231002 12.1445 0.167358 12.0685 0.140397ZM7.67928 10.2131H2.64643C1.48622 10.1916 0.822685 9.33373 0.456469 7.3591C0.446705 7.30623 0.49467 7.25683 0.557258 7.25683H4.26712C4.26733 7.25665 4.26793 7.25665 4.26833 7.25683H6.44284C6.49304 7.25683 6.53531 7.28814 6.54282 7.33057C6.73222 8.40544 7.04335 9.46621 7.74937 10.0649C7.81403 10.1199 7.77033 10.2131 7.67928 10.2131ZM10.771 3.95279H6.50323C6.39106 3.95279 6.30001 3.87488 6.30001 3.7789C6.30001 3.68291 6.39106 3.605 6.50323 3.605H10.771C10.8831 3.605 10.9742 3.68291 10.9742 3.7789C10.9742 3.87488 10.8831 3.95279 10.771 3.95279ZM10.771 3.0833H6.50323C6.39106 3.0833 6.30001 3.00539 6.30001 2.9094C6.30001 2.81342 6.39106 2.73551 6.50323 2.73551H10.771C10.8831 2.73551 10.9742 2.81342 10.9742 2.9094C10.9742 3.00539 10.8831 3.0833 10.771 3.0833ZM10.771 2.21381H6.50323C6.39106 2.21381 6.30001 2.1359 6.30001 2.03991C6.30001 1.94393 6.39106 1.86602 6.50323 1.86602H10.771C10.8831 1.86602 10.9742 1.94393 10.9742 2.03991C10.9742 2.1359 10.8831 2.21381 10.771 2.21381Z" fill="white"/>
</svg>
