<svg width="28" height="28" viewBox="0 0 28 28" fill="none" xmlns="http://www.w3.org/2000/svg">
<path d="M21.2486 22.0754L22.0605 21.2632L18.7946 17.9982L17.9826 18.8104L21.2486 22.0754Z" fill="white"/>
<path d="M12.8432 4.82648C8.40787 4.82648 4.8125 8.42185 4.8125 12.8572C4.8125 17.2926 8.40787 20.888 12.8432 20.888C17.2786 20.888 20.874 17.2926 20.874 12.8572C20.8744 8.42185 17.2786 4.82648 12.8432 4.82648Z" fill="white"/>
<path d="M7.91045 11.8191L8.10558 12.8192C8.15545 13.0743 8.20577 13.3442 8.24558 13.6247H8.25564C8.30595 13.3447 8.37595 13.0642 8.43589 12.8245L8.69577 11.8191H9.29602L9.54102 12.7943C9.60577 13.0695 9.67095 13.3442 9.72083 13.6247H9.73089C9.76589 13.3447 9.81577 13.0695 9.87089 12.7895L10.0809 11.8195H10.826L10.0756 14.2652H9.36033L9.1302 13.405C9.07027 13.1653 9.0252 12.9452 8.97533 12.6447H8.96527C8.92064 12.9496 8.87033 13.1749 8.80514 13.405L8.56014 14.2652H7.84483L7.13477 11.8195L7.91045 11.8191Z" fill="#00D2FF"/>
<path d="M11.8026 11.8191L11.9977 12.8192C12.0476 13.0743 12.0979 13.3442 12.1377 13.6247H12.1478C12.1981 13.3447 12.2681 13.0642 12.328 12.8245L12.5879 11.8191H13.1882L13.4332 12.7943C13.4979 13.0695 13.5631 13.3442 13.613 13.6247H13.623C13.658 13.3447 13.7079 13.0695 13.763 12.7895L13.973 11.8195H14.7181L13.9678 14.2652H13.2525L13.0223 13.405C12.9624 13.1653 12.9173 12.9452 12.8675 12.6447H12.8578C12.8132 12.9496 12.7629 13.1749 12.6977 13.405L12.4527 14.2652H11.7374L11.0273 11.8195L11.8026 11.8191Z" fill="#00D2FF"/>
<path d="M15.6937 11.8191L15.8888 12.8192C15.9387 13.0743 15.989 13.3442 16.0288 13.6247H16.0388C16.0892 13.3447 16.1592 13.0642 16.2191 12.8245L16.479 11.8191H17.0792L17.3242 12.7943C17.389 13.0695 17.4542 13.3442 17.504 13.6247H17.5141C17.5491 13.3447 17.599 13.0695 17.6541 12.7895L17.8641 11.8195H18.6092L17.8588 14.2652H17.1435L16.9134 13.405C16.8535 13.1653 16.8084 12.9452 16.7585 12.6447H16.7485C16.7038 12.9496 16.6535 13.1749 16.5883 13.405L16.3433 14.2652H15.628L14.918 11.8195L15.6937 11.8191Z" fill="#00D2FF"/>
</svg>
