<svg width="17" height="17" viewBox="0 0 17 17" fill="none" xmlns="http://www.w3.org/2000/svg">
<path d="M13.2516 2H3.74854C3.45515 2 3.21729 2.23787 3.21729 2.53125V5.69896C3.21729 5.99234 3.45515 6.23021 3.74854 6.23021H13.2516C13.545 6.23021 13.7829 5.99234 13.7829 5.69896V2.53125C13.7829 2.23783 13.545 2 13.2516 2Z" fill="white"/>
<path d="M16.4688 10.7698H15.4161V8.77731C15.4161 8.48393 15.1783 8.24606 14.8849 8.24606H9.03112V7.29266H7.96862V8.24606H2.11511C1.82172 8.24606 1.58386 8.48393 1.58386 8.77731V10.7698H0.53125C0.237867 10.7698 0 11.0077 0 11.3011V14.4688C0 14.7622 0.237867 15 0.53125 15H3.69896C3.99234 15 4.23021 14.7622 4.23021 14.4688V11.3011C4.23021 11.0077 3.99234 10.7698 3.69896 10.7698H2.64636V9.30856H7.96858V10.7698H6.91611C6.62273 10.7698 6.38486 11.0077 6.38486 11.3011V14.4688C6.38486 14.7622 6.62273 15 6.91611 15H10.0838C10.3772 15 10.6151 14.7622 10.6151 14.4688V11.3011C10.6151 11.0077 10.3772 10.7698 10.0838 10.7698H9.03105V9.30856H14.3536V10.7698H13.301C13.0076 10.7698 12.7697 11.0077 12.7697 11.3011V14.4688C12.7697 14.7622 13.0076 15 13.301 15H16.4688C16.7621 15 17 14.7622 17 14.4688V11.3011C17 11.0077 16.7621 10.7698 16.4688 10.7698Z" fill="white"/>
</svg>
