<svg width="24" height="23" viewBox="0 0 24 23" fill="none" xmlns="http://www.w3.org/2000/svg">
<path d="M20.6938 3.95806C18.6597 1.92389 15.9551 0.803589 13.0782 0.803589C12.799 0.803589 12.5726 1.02994 12.5726 1.30916V4.0311C12.5726 4.31032 12.799 4.53668 13.0782 4.53668C16.9584 4.53668 20.1152 7.69341 20.1152 11.5736C20.1152 15.4538 16.9584 18.6106 13.0782 18.6106C9.51924 18.6106 6.55158 15.9631 6.10071 12.4913H7.87791C7.8783 12.4913 7.87854 12.4914 7.87888 12.4913C8.1581 12.4913 8.38445 12.265 8.38445 11.9858C8.38445 11.8467 8.32835 11.7208 8.23754 11.6294L4.60971 7.56557C4.51375 7.4581 4.37657 7.39666 4.23255 7.39666C4.23174 7.39666 4.23092 7.39666 4.23015 7.39666C4.08526 7.39739 3.94765 7.46017 3.85217 7.56918L0.276582 11.6528C0.145904 11.8021 0.114558 12.014 0.196509 12.1947C0.27846 12.3754 0.458539 12.4914 0.656964 12.4914H2.3475C2.56672 15.0925 3.71302 17.5054 5.60674 19.3303C7.62339 21.2735 10.2768 22.3438 13.0782 22.3438C15.955 22.3438 18.6596 21.2235 20.6938 19.1893C22.728 17.155 23.8483 14.4504 23.8483 11.5736C23.8484 8.69685 22.7281 5.99224 20.6938 3.95806ZM13.0782 21.3327C7.81825 21.3327 3.5354 17.2183 3.32787 11.9659C3.31713 11.6946 3.09415 11.4803 2.82269 11.4803H1.77163L4.23621 8.6656L6.7489 11.4803H5.54704C5.40822 11.4803 5.27552 11.5374 5.18009 11.6381C5.08461 11.7388 5.03477 11.8744 5.04224 12.013C5.2721 16.2796 8.80195 19.6217 13.0783 19.6217C17.516 19.6217 21.1264 16.0114 21.1264 11.5736C21.1264 7.30571 17.787 3.80307 13.5838 3.54128V1.82768C18.731 2.09149 22.8373 6.36207 22.8373 11.5736C22.8372 16.9548 18.4594 21.3327 13.0782 21.3327Z" fill="white"/>
<path d="M12.4495 12.0343V15.8576H11.2297C10.9505 15.8576 10.7242 16.084 10.7242 16.3632C10.7242 16.6424 10.9505 16.8688 11.2297 16.8688H12.4495V17.4961C12.4495 17.7753 12.6758 18.0016 12.955 18.0016C13.2342 18.0016 13.4606 17.7753 13.4606 17.4961V16.8237C14.8195 16.5837 15.8552 15.3952 15.8552 13.9684C15.8552 12.5418 14.8194 11.3532 13.4606 11.1132V7.28979L14.5256 7.28974C14.8048 7.28974 15.0312 7.06339 15.0312 6.78417C15.0312 6.50495 14.8048 6.2786 14.5256 6.2786L13.4606 6.27865V5.65126C13.4606 5.37204 13.2342 5.14569 12.955 5.14569C12.6758 5.14569 12.4495 5.37204 12.4495 5.65126V6.32367C11.0905 6.5637 10.0547 7.75227 10.0547 9.17894C10.0547 10.6057 11.0905 11.7943 12.4495 12.0343ZM14.8441 13.9685C14.8441 14.8351 14.2574 15.5667 13.4606 15.7884V12.1486C14.2574 12.3703 14.8441 13.1019 14.8441 13.9685ZM12.4495 7.35908V10.9989C11.6525 10.7773 11.0658 10.0456 11.0658 9.17894C11.0658 8.31239 11.6525 7.58076 12.4495 7.35908Z" fill="white"/>
</svg>
