<svg width="24" height="24" viewBox="0 0 24 24" fill="none" xmlns="http://www.w3.org/2000/svg">
<g clip-path="url(#clip0_545_213)">
<path fill-rule="evenodd" clip-rule="evenodd" d="M19.828 18.1789C21.1613 16.4804 21.8934 14.3876 21.9098 12.2283C21.9262 10.0691 21.2259 7.96539 19.9187 6.24679C18.9542 4.97796 17.6936 3.96469 16.2471 3.29555C14.8006 2.62641 13.2123 2.32177 11.6208 2.40827C10.0294 2.49478 8.48342 2.96978 7.11798 3.79177C5.75253 4.61375 4.60922 5.75769 3.78798 7.12358V3.78789H2.39404V8.66667L3.09101 9.36364H7.9698V7.9697H4.91847C5.84967 6.35986 7.29023 5.10577 9.01299 4.40519C10.7358 3.70461 12.6427 3.59739 14.4331 4.10044C16.2236 4.60349 17.7956 5.6882 18.9014 7.18351C20.0072 8.67882 20.5838 10.4997 20.5403 12.3589C20.4968 14.2182 19.8357 16.0101 18.6612 17.452C17.4867 18.894 15.8656 19.904 14.0536 20.3228C12.2416 20.7415 10.3417 20.5452 8.65362 19.7648C6.96551 18.9845 5.58518 17.6644 4.73029 16.0127L3.49386 16.6567C4.24676 18.1049 5.35092 19.3411 6.70524 20.2521C8.05956 21.1631 9.62077 21.7198 11.2459 21.8713C12.8711 22.0227 14.5083 21.7641 16.0076 21.119C17.507 20.4739 18.8205 19.463 19.828 18.1789ZM15.143 16.8268L16.1299 15.8413L12.1516 11.8616V6.57576H10.7577V12.1515L10.9612 12.645L15.143 16.8268Z" fill="white"/>
</g>
<defs>
<clipPath id="clip0_545_213">
<rect width="23.697" height="23.697" fill="white" transform="translate(0.163086 23.86) rotate(-90.019)"/>
</clipPath>
</defs>
</svg>
