<svg width="23" height="20" viewBox="0 0 23 20" fill="none" xmlns="http://www.w3.org/2000/svg">
<path d="M0 2.67697L1.27257 2.13208L1.57437 2.83702L0.301796 3.38191L0 2.67697Z" fill="#FF912C"/>
<path d="M2.91895 1.66037L4.19152 1.11548L4.49332 1.82041L3.22074 2.36531L2.91895 1.66037Z" fill="#FF912C"/>
<path d="M2.07031 1.37442L2.23448 0L2.9959 0.0908976L2.83174 1.46532L2.07031 1.37442Z" fill="#FF912C"/>
<path d="M0.292969 1.1334L0.75276 0.519531L1.86065 1.34928L1.40086 1.96315L0.292969 1.1334Z" fill="#FF912C"/>
<path d="M9.49009 17.6246L10.5369 9.77155C10.644 8.93309 10.9737 8.13862 11.4917 7.47085C11.1485 7.21904 10.7827 6.99958 10.3989 6.81521V4.94007C10.3989 4.83839 10.3585 4.74081 10.2866 4.66892C10.2147 4.59702 10.1171 4.55662 10.0154 4.55662H7.71473V3.02282C7.71473 2.61609 7.55313 2.22594 7.26555 1.9382C6.97779 1.65061 6.58765 1.48901 6.18093 1.48901H5.79748C5.39075 1.48901 5.0006 1.65061 4.71286 1.9382C4.42527 2.22596 4.26367 2.6161 4.26367 3.02282C4.26367 3.29688 4.11748 3.55005 3.88022 3.687C3.64296 3.82395 3.35058 3.82395 3.11332 3.687C2.87606 3.55005 2.72987 3.29687 2.72987 3.02282V2.63937H1.96297V3.02282C1.96297 3.57078 2.25535 4.07715 2.72987 4.35118C3.20438 4.62507 3.78916 4.62507 4.26367 4.35118C4.73819 4.07711 5.03057 3.57074 5.03057 3.02282C5.03057 2.81945 5.11138 2.6243 5.25517 2.48051C5.39896 2.33672 5.59411 2.25592 5.79748 2.25592H6.18093C6.38429 2.25592 6.57944 2.33672 6.72324 2.48051C6.86703 2.6243 6.94783 2.81945 6.94783 3.02282V4.55662H4.64712C4.43537 4.55662 4.26367 4.72832 4.26367 4.94007V6.81521C2.14426 7.8976 0.732155 9.99545 0.526757 12.3667C0.321507 14.7376 1.35203 17.047 3.25386 18.4778C5.15556 19.9086 7.66026 20.2587 9.88121 19.4043C9.5474 18.875 9.4091 18.2456 9.49005 17.625L9.49009 17.6246Z" fill="#FF912C"/>
<path d="M13.5391 3.63254C13.9679 4.17025 14.3048 4.77535 14.536 5.4231C14.7553 5.33734 14.9916 5.30327 15.2262 5.32347C18.4702 5.32347 18.198 5.25825 18.6581 5.48062C18.9068 4.82788 19.2068 4.19573 19.5553 3.59023C19.6361 3.45602 19.627 3.28621 19.5325 3.16124C19.4379 3.03645 19.277 2.9815 19.1258 3.02275C18.1096 3.23741 17.8681 3.43684 17.4386 3.2797L17.1779 3.18384C16.4531 2.91918 15.9048 3.24906 15.6172 3.30657C15.2338 3.42537 15.0037 3.25676 13.9415 3.02275H13.9417C13.781 2.97739 13.6096 3.04124 13.5175 3.18058C13.4256 3.31976 13.4343 3.50258 13.5391 3.63249L13.5391 3.63254Z" fill="#FF912C"/>
<path d="M15.2725 11.8423C15.2725 12.0457 15.3533 12.2409 15.4972 12.3847C15.641 12.5284 15.836 12.6092 16.0394 12.6092H16.1506V11.0754H16.0394C15.836 11.0754 15.641 11.1562 15.4972 11.3C15.3533 11.4438 15.2725 11.639 15.2725 11.8423Z" fill="#FF912C"/>
<path d="M16.918 14.9098H17.0292C17.3031 14.9098 17.5563 14.7636 17.6932 14.5263C17.8304 14.2891 17.8304 13.9967 17.6932 13.7594C17.5563 13.5222 17.3031 13.376 17.0292 13.376H16.918V14.9098Z" fill="#FF912C"/>
<path d="M21.772 9.87113C21.5953 8.54807 20.7734 7.3989 19.5787 6.80352C18.2021 6.12497 18.225 6.09039 18.0679 6.09039C14.8085 6.09039 14.9734 6.05975 14.8277 6.1325L13.4894 6.79979C12.2947 7.395 11.4728 8.54434 11.2962 9.8674L10.2492 17.7244C10.1759 18.2751 10.345 18.8304 10.7127 19.2467C11.0806 19.6632 11.6109 19.8995 12.1664 19.8947H20.917C21.4725 19.8995 22.0028 19.6632 22.3707 19.2467C22.7386 18.8304 22.9077 18.2751 22.8343 17.7244L21.772 9.87113ZM17.029 12.6091C17.577 12.6091 18.0833 12.9014 18.3572 13.376C18.6313 13.8505 18.6313 14.4352 18.3572 14.9098C18.0833 15.3843 17.577 15.6767 17.029 15.6767H16.9177V16.6084H16.1508V15.6767H16.0395C15.6328 15.6767 15.2427 15.5151 14.9551 15.2275C14.6673 14.9397 14.5057 14.5496 14.5057 14.1429H15.2726C15.2726 14.3462 15.3534 14.5414 15.4974 14.6852C15.6412 14.829 15.8362 14.9098 16.0395 14.9098H16.1508V13.376H16.0395C15.4916 13.376 14.9852 13.0836 14.7113 12.6091C14.4373 12.1345 14.4373 11.5498 14.7113 11.0753C14.9852 10.6007 15.4916 10.3084 16.0395 10.3084H16.1508V9.37659H16.9177V10.3084H17.029C17.4357 10.3084 17.8259 10.4699 18.1134 10.7575C18.4012 11.0453 18.5628 11.4354 18.5628 11.8422H17.7959C17.7959 11.6388 17.7151 11.4436 17.5711 11.2998C17.4273 11.1561 17.2324 11.0753 17.029 11.0753H16.9177V12.6091H17.029Z" fill="#FF912C"/>
</svg>
