<svg width="21" height="21" viewBox="0 0 21 21" fill="none" xmlns="http://www.w3.org/2000/svg">
<g clip-path="url(#clip0_1857_757)">
<path d="M10.5 21C4.7104 21 0 16.2896 0 10.5C0 4.7104 4.7104 0 10.5 0C16.2896 0 21 4.7104 21 10.5C21 16.2896 16.2896 21 10.5 21Z" fill="#00D2FF"/>
<path d="M15.4 17.5001C9.61041 17.5001 4.90001 12.7897 4.90001 7.00013C4.90001 4.57664 5.73337 2.34855 7.11777 0.56958C2.98462 1.98163 0 5.89489 0 10.5001C0 16.2897 4.7104 21.0001 10.5 21.0001C13.8661 21.0001 16.8594 19.4016 18.7822 16.9307C17.7192 17.2939 16.5843 17.5001 15.4 17.5001Z" fill="#18BDF6"/>
<path d="M15.752 11.984C15.752 10.7643 14.9403 9.73171 13.8291 9.39547V7.72412C13.1575 7.36199 12.4858 7.24146 11.8893 7.24146C10.7013 7.24146 9.81104 7.71941 9.81104 7.71941C9.81104 7.71941 8.92064 7.24152 7.73282 7.24146C7.13617 7.24141 6.46469 7.36193 5.79297 7.72412V13.7708C5.79297 13.7708 6.67553 13.2929 7.86594 13.2929C8.46126 13.2929 9.13342 13.4123 9.81102 13.7708C10.1296 13.6023 10.4468 13.4881 10.7556 13.4128C11.234 14.1771 12.0812 14.6883 13.0477 14.6883C13.6039 14.6883 14.1213 14.5191 14.5516 14.23L15.9888 15.701L16.4656 15.2346L15.0545 13.7902C15.4865 13.3108 15.752 12.6786 15.752 11.984ZM6.46001 12.8147V8.14756C6.85877 7.98874 7.28533 7.90847 7.73275 7.90849C8.66402 7.90856 9.3871 8.25335 9.47764 8.29835V12.9036C8.96514 12.7224 8.42658 12.6258 7.86594 12.6258C7.3302 12.6258 6.84841 12.7109 6.46001 12.8147ZM10.4704 12.8025C10.3609 12.8325 10.2523 12.8652 10.1447 12.9016V8.29829C10.2473 8.24743 10.9659 7.90847 11.8893 7.90847C12.3367 7.90847 12.7633 7.98874 13.1621 8.14754V9.28511C13.1238 9.2835 13.0863 9.27932 13.0477 9.27932C11.5563 9.27932 10.343 10.4926 10.343 11.984C10.343 12.2693 10.3881 12.5441 10.4704 12.8025ZM11.4961 13.3013C11.3387 13.1162 11.2149 12.9025 11.1313 12.6695C11.0543 12.4549 11.0101 12.2247 11.0101 11.984C11.0101 10.8604 11.924 9.94636 13.0477 9.94636C13.0863 9.94636 13.124 9.95002 13.1621 9.95215C13.397 9.96528 13.6219 10.0163 13.8291 10.1028C14.5657 10.41 15.085 11.1372 15.085 11.9839C15.085 13.1073 14.171 14.0212 13.0477 14.0212C12.4264 14.0212 11.8701 13.741 11.4961 13.3013Z" fill="white"/>
</g>
<defs>
<clipPath id="clip0_1857_757">
<rect width="21" height="21" fill="white"/>
</clipPath>
</defs>
</svg>
