<svg width="25" height="25" viewBox="0 0 25 25" fill="none" xmlns="http://www.w3.org/2000/svg">
<path d="M12.3416 20C12.1416 19.9064 11.9737 19.7553 11.8596 19.566C10.0017 16.936 8.12964 14.316 6.28178 11.6782C5.57796 10.6658 5.15189 9.48664 5.04589 8.25811C4.73395 5.05804 6.46385 1.97989 9.39803 0.71025C12.246 -0.523714 14.9359 -0.147714 17.3441 1.82632C18.0702 2.41657 18.6726 3.14454 19.1167 3.96821C19.5608 4.792 19.838 5.69518 19.9321 6.62629C20.1714 8.49668 19.6816 10.3874 18.5641 11.9063C16.7654 14.4396 14.9655 16.9777 13.1641 19.5202C13.0469 19.7285 12.869 19.896 12.6541 20.0003L12.3416 20ZM14.9917 7.52825C14.9943 6.86811 14.7352 6.23389 14.2713 5.76429C13.8073 5.29471 13.1762 5.02811 12.5161 5.02264C11.856 5.0172 11.2207 5.27348 10.7491 5.73539C10.2776 6.19732 10.0082 6.82718 9.99992 7.48736C9.99155 8.14736 10.2452 8.78382 10.705 9.25743C11.1648 9.73093 11.7936 10.0031 12.4536 10.0141C13.1202 10.0222 13.7625 9.76456 14.2387 9.29804C14.7149 8.83164 14.9858 8.19479 14.9917 7.52821L14.9917 7.52825Z" fill="#FFB406"/>
</svg>
