<svg width="11" height="13" viewBox="0 0 11 13" fill="none" xmlns="http://www.w3.org/2000/svg">
<path d="M3.36343 12.1997C3.36343 12.4258 3.57963 12.6314 3.86783 12.6314H7.11009C7.37429 12.6314 7.61449 12.4464 7.61449 12.1997V10.8639H3.36328L3.36343 12.1997Z" fill="white"/>
<path d="M7.7352 9.54858H3.21981C2.9316 9.54858 2.69141 9.75412 2.69141 10.0007C2.69141 10.2474 2.93161 10.4529 3.21981 10.4529H7.75908C8.04728 10.4529 8.28748 10.2473 8.28748 10.0007C8.26338 9.75412 8.02318 9.54858 7.73497 9.54858H7.7352Z" fill="white"/>
<path d="M5.47607 0.711426C2.44973 0.711426 0 2.80773 0 5.39728C0 5.54112 9.34095e-08 5.66444 0.0240009 5.80828C0.50432 5.47944 1.12882 5.27397 1.80132 5.27397C2.49784 5.27397 3.14634 5.50005 3.65066 5.86997C4.15506 5.50005 4.77948 5.27397 5.5 5.27397C6.19651 5.27397 6.84501 5.50005 7.34934 5.86997C7.85374 5.50005 8.47816 5.27397 9.19868 5.27397C9.87118 5.27397 10.4716 5.47951 10.976 5.80828C11 5.66444 11 5.54113 11 5.39728C10.952 2.80786 8.50226 0.711426 5.47592 0.711426H5.47607Z" fill="white"/>
<path d="M3.21944 9.11712H3.26744L0.529402 6.0343C0.457303 6.07538 0.4093 6.11654 0.337296 6.15761L0.121094 6.30145L2.7151 9.24038C2.85921 9.15815 3.02731 9.11707 3.2195 9.11707L3.21944 9.11712Z" fill="white"/>
<path d="M10.4216 6.0343L7.68359 9.11712H7.70759C7.8757 9.11712 8.04381 9.1582 8.18791 9.21989L10.7819 6.28096L10.5657 6.13712C10.5658 6.09596 10.4937 6.05489 10.4217 6.03435L10.4216 6.0343Z" fill="white"/>
<path d="M3.96413 6.17822L3.62791 6.42484L3.50781 6.32207L4.25233 9.11711L4.75673 9.11719L3.96413 6.17822Z" fill="white"/>
<path d="M7.32413 6.42475L7.01192 6.17813L6.98792 6.15759L6.19531 9.11717H6.69971L7.44423 6.32213L7.32413 6.42475Z" fill="white"/>
</svg>
