<svg width="70" height="70" viewBox="0 0 70 70" fill="none" xmlns="http://www.w3.org/2000/svg">
<path fill-rule="evenodd" clip-rule="evenodd" d="M42.3984 18.6237L45.5 4.66667C45.5 4.66667 38.2465 9.30231 35.4924 9.30231C32.4131 9.30231 28 4.66667 28 4.66667L31.1016 18.6237C32.9209 17.8878 34.8109 17.5 36.75 17.5C38.6891 17.5 40.5791 17.8878 42.3984 18.6237Z" fill="#F28544" stroke="#365D96" stroke-width="2" stroke-linecap="round" stroke-linejoin="round"/>
<path fill-rule="evenodd" clip-rule="evenodd" d="M63 65.3333C63 38.9157 51.2475 17.5 36.75 17.5C22.2525 17.5 10.5 38.9157 10.5 65.3333H63Z" fill="#F28544" stroke="#365D96" stroke-width="2" stroke-linecap="round" stroke-linejoin="round"/>
<path d="M43.125 17.8802C43.125 17.8802 47.025 11.8484 52.0465 11.8484" stroke="#365D96" stroke-width="2" stroke-linecap="round" stroke-linejoin="round"/>
<path d="M58.9437 14.3401C58.9437 14.3401 56.4143 19.397 43.0508 18.0969" stroke="#365D96" stroke-width="2" stroke-linecap="round" stroke-linejoin="round"/>
<path d="M39.668 39.6667C39.668 37.7337 38.101 36.1667 36.168 36.1667C34.235 36.1667 32.668 37.7337 32.668 39.6667C32.668 41.5997 34.235 43.1667 36.168 43.1667" stroke="#365D96" stroke-width="2" stroke-linecap="round" stroke-linejoin="round"/>
<path d="M36.168 50.1667V52.5" stroke="#365D96" stroke-width="2" stroke-linecap="round" stroke-linejoin="round"/>
<path d="M36.168 33.8333V36.1666" stroke="#365D96" stroke-width="2" stroke-linecap="round" stroke-linejoin="round"/>
<path d="M32.668 46.6667C32.668 48.5997 34.235 50.1667 36.168 50.1667C38.101 50.1667 39.668 48.5997 39.668 46.6667C39.668 44.7337 38.101 43.1667 36.168 43.1667" stroke="#365D96" stroke-width="2" stroke-linecap="round" stroke-linejoin="round"/>
</svg>
