<svg width="16" height="16" viewBox="0 0 16 16" fill="none" xmlns="http://www.w3.org/2000/svg">
<path d="M15.5496 0.0067215H4.86467C4.61974 0.0067215 4.41959 0.204229 4.41959 0.451806V4.96861C3.27394 5.50064 2.46802 6.75425 2.46802 8.20806C2.46802 8.88227 2.64446 9.51174 2.94737 10.0464C2.01768 10.3519 1.41456 10.6705 1.11431 11.0129C0.353161 11.8821 0.055555 14.9135 0.00552625 15.5113C-0.0392471 15.7352 0.195171 15.9933 0.450611 15.9933H10.8669C11.1566 15.9933 11.3304 15.7352 11.312 15.5113C11.262 14.9135 10.9617 11.8795 10.2032 11.013C9.90296 10.6706 9.29723 10.3545 8.37015 10.049C8.51238 9.79354 8.62824 9.517 8.70988 9.22469H15.5549C15.7998 9.22469 15.9999 9.02718 15.9999 8.7796V0.451806C15.9921 0.204229 15.7945 0.0067215 15.5496 0.0067215ZM5.65479 5.57963C6.60819 5.57963 7.42991 6.24598 7.77755 7.19408C6.06826 7.29153 5.62843 6.43033 5.61266 6.39342C5.54418 6.23013 5.38354 6.12478 5.20445 6.12478C5.2018 6.12478 5.19919 6.12478 5.19919 6.12478C5.0201 6.12742 4.85946 6.23803 4.79358 6.40922C4.77778 6.454 4.41959 7.33366 3.482 7.37053C3.78486 6.32758 4.64346 5.57963 5.65479 5.57963ZM5.25712 7.34421C5.70221 7.74717 6.52658 8.18435 7.94878 8.07109C7.95143 8.11586 7.95403 8.15799 7.95403 8.20276C7.95403 9.65132 6.92164 10.8286 5.65483 10.8286C4.40117 10.8286 3.38194 9.67763 3.35562 8.25283C4.22208 8.30025 4.88838 7.81035 5.25712 7.34421ZM3.51361 10.7996C4.07986 11.3685 4.8331 11.7188 5.65743 11.7188C6.48177 11.7188 7.23501 11.3685 7.80126 10.7996C9.06017 11.1841 9.4289 11.4817 9.53161 11.6003C9.90296 12.0243 10.2243 13.7652 10.3744 15.1084H0.937822C1.08795 13.7652 1.40927 12.0243 1.78061 11.6003C1.88336 11.4817 2.25206 11.1815 3.51361 10.7996ZM15.1045 8.33712H8.83895C8.83895 8.29235 8.8416 8.25023 8.8416 8.20545C8.8416 6.26704 7.4115 4.69211 5.65218 4.69211C5.53631 4.69211 5.42041 4.70266 5.3019 4.71317V0.894284H15.0993V8.33712H15.1045Z" fill="#194F82"/>
<path d="M5.30863 4.71314C5.42189 4.69998 5.53776 4.69207 5.65892 4.69207C7.41559 4.69207 8.84833 6.26965 8.84833 8.20541C8.84833 8.25019 8.84569 8.29231 8.84569 8.33708H15.1086V0.894287H5.30859V4.71314H5.30863Z" fill="white"/>
<path d="M14.2176 1.77655H6.19531V4.74475C7.47003 4.98703 8.48661 6.06159 8.76316 7.44166H14.2123V1.77655H14.2176Z" fill="white"/>
<path d="M11.8069 4.16534H11.3539C11.2144 4.16534 11.1011 4.05208 11.1011 3.91251C11.1011 3.77293 11.2144 3.65968 11.3539 3.65968H12.5022C12.7472 3.65968 12.9473 3.46217 12.9473 3.21459C12.9473 2.96701 12.7498 2.76951 12.5022 2.76951H12.1967V2.68517C12.1967 2.44025 11.9992 2.24009 11.7516 2.24009C11.5067 2.24009 11.3066 2.4376 11.3066 2.68517V2.77207C10.6982 2.79839 10.2109 3.29355 10.2109 3.90982C10.2109 4.53929 10.7245 5.05021 11.3513 5.05021H11.8043C11.9439 5.05021 12.0572 5.16347 12.0572 5.30305C12.0572 5.44262 11.9439 5.55588 11.8043 5.55588H10.656C10.4111 5.55588 10.2109 5.75339 10.2109 6.00097C10.2109 6.24589 10.4084 6.44605 10.656 6.44605H11.3066V6.53034C11.3066 6.77527 11.5041 6.97543 11.7516 6.97543C11.9966 6.97543 12.1967 6.77792 12.1967 6.53034V6.3697C12.6313 6.20907 12.9447 5.79291 12.9447 5.30305C12.9447 4.67626 12.4364 4.16534 11.8069 4.16534Z" fill="#194F82"/>
<path d="M10.3714 15.1057C10.2213 13.7625 9.89999 12.0217 9.52864 11.5976C9.42854 11.4818 9.05984 11.1815 7.79829 10.797C7.23204 11.3659 6.4788 11.7162 5.65446 11.7162C4.83013 11.7162 4.07689 11.3659 3.51064 10.797C2.25173 11.1815 1.883 11.4791 1.78029 11.5976C1.40894 12.0217 1.08763 13.7625 0.9375 15.1057H10.3714Z" fill="#56ACE0"/>
<path d="M4.78954 6.40923C4.85537 6.24329 5.01605 6.13003 5.19514 6.12478C5.19779 6.12478 5.2004 6.12478 5.2004 6.12478C5.37685 6.12478 5.53752 6.22748 5.60862 6.39342C5.62442 6.42764 6.06425 7.29149 7.7735 7.19408C7.42847 6.24594 6.60679 5.57964 5.65074 5.57964C4.63941 5.57964 3.78081 6.33288 3.47266 7.37057C4.41554 7.33631 4.77373 6.45139 4.78954 6.40923Z" fill="white"/>
<path d="M5.65597 10.8312C6.92543 10.8312 7.95518 9.65396 7.95518 8.20541C7.95518 8.16064 7.95253 8.11851 7.94992 8.07374C6.52773 8.18435 5.70339 7.74717 5.25827 7.34686C4.88957 7.813 4.22323 8.30025 3.35938 8.25548C3.38309 9.67767 4.40236 10.8312 5.65597 10.8312Z" fill="white"/>
</svg>
