<svg width="10" height="10" viewBox="0 0 10 10" fill="none" xmlns="http://www.w3.org/2000/svg">
<path d="M3.63451 4.86713C3.63451 4.95912 3.56092 5.03271 3.46893 5.03271H2.84751C2.75552 5.03271 2.68193 4.95912 2.68193 4.86713V4.24571C2.68193 4.15372 2.75552 4.08013 2.84751 4.08013H3.46893C3.56092 4.08013 3.63451 4.15372 3.63451 4.24571V4.86713ZM4.93254 4.24775C4.93254 4.15577 4.85895 4.08218 4.76697 4.08218H4.14554C4.05356 4.08218 3.97997 4.15577 3.97997 4.24775V4.86917C3.97997 4.96116 4.05356 5.03475 4.14554 5.03475H4.76697C4.85895 5.03475 4.93254 4.96116 4.93254 4.86917V4.24775ZM6.23058 4.24775C6.23058 4.15577 6.15699 4.08218 6.065 4.08218H5.44358C5.35159 4.08218 5.278 4.15577 5.278 4.24775V4.86917C5.278 4.96116 5.35159 5.03475 5.44358 5.03475H6.065C6.15699 5.03475 6.23058 4.96116 6.23058 4.86917V4.24775ZM3.63451 5.51104C3.63451 5.41905 3.56092 5.34546 3.46893 5.34546H2.84751C2.75552 5.34546 2.68193 5.41905 2.68193 5.51104V6.13246C2.68193 6.22445 2.75552 6.29804 2.84751 6.29804H3.46893C3.56092 6.29804 3.63451 6.22445 3.63451 6.13246V5.51104ZM4.93254 5.51104C4.93254 5.41905 4.85895 5.34546 4.76697 5.34546H4.14554C4.05356 5.34546 3.97997 5.41905 3.97997 5.51104V6.13246C3.97997 6.22445 4.05356 6.29804 4.14554 6.29804H4.76697C4.85895 6.29804 4.93254 6.22445 4.93254 6.13246V5.51104ZM6.065 5.34546H5.44358C5.35159 5.34546 5.278 5.41905 5.278 5.51104V6.13246C5.278 6.22445 5.35159 6.29804 5.44358 6.29804H6.065C6.15699 6.29804 6.23058 6.22445 6.23058 6.13246V5.51104C6.23058 5.41905 6.15699 5.34546 6.065 5.34546ZM2.16885 6.60875H1.54947C1.45748 6.60875 1.38389 6.68234 1.38389 6.77433V7.39575C1.38389 7.48774 1.45748 7.56133 1.54947 7.56133H2.17089C2.26288 7.56133 2.33647 7.48774 2.33647 7.39575V6.77433C2.33647 6.68234 2.26083 6.60875 2.16885 6.60875ZM2.33647 5.51104C2.33647 5.41905 2.26288 5.34546 2.17089 5.34546H1.54947C1.45748 5.34546 1.38389 5.41905 1.38389 5.51104V6.13246C1.38389 6.22445 1.45748 6.29804 1.54947 6.29804H2.17089C2.26288 6.29804 2.33647 6.22445 2.33647 6.13246V5.51104ZM4.76697 6.60875H4.14554C4.05356 6.60875 3.97997 6.68234 3.97997 6.77433V7.39575C3.97997 7.48774 4.05356 7.56133 4.14554 7.56133H4.76697C4.85895 7.56133 4.93254 7.48774 4.93254 7.39575V6.77433C4.93254 6.68234 4.85895 6.60875 4.76697 6.60875ZM3.46893 6.60875H2.84751C2.75552 6.60875 2.68193 6.68234 2.68193 6.77433V7.39575C2.68193 7.48774 2.75552 7.56133 2.84751 7.56133H3.46893C3.56092 7.56133 3.63451 7.48774 3.63451 7.39575V6.77433C3.63451 6.68234 3.56092 6.60875 3.46893 6.60875ZM7.36304 5.03475C7.45503 5.03475 7.52862 4.96116 7.52862 4.86917V4.24775C7.52862 4.15577 7.45503 4.08218 7.36304 4.08218H6.74162C6.64963 4.08218 6.57604 4.15577 6.57604 4.24775V4.86917C6.57604 4.96116 6.64963 5.03475 6.74162 5.03475H7.36304ZM0.975061 8.91047H5.69092C5.61529 8.67334 5.57236 8.41987 5.57032 8.15822H0.975061C0.852412 8.15822 0.754293 8.05805 0.754293 7.93745V3.4955H8.148V5.56214C8.40965 5.56419 8.66312 5.60303 8.90024 5.67866V1.9399C8.90024 1.40229 8.4628 0.964842 7.92518 0.964842H6.83361V0.363861C6.83361 0.167623 6.67416 0.00817871 6.47792 0.00817871H5.92396C5.72772 0.00817871 5.56827 0.167623 5.56827 0.363861V0.966887H3.33197V0.363861C3.33197 0.167623 3.17253 0.00817871 2.97629 0.00817871H2.42232C2.22608 0.00817871 2.06664 0.167623 2.06664 0.363861V0.966887H0.975061C0.437449 0.966887 0 1.40434 0 1.94195V7.93745C0 8.47302 0.437449 8.91047 0.975061 8.91047ZM10 8.1296C10 9.15781 9.16599 9.99182 8.13778 9.99182C7.10957 9.99182 6.27555 9.15781 6.27555 8.1296C6.27555 7.10139 7.10957 6.26738 8.13778 6.26738C9.16599 6.26738 10 7.10139 10 8.1296ZM9.07809 7.64718C9.07809 7.5879 9.0556 7.53066 9.01267 7.48978C8.92477 7.40188 8.78373 7.40188 8.69583 7.48978L7.88634 8.29926L7.57563 7.98855C7.48773 7.90065 7.34669 7.90065 7.25879 7.98855C7.21586 8.03148 7.19338 8.08667 7.19338 8.14595C7.19338 8.20523 7.21586 8.26247 7.25879 8.30335L7.7269 8.77146C7.8148 8.85936 7.95585 8.85936 8.04374 8.77146L9.01063 7.80458C9.0556 7.7637 9.07809 7.70646 9.07809 7.64718Z" fill="#BEBEBE"/>
</svg>
