<svg width="16" height="16" viewBox="0 0 16 16" fill="none" xmlns="http://www.w3.org/2000/svg">
<path d="M0.328627 10.0676H8.61226C8.73605 10.0676 8.83736 9.96625 8.83736 9.84249V3.13226C8.83736 2.7593 8.53503 2.45697 8.16207 2.45697H0.77885C0.405882 2.45697 0.103556 2.7593 0.103556 3.13226V9.84243C0.103529 9.96625 0.204837 10.0676 0.328627 10.0676ZM1.99783 5.54583C1.99783 5.39153 2.1229 5.26643 2.27723 5.26643H4.48711V4.47904C4.48711 4.23012 4.78813 4.10547 4.9641 4.28155L6.86837 6.18672C6.97741 6.29582 6.97741 6.47268 6.86837 6.58175L4.9641 8.48662C4.7881 8.66267 4.48711 8.53804 4.48711 8.2891V7.50152H2.2772C2.1229 7.50152 1.9978 7.37642 1.9978 7.22212V5.54583H1.99783ZM2.9668 11.8751H0.225098C0.101281 11.8751 0 11.7738 0 11.65V10.9657C0 10.8419 0.101281 10.7406 0.225098 10.7406H3.58808C3.25942 11.0265 3.03208 11.4249 2.9668 11.8751ZM15.7749 10.7406H15.2279V7.68149C15.2279 7.32361 15.1199 6.97245 14.9195 6.67532L13.5487 4.64492C13.2133 4.1497 12.655 3.85258 12.0563 3.85258H9.93137C9.68149 3.85258 9.48115 4.05517 9.48115 4.30277V10.7406H6.00112C6.33203 11.0265 6.55937 11.4249 6.62465 11.8751H10.2938C10.4243 10.9815 11.1941 10.2904 12.1238 10.2904C13.0535 10.2904 13.821 10.9815 13.9516 11.8751H15.7749C15.8987 11.8751 16 11.7738 16 11.65V10.9657C16 10.8419 15.8987 10.7406 15.7749 10.7406ZM13.5329 7.08047H10.7282C10.6044 7.08047 10.5031 6.98141 10.5031 6.85537V5.29995C10.5031 5.17616 10.6044 5.07485 10.7282 5.07485H12.4367C12.511 5.07485 12.5785 5.11085 12.6213 5.16939L13.7175 6.72709C13.821 6.87566 13.7152 7.08047 13.5329 7.08047ZM4.79461 10.7406C4.02254 10.7406 3.39448 11.3686 3.39448 12.143C3.39448 12.915 4.02251 13.5431 4.79461 13.5431C5.56894 13.5431 6.19472 12.9151 6.19472 12.143C6.19469 11.3686 5.56894 10.7406 4.79461 10.7406ZM4.79461 12.843C4.40742 12.843 4.09456 12.5279 4.09456 12.143C4.09456 11.7558 4.40745 11.4429 4.79461 11.4429C5.18178 11.4429 5.49467 11.7558 5.49467 12.143C5.49467 12.5279 5.18175 12.843 4.79461 12.843ZM12.1238 10.7406C11.3495 10.7406 10.7237 11.3686 10.7237 12.143C10.7237 12.915 11.3495 13.5431 12.1238 13.5431C12.8959 13.5431 13.5239 12.9151 13.5239 12.143C13.5239 11.3686 12.8959 10.7406 12.1238 10.7406ZM12.1238 12.843C11.7366 12.843 11.4237 12.5279 11.4237 12.143C11.4237 11.7558 11.7366 11.4429 12.1238 11.4429C12.511 11.4429 12.8238 11.7558 12.8238 12.143C12.8239 12.5279 12.511 12.843 12.1238 12.843Z" fill="white"/>
</svg>
