<svg width="24" height="24" viewBox="0 0 24 24" fill="none" xmlns="http://www.w3.org/2000/svg">
<g clip-path="url(#clip0_200_944)">
<path fill-rule="evenodd" clip-rule="evenodd" d="M19.6723 18.0237C21.0055 16.3252 21.7377 14.2324 21.7541 12.0731C21.7705 9.9139 21.0702 7.81021 19.7629 6.09161C18.7984 4.82278 17.5379 3.80951 16.0914 3.14037C14.6449 2.47122 13.0565 2.16659 11.4651 2.25309C9.87366 2.33959 8.32766 2.8146 6.96221 3.63658C5.59677 4.45857 4.45346 5.60251 3.63222 6.9684V3.6327H2.23828V8.51149L2.93525 9.20846H7.81404V7.81452H4.76271C5.69391 6.20468 7.13447 4.95059 8.85723 4.25001C10.58 3.54942 12.4869 3.4422 14.2774 3.94526C16.0678 4.44831 17.6399 5.53302 18.7457 7.02833C19.8514 8.52364 20.4281 10.3445 20.3846 12.2037C20.3411 14.063 19.6799 15.8549 18.5054 17.2968C17.3309 18.7388 15.7098 19.7488 13.8978 20.1676C12.0858 20.5863 10.186 20.39 8.49786 19.6097C6.80975 18.8293 5.42942 17.5092 4.57452 15.8576L3.3381 16.5016C4.091 17.9497 5.19516 19.1859 6.54948 20.0969C7.9038 21.0079 9.46501 21.5646 11.0902 21.7161C12.7153 21.8675 14.3525 21.6089 15.8519 20.9638C17.3512 20.3187 18.6648 19.3079 19.6723 18.0237ZM14.9873 16.6716L15.9742 15.6861L11.9959 11.7064V6.42058H10.6019V11.9963L10.8054 12.4898L14.9873 16.6716Z" fill="white"/>
</g>
<defs>
<clipPath id="clip0_200_944">
<rect width="23.697" height="23.697" fill="white" transform="translate(0.0078125 23.7048) rotate(-90.019)"/>
</clipPath>
</defs>
</svg>
