<svg width="17" height="11" viewBox="0 0 17 11" fill="none" xmlns="http://www.w3.org/2000/svg">
<path d="M14.0231 7.99322C13.2263 7.99322 12.5781 8.64161 12.5781 9.43822C12.5781 10.235 13.2263 10.8832 14.0231 10.8832C14.8197 10.8832 15.4681 10.235 15.4681 9.43822C15.4681 8.64161 14.8197 7.99322 14.0231 7.99322ZM14.0231 9.86322C13.7887 9.86322 13.5981 9.67264 13.5981 9.43822C13.5981 9.20381 13.7887 9.01322 14.0231 9.01322C14.2575 9.01322 14.4481 9.20381 14.4481 9.43822C14.4481 9.67264 14.2575 9.86322 14.0231 9.86322Z" fill="white"/>
<path d="M13.8874 1.98661H11.3908C11.2029 1.98661 11.0508 2.13894 11.0508 2.32661V8.95661C11.0508 9.14428 11.2029 9.29661 11.3908 9.29661H11.7514C11.9197 9.29661 12.0688 9.17539 12.0905 9.00847C12.2239 7.98608 13.0394 7.352 14.0259 7.352C15.0124 7.352 15.8279 7.98611 15.9614 9.00847C15.9831 9.17542 16.1321 9.29661 16.3005 9.29661H16.6608C16.8484 9.29661 17.0008 9.14428 17.0008 8.95661V5.64161C17.0008 5.56172 16.9727 5.48453 16.9215 5.4235L14.1481 2.1085C14.0836 2.03133 13.988 1.98661 13.8874 1.98661ZM11.7308 4.70661V3.00661C11.7308 2.81894 11.8829 2.66661 12.0708 2.66661H13.5685C13.6693 2.66661 13.765 2.7115 13.8296 2.789L15.2462 4.489C15.4306 4.7105 15.2732 5.04661 14.9849 5.04661H12.0708C11.8829 5.04661 11.7308 4.89447 11.7308 4.70661Z" fill="white"/>
<path d="M0.34 9.29677H1.21058C1.37889 9.29677 1.52797 9.17555 1.54972 9.00863C1.68317 7.98625 2.49867 7.35216 3.48517 7.35216C4.47167 7.35216 5.28717 7.98627 5.42061 9.00863C5.44236 9.17558 5.59128 9.29677 5.75975 9.29677H10.03C10.2177 9.29677 10.37 9.14444 10.37 8.95677V0.456775C10.37 0.269109 10.2177 0.116776 10.03 0.116776H0.34C0.152139 0.116776 0 0.269109 0 0.456775V8.95677C0 9.14447 0.152139 9.29677 0.34 9.29677Z" fill="white"/>
<path d="M3.48406 7.99322C2.68728 7.99322 2.03906 8.64161 2.03906 9.43822C2.03906 10.235 2.68728 10.8832 3.48406 10.8832C4.28067 10.8832 4.92906 10.235 4.92906 9.43822C4.92906 8.64161 4.28067 7.99322 3.48406 7.99322ZM3.48406 9.86322C3.24965 9.86322 3.05906 9.67264 3.05906 9.43822C3.05906 9.20381 3.24965 9.01322 3.48406 9.01322C3.71848 9.01322 3.90906 9.20381 3.90906 9.43822C3.90906 9.67264 3.71848 9.86322 3.48406 9.86322Z" fill="white"/>
</svg>
