<svg width="33" height="33" viewBox="0 0 33 33" fill="none" xmlns="http://www.w3.org/2000/svg">
<g clip-path="url(#clip0_467_113)">
<path d="M16.5 33C7.40205 33 0 25.5979 0 16.5C0 7.40205 7.40205 0 16.5 0C25.5979 0 33 7.40205 33 16.5C33 25.5979 25.5979 33 16.5 33Z" fill="#00D2FF"/>
<path d="M24.2 27.5C15.1021 27.5 7.70002 20.098 7.70002 11C7.70002 7.1917 9.00958 3.69041 11.1851 0.894885C4.69012 3.11381 0 9.26322 0 16.5C0 25.598 7.40205 33 16.5 33C21.7896 33 26.4934 30.488 29.515 26.6052C27.8445 27.1759 26.0611 27.5 24.2 27.5Z" fill="#18BDF6"/>
<path d="M23.0231 19.9932C22.2263 19.9932 21.5781 20.6416 21.5781 21.4382C21.5781 22.235 22.2263 22.8832 23.0231 22.8832C23.8197 22.8832 24.4681 22.235 24.4681 21.4382C24.4681 20.6416 23.8197 19.9932 23.0231 19.9932ZM23.0231 21.8632C22.7887 21.8632 22.5981 21.6726 22.5981 21.4382C22.5981 21.2038 22.7887 21.0132 23.0231 21.0132C23.2575 21.0132 23.4481 21.2038 23.4481 21.4382C23.4481 21.6726 23.2575 21.8632 23.0231 21.8632Z" fill="white"/>
<path d="M22.8874 13.9866H20.3908C20.2029 13.9866 20.0508 14.1389 20.0508 14.3266V20.9566C20.0508 21.1443 20.2029 21.2966 20.3908 21.2966H20.7514C20.9197 21.2966 21.0688 21.1754 21.0905 21.0085C21.2239 19.9861 22.0394 19.352 23.0259 19.352C24.0124 19.352 24.8279 19.9861 24.9614 21.0085C24.9831 21.1754 25.1321 21.2966 25.3005 21.2966H25.6608C25.8484 21.2966 26.0008 21.1443 26.0008 20.9566V17.6416C26.0008 17.5617 25.9727 17.4845 25.9215 17.4235L23.1481 14.1085C23.0836 14.0313 22.988 13.9866 22.8874 13.9866ZM20.7308 16.7066V15.0066C20.7308 14.8189 20.8829 14.6666 21.0708 14.6666H22.5685C22.6693 14.6666 22.765 14.7115 22.8296 14.789L24.2462 16.489C24.4306 16.7105 24.2732 17.0466 23.9849 17.0466H21.0708C20.8829 17.0466 20.7308 16.8945 20.7308 16.7066Z" fill="white"/>
<path d="M9.34 21.2968H10.2106C10.3789 21.2968 10.528 21.1756 10.5497 21.0086C10.6832 19.9862 11.4987 19.3522 12.4852 19.3522C13.4717 19.3522 14.2872 19.9863 14.4206 21.0086C14.4424 21.1756 14.5913 21.2968 14.7597 21.2968H19.03C19.2177 21.2968 19.37 21.1444 19.37 20.9568V12.4568C19.37 12.2691 19.2177 12.1168 19.03 12.1168H9.34C9.15214 12.1168 9 12.2691 9 12.4568V20.9568C9 21.1445 9.15214 21.2968 9.34 21.2968Z" fill="white"/>
<path d="M12.4841 19.9932C11.6873 19.9932 11.0391 20.6416 11.0391 21.4382C11.0391 22.235 11.6873 22.8832 12.4841 22.8832C13.2807 22.8832 13.9291 22.235 13.9291 21.4382C13.9291 20.6416 13.2807 19.9932 12.4841 19.9932ZM12.4841 21.8632C12.2496 21.8632 12.0591 21.6726 12.0591 21.4382C12.0591 21.2038 12.2496 21.0132 12.4841 21.0132C12.7185 21.0132 12.9091 21.2038 12.9091 21.4382C12.9091 21.6726 12.7185 21.8632 12.4841 21.8632Z" fill="white"/>
</g>
<defs>
<clipPath id="clip0_467_113">
<rect width="33" height="33" fill="white"/>
</clipPath>
</defs>
</svg>
