<svg width="99" height="14" viewBox="0 0 99 14" fill="none" xmlns="http://www.w3.org/2000/svg">
<g clip-path="url(#clip0_467_315)">
<path d="M0 12.95H12.0042L11.3143 13.93H0V12.95Z" fill="#D40511"/>
<path d="M98.9995 13.93H84.3047L85.0636 12.95H99.0685V13.93H98.9995Z" fill="#D40511"/>
<path d="M0 11.13H13.384L12.6251 12.11H0V11.13Z" fill="#D40511"/>
<path d="M0 9.31H14.7638L14.0049 10.29H0V9.31Z" fill="#D40511"/>
<path d="M98.9986 12.11H85.6836L86.4425 11.13H99.0676V12.11H98.9986Z" fill="#D40511"/>
<path d="M87.755 9.31H99.0003V10.29H86.9961L87.755 9.31Z" fill="#D40511"/>
<path d="M12.9688 13.93L19.3158 5.31999C19.3158 5.31999 26.3527 5.31999 27.1806 5.31999C28.0775 5.31999 28.0775 5.66999 27.5945 6.22999C27.1806 6.78999 26.4217 7.83999 26.0078 8.39999C25.8008 8.74999 25.3869 9.23999 26.6977 9.23999C28.1465 9.23999 37.2531 9.23999 37.2531 9.23999C36.4252 10.5 33.5276 14 28.4224 14C24.283 13.93 12.9688 13.93 12.9688 13.93Z" fill="#D40511"/>
<path d="M49.327 9.31L45.8775 14H36.8398L40.2893 9.31H49.327Z" fill="#D40511"/>
<path d="M62.5053 9.31L59.0558 14H49.9492L53.3987 9.31H62.5053Z" fill="#D40511"/>
<path d="M65.4713 9.31C65.4713 9.31 64.7815 10.22 64.5055 10.64C63.3327 12.18 64.3675 14 68.0929 14C72.3703 14 82.7187 14 82.7187 14L86.1682 9.31H65.4713Z" fill="#D40511"/>
<path d="M17.4548 -7.33137e-06L14.2812 4.26999C14.2812 4.26999 30.6318 4.26999 31.5286 4.26999C32.4255 4.26999 32.4255 4.61999 31.9426 5.17999C31.5286 5.73999 30.7698 6.78999 30.3558 7.34999C30.1488 7.62999 29.7349 8.18999 31.0457 8.18999C32.4945 8.18999 38.0826 8.18999 38.0826 8.18999C38.0826 8.18999 39.2555 6.64999 40.1523 5.31999C41.4631 3.56999 40.2903 -0.0700073 35.668 -0.0700073C31.5286 -7.33137e-06 17.4548 -7.33137e-06 17.4548 -7.33137e-06Z" fill="#D40511"/>
<path d="M63.2615 8.19H41.0469L47.118 0H56.2246L52.7751 4.69H56.8455L60.295 0H69.4016L63.2615 8.19Z" fill="#D40511"/>
<path d="M81.9601 0L75.889 8.19H66.2305L72.3016 0H81.9601Z" fill="#D40511"/>
</g>
<defs>
<clipPath id="clip0_467_315">
<rect width="99" height="14" fill="white"/>
</clipPath>
</defs>
</svg>
