<svg width="43" height="43" viewBox="0 0 43 43" fill="none" xmlns="http://www.w3.org/2000/svg">
<g clip-path="url(#clip0_467_300)">
<path d="M21.4986 41.3975C21.8547 41.2194 31.1135 37.2132 34.0514 34.8095C37.0783 32.3168 38.6808 28.7557 38.6808 24.4824V4.45133L38.4137 4.3623C31.0245 0.356093 21.8547 0.623173 21.4096 0.623173C21.0535 0.623173 11.8837 0.356093 4.49446 4.3623L4.31641 4.45133V24.5714C4.31641 28.8447 5.91889 32.4058 8.94581 34.8985C11.8837 37.3023 21.1425 41.3085 21.4986 41.3975Z" fill="#341B14"/>
<path d="M21.5031 41.8426C21.5031 41.8426 11.7102 37.5693 8.68327 35.1655C5.4783 32.4947 3.96484 28.8446 3.96484 24.6604V3.82808C11.7102 -0.356187 21.5031 -7.9982e-05 21.5031 -7.9982e-05C21.5031 -7.9982e-05 31.2961 -0.356187 39.0414 3.82808V24.5713C39.0414 28.7556 37.528 32.4057 34.323 35.0765C31.2961 37.5693 21.5031 41.8426 21.5031 41.8426ZM5.38927 24.6604C5.38927 28.5776 6.81371 31.7825 9.57354 34.0082C12.0663 36.0558 19.4555 39.3498 21.5031 40.2401C23.5508 39.3498 31.029 35.9668 33.4328 34.0082C36.1926 31.7825 37.617 28.4885 37.617 24.6604V4.18418C27.2899 3.20489 15.0042 3.73905 5.38927 12.6417V24.6604Z" fill="#FFB406"/>
<path d="M31.3847 21.7226C32.7201 22.5239 33.2543 23.058 33.3433 24.0373C33.3433 25.1057 32.6311 25.7289 31.4738 25.7289C30.4945 25.7289 29.3371 25.1947 28.5359 24.4825V27.3313C29.5152 27.8655 30.6725 28.3106 31.9189 28.3106C34.9458 28.3106 36.3703 26.174 36.3703 24.2154C36.4593 22.4349 35.9251 21.0104 33.3433 19.497C32.186 18.7848 31.2957 18.3396 31.2957 17.2713C31.2957 16.203 32.275 15.7578 33.0763 15.7578C34.1446 15.7578 35.2129 16.381 35.8361 17.0042V14.3334C35.3019 13.8883 34.1446 13.2651 32.4531 13.3541C30.4054 13.4431 28.2688 14.8676 28.2688 17.3603C28.3578 19.0518 28.892 20.2982 31.3847 21.7226ZM20.8796 28.1326C21.1466 28.2216 21.5918 28.3106 22.304 28.3106C25.776 28.3106 27.7346 25.1947 27.7346 20.7433C27.7346 16.203 25.687 13.4431 22.0369 13.4431C20.3454 13.4431 19.01 13.7992 17.8527 14.5115V34.6316H20.8796V28.1326ZM20.8796 16.0249C21.1466 15.9359 21.5918 15.7578 21.9479 15.7578C23.7284 15.7578 24.4406 17.1823 24.4406 20.6543C24.4406 24.0373 23.5504 25.6398 21.7698 25.6398C21.3247 25.6398 20.9686 25.5508 20.7905 25.4618V16.0249H20.8796ZM11.5317 28.3106C13.4013 28.3106 15.0038 27.8655 16.1611 27.0643V13.6212H13.0452V25.2837C12.6891 25.5508 12.244 25.6398 11.6208 25.6398C10.1963 25.6398 10.0183 24.3044 10.0183 23.5032V13.6212H6.90234V23.3251C6.90234 26.6191 8.50483 28.3106 11.5317 28.3106ZM32.275 40.3293V42.3769H32.6311V41.5756H32.7201L33.2543 42.3769H33.6994C33.6994 42.3769 33.1653 41.5756 33.0763 41.4866C33.3433 41.3976 33.5214 41.2195 33.5214 40.9525C33.5214 40.6854 33.3433 40.3293 32.8092 40.3293H32.275ZM32.8092 40.5964C33.0763 40.5964 33.1653 40.7744 33.1653 40.8634C33.1653 41.0415 33.0763 41.2195 32.7201 41.2195H32.6311V40.5964H32.8092Z" fill="#FFB406"/>
<path d="M34.2261 41.3085C34.2261 42.0207 33.6029 42.6439 32.8907 42.6439C32.1785 42.6439 31.5553 42.0207 31.5553 41.3085C31.5553 40.5963 32.1785 39.9731 32.8907 39.9731C33.692 39.9731 34.2261 40.5963 34.2261 41.3085ZM32.8907 39.617C32.0005 39.617 31.1992 40.3292 31.1992 41.3085C31.1992 42.1988 31.9114 43 32.8907 43C33.781 43 34.5822 42.2878 34.5822 41.3085C34.5822 40.4182 33.781 39.617 32.8907 39.617Z" fill="#FFB406"/>
</g>
<defs>
<clipPath id="clip0_467_300">
<rect width="43" height="43" fill="white"/>
</clipPath>
</defs>
</svg>
