<svg width="11" height="14" viewBox="0 0 11 14" fill="none" xmlns="http://www.w3.org/2000/svg">
<path d="M10.6024 12.6378H9.46897L9.09214 12.1157H9.41321C9.56681 12.1157 9.69236 11.9902 9.69236 11.8366C9.69236 11.6802 9.56681 11.5574 9.41321 11.5574H8.69023L8.22958 10.9181H9.87944C10.033 10.9181 10.1586 10.7954 10.1586 10.639V3.7354C10.1586 2.62998 9.6059 1.60822 8.72652 0.98291C8.73213 1.03042 8.73493 1.07498 8.73493 1.12249C8.73493 2.04921 7.98129 2.80585 7.05157 2.80585H4.0338C3.10708 2.80585 2.35324 2.04937 2.35324 1.12249C2.35324 1.07498 2.35604 1.03042 2.35885 0.98291C1.48229 1.60539 0.929562 2.62715 0.929562 3.7354V10.639C0.929562 10.7954 1.05512 10.9181 1.20872 10.9181H2.85858L2.39793 11.5574H1.46837C1.31477 11.5574 1.18922 11.6802 1.18922 11.8366C1.18922 11.9902 1.31477 12.1157 1.46837 12.1157H1.99319L1.61636 12.6378H0.279157C0.122753 12.6378 0 12.7635 0 12.9169C0 13.0704 0.122753 13.1961 0.279157 13.1961H1.21429L0.98265 13.5143C0.890584 13.6399 0.921271 13.8158 1.04403 13.9052C1.16958 13.9973 1.34546 13.9666 1.43488 13.841L1.90111 13.1962H9.18432L9.65339 13.841C9.70635 13.9192 9.79297 13.9583 9.87958 13.9583C9.93535 13.9583 9.99127 13.9416 10.0414 13.9052C10.167 13.8159 10.195 13.6401 10.1056 13.5143L9.87397 13.1961H10.6026C10.7562 13.1961 10.8817 13.0704 10.8817 12.9169C10.8816 12.7635 10.756 12.6378 10.6024 12.6378H10.6024ZM7.70199 9.68715C7.12685 9.68715 6.66077 9.22092 6.66077 8.64593C6.66077 8.068 7.127 7.59909 7.70199 7.59909C8.27976 7.59909 8.74883 8.068 8.74883 8.64593C8.74883 9.22092 8.27992 9.68715 7.70199 9.68715ZM8.00077 11.5574H3.08482L3.54547 10.9181H7.5402L8.00077 11.5574ZM2.07148 6.58284V3.61261C2.07148 3.25245 2.36746 2.95942 2.73029 2.95942H8.3553C8.71827 2.95942 9.01412 3.2526 9.01412 3.61261V6.58284C9.01412 6.94581 8.71813 7.24165 8.3553 7.24165H2.73029C2.36732 7.24165 2.07148 6.94567 2.07148 6.58284ZM2.50688 8.64581C2.50688 8.06788 2.97311 7.59898 3.5481 7.59898C4.12587 7.59898 4.59494 8.06788 4.59494 8.64581C4.59494 9.2208 4.12587 9.68703 3.5481 9.68703C2.97311 9.68703 2.50688 9.2208 2.50688 8.64581ZM2.30592 12.6378L2.68275 12.1157H8.40548L8.78231 12.6378H2.30592Z" fill="#405982"/>
<path d="M4.03436 2.24729H7.05213C7.67182 2.24729 8.17717 1.74194 8.17717 1.12225C8.17717 0.505354 7.67182 0 7.05213 0H4.03436C3.41467 0 2.91211 0.505195 2.91211 1.12225C2.91211 1.74194 3.41467 2.24729 4.03436 2.24729Z" fill="#405982"/>
</svg>
