<svg width="14" height="16" viewBox="0 0 14 16" fill="none" xmlns="http://www.w3.org/2000/svg">
<path d="M6.57307 8.22339L0 10.4145L1.6501 15.6624C4.65257 13.4173 6.38372 14.2828 8.08815 15.1484C9.08892 15.6624 10.1169 16.1764 11.4154 15.9058L13.4711 10.4959L11.5506 9.84673L6.57352 8.2238L6.57307 8.22339Z" fill="#405982"/>
<path d="M2.51579 8.98077L6.54636 7.62823L10.9825 9.06194V6.87085H2.51562L2.51579 8.98077Z" fill="#405982"/>
<path d="M4.70703 6.30293H8.79161V5.78911H7.46612V3.51685H6.03257V5.78911H4.70707L4.70703 6.30293Z" fill="#405982"/>
<path d="M9.00856 1.86638C9.08975 1.83938 9.14377 1.7852 9.17094 1.73118L9.25212 1.51479L9.46852 1.5418L9.57671 1.56881H9.6579C9.87429 1.56881 10.0637 1.51463 10.1718 1.40643C10.28 1.32524 10.3612 1.19004 10.3612 1.08184C10.3612 0.946639 10.28 0.838445 10.1718 0.730246C10.0637 0.622052 9.87427 0.567871 9.6579 0.567871C9.46852 0.567871 9.3063 0.622048 9.17095 0.730246C9.06276 0.811434 8.98157 0.919628 8.98157 1.05483L8.95456 1.3254H8.71116C8.57596 1.3254 8.44059 1.37958 8.35957 1.4336C8.30539 1.48777 8.25137 1.5688 8.25137 1.62298C8.25137 1.70417 8.27838 1.81236 8.27838 1.89355L8.06199 1.97473C8.03498 1.97473 8.03498 2.00174 8.00781 2.00174V2.02875C8.00781 2.02875 8.00781 2.05576 8.03482 2.05576C8.06183 2.08277 8.089 2.08277 8.17003 2.08277H8.25121C8.27822 2.05576 8.30539 2.05576 8.30539 2.02859L8.41358 1.89339L8.65698 1.94757H8.71116C8.81935 1.94757 8.92755 1.92056 9.00874 1.86638L9.00856 1.86638Z" fill="#405982"/>
<path d="M9.57634 2.13704C9.49515 2.21823 9.38696 2.29942 9.27877 2.38044C9.11639 2.46163 8.92717 2.51564 8.71077 2.51564H8.62958C8.57541 2.54265 8.5484 2.56982 8.49438 2.59683C8.38619 2.65101 8.27799 2.67802 8.16979 2.67802C7.98041 2.67802 7.79103 2.59683 7.65585 2.48864C7.52064 2.38044 7.43945 2.21807 7.43945 2.02886C7.43945 1.89365 7.49363 1.75829 7.57466 1.65009C7.60167 1.59592 7.65585 1.56891 7.70986 1.5419C7.73687 1.32551 7.84507 1.13613 8.00744 1.00091C8.11563 0.892715 8.27801 0.811528 8.44021 0.784517C8.5214 0.595135 8.65661 0.405754 8.81898 0.270569C9.03537 0.108194 9.33293 0 9.65753 0C10.0091 0 10.3067 0.108194 10.5231 0.297576C10.7665 0.486957 10.9289 0.757355 10.9289 1.08196C10.9289 1.37953 10.7665 1.64995 10.5231 1.83934C10.3067 2.02872 10.0091 2.13691 9.65753 2.13691H9.57634V2.13704Z" fill="#405982"/>
</svg>
