<svg width="25" height="13" viewBox="0 0 25 13" fill="none" xmlns="http://www.w3.org/2000/svg">
<path d="M0.289112 10.1143H1.38726V10.0564V10.0276V9.99878V9.96995V9.94113V9.9123V9.88348V9.85465V9.82583V9.79701V9.76818V9.73936V9.71053V9.68171V9.65288V9.62406C1.38726 9.59523 1.38726 9.59523 1.41609 9.56621C1.41609 9.53738 1.44491 9.53738 1.44491 9.50836C1.44491 9.47953 1.44491 9.47953 1.47374 9.4505V9.42168C1.47374 9.42168 1.47374 9.39285 1.50256 9.39285V9.36403C1.50256 9.36403 1.50256 9.33521 1.53139 9.33521V9.30638C1.53139 9.30638 1.53139 9.27756 1.56021 9.27756V9.24873C1.56021 9.24873 1.56021 9.21991 1.58903 9.21991V9.19108C1.58903 9.19108 1.58904 9.16226 1.61786 9.16226V9.13343C1.61786 9.13343 1.61786 9.10461 1.64668 9.10461V9.07578L1.67551 9.04696V9.01814C1.67551 8.98931 1.70433 8.98931 1.70433 8.96028C1.70433 8.93146 1.73316 8.93146 1.73316 8.90243L1.76198 8.87361L1.96376 8.67183L1.99258 8.64301L2.16553 8.47006C2.19436 8.47006 2.19436 8.44123 2.22338 8.44123C2.25221 8.44123 2.25221 8.41241 2.28124 8.41241H2.31006L2.48301 8.23946C2.48301 8.23946 2.51184 8.23946 2.51184 8.21063C2.51184 8.21063 2.54066 8.21063 2.54066 8.18181C2.54066 8.18181 2.56949 8.18181 2.56949 8.15298H2.59831C2.59831 8.15298 2.62713 8.15298 2.62713 8.12416H2.65596C2.65596 8.12416 2.68478 8.12416 2.68478 8.09533H2.71361L2.74243 8.06651C2.77126 8.06651 2.77126 8.03769 2.80028 8.03769C2.82911 8.03769 2.82911 8.00886 2.85814 8.00886H2.88696C2.88696 8.00886 2.91579 8.00886 2.91579 7.98004H2.94461C2.94461 7.98004 2.97343 7.98004 2.97343 7.95121H3.00226H3.03108H3.05991H3.08873H3.11756H3.14638H3.17521H3.20403H3.23286H3.26168H3.2905H3.34836C3.37718 7.95121 3.37718 7.95121 3.40621 7.92239H3.43503H3.49288H3.52171H3.55053H3.57936H3.60818H3.63701H3.66583H3.69466H3.72348H3.75231H3.78113H3.80995H3.83878H3.8676H3.92545H3.95428H4.01213H4.06998H4.09881H4.15666H4.18548H4.21431H4.24313H4.27196H4.30078H4.32961H4.35843H4.38726H4.41608H4.4449H4.47373H4.50255H4.53138H4.58923H4.61805C4.64688 7.92239 4.64688 7.92239 4.67591 7.95121H4.73376H4.76258H4.79141H4.82023H4.84906H4.87788H4.9067H4.93553H4.96435H4.99318H5.022H5.05083C5.05083 7.95121 5.07965 7.95121 5.07965 7.98004H5.10848C5.10848 7.98004 5.1373 7.98004 5.1373 8.00886H5.16613C5.19495 8.00886 5.19495 8.03769 5.22398 8.03769C5.2528 8.03769 5.2528 8.06651 5.28183 8.06651L5.31065 8.09533H5.33948C5.33948 8.09533 5.3683 8.09533 5.3683 8.12416H5.39713C5.39713 8.12416 5.42595 8.12416 5.42595 8.15298H5.45478C5.45478 8.15298 5.4836 8.15298 5.4836 8.18181C5.4836 8.18181 5.51243 8.18181 5.51243 8.21063C5.51243 8.21063 5.54125 8.21063 5.54125 8.23946L5.7142 8.41241H5.74303C5.77185 8.41241 5.77185 8.44123 5.80088 8.44123C5.8297 8.44123 5.8297 8.47006 5.85873 8.47006L6.03168 8.64301L6.0605 8.67183L6.26228 8.87361L6.2911 8.90243C6.2911 8.93126 6.31993 8.93126 6.31993 8.96028C6.31993 8.98911 6.34875 8.98911 6.34875 9.01814V9.04696L6.37758 9.07578V9.10461C6.37758 9.10461 6.37758 9.13343 6.4064 9.13343V9.16226C6.4064 9.16226 6.4064 9.19108 6.43523 9.19108V9.21991C6.43523 9.21991 6.43523 9.24873 6.46405 9.24873V9.27756C6.46405 9.27756 6.46405 9.30638 6.49288 9.30638V9.33521C6.49288 9.33521 6.49288 9.36403 6.5217 9.36403V9.39285C6.5217 9.39285 6.5217 9.42168 6.55052 9.42168V9.4505C6.55052 9.47933 6.55052 9.47933 6.57935 9.50836C6.57935 9.53718 6.60817 9.53718 6.60817 9.56621C6.60817 9.59503 6.60817 9.59503 6.637 9.62406V9.65288V9.68171V9.71053V9.73936V9.76818V9.79701V9.82583V9.85465V9.88348V9.9123V9.94113V9.96995V9.99878V10.0276V10.0564V10.1143H14.786C14.9594 10.1143 15.0751 9.96975 15.0751 9.82522V9.42067L15.0846 2.28302V0.289056C15.0846 0.115703 14.9401 0 14.7955 0L0.289056 0.000201572C0.115703 0.000201572 0 0.14473 0 0.289258V9.82538C0.000201559 9.96971 0.144528 10.1142 0.289056 10.1142L0.289112 10.1143Z" fill="#405982"/>
<path d="M22.4542 1.99417C22.3387 1.73414 22.0785 1.56079 21.8185 1.56079H18.7266V5.20181H23.8414L22.4542 1.99417Z" fill="#405982"/>
<path d="M6.03916 10.5191C6.03916 11.5723 5.1853 12.4262 4.13189 12.4262C3.07868 12.4262 2.22461 11.5723 2.22461 10.5191C2.22461 9.46568 3.07868 8.61182 4.13189 8.61182C5.1853 8.61182 6.03916 9.46568 6.03916 10.5191Z" fill="#405982"/>
<path d="M24.188 6.03964H18.2929C18.0617 6.03964 17.8884 5.86629 17.8884 5.63509L17.8882 1.58936H16.8479C16.4722 1.58936 16.1543 1.90724 16.1543 2.28294V9.42059C16.1543 9.79632 16.4722 10.1142 16.8479 10.1142H17.917V10.0563V10.0275V9.96965V9.94082V9.912V9.88317V9.85435V9.82553V9.7967V9.76788V9.73905V9.71023V9.6814V9.65258C17.917 9.65258 17.917 9.62375 17.9459 9.62375V9.59493C17.9459 9.5661 17.9459 9.5661 17.9747 9.53708C17.9747 9.50825 18.0035 9.50825 18.0035 9.47923C18.0035 9.4504 18.0035 9.4504 18.0323 9.42137V9.39255C18.0323 9.39255 18.0323 9.36373 18.0612 9.36373V9.3349C18.0612 9.3349 18.0612 9.30608 18.09 9.30608V9.27725C18.09 9.27725 18.09 9.24843 18.1188 9.24843V9.2196C18.1188 9.2196 18.1188 9.19078 18.1476 9.19078V9.16195C18.1476 9.16195 18.1476 9.13313 18.1765 9.13313V9.1043C18.1765 9.1043 18.1765 9.07548 18.2053 9.07548V9.04666L18.2341 9.01783V8.98901C18.2629 8.96018 18.292 8.93115 18.3208 8.8735L18.3496 8.84468V8.81586L18.4073 8.7582L18.4361 8.72938L18.6379 8.52761L18.6667 8.49878L18.811 8.35445H18.8398L18.8687 8.32563H18.8975L18.9263 8.2968L19.0704 8.15268C19.0704 8.15268 19.0993 8.15268 19.0993 8.12385H19.1281C19.1281 8.12385 19.1569 8.12385 19.1569 8.09503H19.1857C19.1857 8.09503 19.2146 8.09503 19.2146 8.06621H19.2434L19.2722 8.03738C19.301 8.03738 19.301 8.00856 19.3301 8.00856C19.3589 8.00856 19.3589 7.97973 19.3879 7.97973H19.4167C19.4167 7.97973 19.4456 7.97973 19.4456 7.95091H19.4744C19.4744 7.95091 19.5032 7.95091 19.5032 7.92208H19.532H19.5609H19.5897H19.6185H19.6473H19.6762H19.705H19.7338H19.7626H19.7915H19.8203H19.8781C19.907 7.92208 19.907 7.92208 19.936 7.89326H19.9648H20.0227H20.0515H20.0803H20.1091H20.138H20.1668H20.1956H20.2244H20.2533H20.2821H20.3109H20.3397H20.3686H20.3974H20.4552H20.4841H20.5419H20.5998H20.6286H20.6864H20.7153H20.7441H20.7729H20.8017H20.8306H20.8594H20.8882H20.917H20.9459H20.9747H21.0035H21.0323H21.0611H21.119H21.1478C21.1766 7.89326 21.1767 7.89326 21.2057 7.92208H21.2635H21.2924H21.3212H21.35H21.3788H21.4077H21.4365H21.4653H21.4941H21.523H21.5518H21.5806C21.5806 7.92208 21.6094 7.92208 21.6094 7.95091H21.6382C21.6382 7.95091 21.6671 7.95091 21.6671 7.97973H21.6959C21.7247 7.97973 21.7247 8.00856 21.7538 8.00856C21.7826 8.00856 21.7826 8.03738 21.8116 8.03738L21.8404 8.06621H21.8693C21.8693 8.06621 21.8981 8.06621 21.8981 8.09503H21.9269C21.9269 8.09503 21.9557 8.09503 21.9557 8.12385H21.9845C21.9845 8.12385 22.0134 8.12385 22.0134 8.15268C22.0134 8.15268 22.0422 8.15268 22.0422 8.1815C22.0422 8.1815 22.071 8.1815 22.071 8.21033L22.2151 8.35445L22.244 8.38328H22.2728C22.3016 8.38328 22.3016 8.4121 22.3306 8.4121C22.3595 8.4121 22.3595 8.44093 22.3885 8.44093L22.5038 8.55623L22.5326 8.58505L22.7344 8.78683L22.7632 8.81565V8.84448L22.7921 8.8733C22.7921 8.90213 22.8209 8.90213 22.8209 8.93115C22.8209 8.95998 22.8497 8.95998 22.8497 8.989V9.01783L22.8785 9.04665V9.07548C22.8785 9.07548 22.8785 9.1043 22.9073 9.1043V9.13313C22.9073 9.13313 22.9073 9.16195 22.9362 9.16195V9.19078C22.9362 9.19078 22.9362 9.2196 22.965 9.2196V9.24843C22.965 9.24843 22.965 9.27725 22.9938 9.27725V9.30608C22.9938 9.30608 22.9938 9.3349 23.0226 9.3349V9.36372C23.0226 9.36372 23.0226 9.39255 23.0515 9.39255V9.42137C23.0515 9.4502 23.0515 9.4502 23.0803 9.47922V9.50805C23.0803 9.53687 23.1091 9.53687 23.1091 9.5659C23.1091 9.59472 23.1091 9.59473 23.1379 9.62375V9.65258V9.6814V9.71023V9.73905V9.76787V9.7967V9.82552V9.85435V9.88317V9.912V9.94082V9.96965V9.99847V10.0273V10.0561V10.114V10.1428H23.687C24.0628 10.1428 24.3806 9.82492 24.3806 9.44921V7.22406C24.3806 7.13738 24.3518 7.02168 24.3228 6.93501L24.188 6.03964Z" fill="#405982"/>
<path d="M22.5409 10.5191C22.5409 11.5723 21.687 12.4262 20.6338 12.4262C19.5804 12.4262 18.7266 11.5723 18.7266 10.5191C18.7266 9.46568 19.5804 8.61182 20.6338 8.61182C21.687 8.61182 22.5409 9.46568 22.5409 10.5191Z" fill="#405982"/>
</svg>
