<svg width="23" height="21" viewBox="0 0 23 21" fill="none" xmlns="http://www.w3.org/2000/svg">
<path d="M17.6046 14.9049L15.7411 12.2681V7.11687C15.7411 4.48768 13.7952 2.30471 11.2679 1.93188V0.768305C11.2679 0.343998 10.9239 0 10.4997 0C10.0754 0 9.73137 0.343998 9.73137 0.768305V1.93184C7.20415 2.30467 5.25817 4.48764 5.25817 7.11683V12.2681L3.3947 14.9049C3.03598 15.4124 3.39926 16.1166 4.02208 16.1166H16.9773C17.5987 16.1166 17.9642 15.4134 17.6046 14.9049Z" fill="#F8FAFF"/>
<path d="M10.4994 16.6652C9.30431 16.6652 8.33203 17.6374 8.33203 18.8325C8.33203 20.0276 9.30435 21 10.4994 21C11.6945 21 12.6668 20.0277 12.6668 18.8326C12.6668 17.6375 11.6945 16.6652 10.4994 16.6652Z" fill="#F8FAFF"/>
<circle cx="20.5" cy="2.5" r="2.5" fill="#FFA764"/>
</svg>
