<svg width="27" height="27" viewBox="0 0 27 27" fill="none" xmlns="http://www.w3.org/2000/svg">
<g clip-path="url(#clip0_545_850)">
<path d="M21.3684 15.2462C21.5794 15.5348 21.7551 15.8297 21.8479 16.1338H20.5404C19.9623 16.6291 19.4661 16.7782 18.954 16.7782C18.4439 16.7782 17.938 16.6273 17.3535 16.1338H13.9134V12.2765C14.1676 12.288 14.4096 12.3268 14.6584 12.3497C13.7694 10.7405 12.6394 8.3843 12.2846 6.84561C12.2722 6.79261 12.2678 6.73966 12.2564 6.68671C7.06293 7.14388 2.97559 11.5115 2.97559 16.8206C2.97559 22.4333 7.54225 27 13.1559 27C18.7687 27 23.3344 22.4333 23.3344 16.8206C23.3344 16.8206 23.3344 16.8206 23.3344 16.8201C23.3344 16.8201 23.3344 16.8198 23.3344 16.8193C23.3344 15.5732 23.0977 14.3836 22.6865 13.2793C22.1912 14.1109 21.7586 14.7531 21.3684 15.2462ZM9.42079 8.85747C8.85412 9.63479 8.37823 10.5904 8.01368 11.6779C6.92525 12.043 5.96916 12.5197 5.19152 13.0872C6.06532 11.2312 7.56521 9.73133 9.42079 8.85747ZM7.5731 13.3225C7.3896 14.2062 7.27484 15.1477 7.23778 16.1337H4.46666C4.80743 15.0211 5.94707 14.0257 7.5731 13.3225ZM4.46666 17.5074H7.23778C7.27484 18.493 7.3896 19.4345 7.5731 20.3182C5.94789 19.615 4.80825 18.6202 4.46666 17.5074ZM5.19147 20.5534C5.96829 21.1215 6.92519 21.5982 8.01275 21.9632C8.37823 23.0508 8.85412 24.0065 9.42079 24.7837C7.56521 23.9098 6.06532 22.4099 5.19147 20.5534ZM12.5397 25.5319C11.3982 25.2189 10.376 24.0638 9.65827 22.4038C10.5631 22.5918 11.528 22.707 12.5397 22.7406V25.5319ZM12.5397 21.3678C11.3215 21.3214 10.1633 21.1427 9.12165 20.8553C8.83905 19.8331 8.66072 18.6995 8.61033 17.5073H12.5397V21.3678H12.5397ZM12.5397 16.1338H8.61038C8.66077 14.9411 8.83905 13.8077 9.1217 12.7854C10.1634 12.4981 11.3215 12.3193 12.5398 12.273V16.1338H12.5397ZM12.5397 10.9002C11.528 10.9341 10.5631 11.0494 9.65827 11.237C10.376 9.57732 11.3992 8.42218 12.5397 8.10927V10.9002ZM13.9133 17.5074H17.7013C17.651 18.7018 17.4718 19.8375 17.1893 20.8611C16.175 21.14 15.0689 21.3122 13.9133 21.3643V17.5074ZM13.9133 25.5319V22.7374C14.8605 22.6977 15.7804 22.583 16.6552 22.4003C15.9667 23.9932 14.9982 25.1642 13.9133 25.5319ZM16.891 24.7834C17.4595 24.0038 17.937 23.0452 18.3017 21.954C18.9814 21.7249 19.6223 21.4543 20.2006 21.1343C20.5387 20.9472 20.8414 20.745 21.1274 20.5358C20.2552 22.4003 18.7527 23.9062 16.891 24.7834ZM19.5357 19.9324C19.2832 20.0718 19.0149 20.199 18.7386 20.3195C18.9223 19.4353 19.0369 18.4939 19.0741 17.5073H21.8468C21.5741 18.399 20.7831 19.2425 19.5357 19.9324Z" fill="#F8FAFF"/>
<path d="M18.954 0C15.3346 0 13.2804 3.12114 14.0459 6.43905C14.5914 8.80181 17.8841 14.9702 18.954 14.9702C19.9543 14.9702 23.3088 8.80001 23.8623 6.43905C24.6339 3.15373 22.5964 0 18.954 0ZM19.0114 6.35786C17.9504 6.35786 17.0906 5.49799 17.0906 4.43687C17.0906 3.37576 17.9504 2.51594 19.0114 2.51594C20.0726 2.51594 20.9323 3.37576 20.9323 4.43687C20.9323 5.49799 20.0726 6.35786 19.0114 6.35786Z" fill="#F8FAFF"/>
</g>
<defs>
<clipPath id="clip0_545_850">
<rect width="27" height="27" fill="white"/>
</clipPath>
</defs>
</svg>
