<svg width="20" height="20" viewBox="0 0 20 20" fill="none" xmlns="http://www.w3.org/2000/svg">
<path d="M9.9997 0C4.47706 0 0 4.47739 0 9.99983C0 15.5223 4.47706 20 9.9997 20C15.5223 20 19.9997 15.5225 19.9997 9.99983C19.9997 4.47719 15.5223 0 9.9997 0ZM9.43791 15.641H4.89192C4.57412 15.641 4.31559 15.3825 4.31559 15.0647V10.5187H9.43791V15.641ZM9.43798 9.48131H9.43791H4.31559V4.93525C4.31559 4.61746 4.57406 4.35893 4.89192 4.35893H9.43798V9.48131ZM15.5977 15.0647C15.5977 15.3825 15.339 15.6411 15.0215 15.6411H10.4754V10.5187H15.5977V15.0647ZM15.5977 9.48131H10.4754V4.35893H15.0215C15.339 4.35893 15.5977 4.61739 15.5977 4.93525V9.48131Z" fill="white"/>
<path d="M6.32749 8.48728H7.36494V7.44983H8.40232V6.41238H7.36494V5.375H6.32749V6.41238H5.29004V7.44983H6.32749V8.48728Z" fill="white"/>
<path d="M6.11334 14.522L6.84699 13.7883L7.58064 14.522L8.31403 13.7885L7.58038 13.0549L8.31403 12.3212L7.58064 11.5878L6.84699 12.3214L6.11334 11.5878L5.37988 12.3212L6.11354 13.0549L5.37988 13.7885L6.11334 14.522Z" fill="white"/>
<path d="M14.6562 6.41235H11.5439V7.4498H14.6562V6.41235Z" fill="white"/>
<path d="M14.6562 11.7556H11.5439V12.793H14.6562V11.7556Z" fill="white"/>
<path d="M14.6562 13.317H11.5439V14.3545H14.6562V13.317Z" fill="white"/>
</svg>
