<svg width="21" height="21" viewBox="0 0 21 21" fill="none" xmlns="http://www.w3.org/2000/svg">
<g clip-path="url(#clip0_545_845)">
<path d="M21 10.5011C21 4.70162 16.299 0.000976562 10.5002 0.000976562C4.70106 0.000976562 0 4.70162 0 10.5011C0 16.2997 4.70106 21.0007 10.5002 21.0007C16.299 21.0007 21 16.2997 21 10.5011Z" fill="#F8FAFF"/>
<path d="M6.3916 7.8423C6.3916 7.34581 6.55866 6.84272 6.89285 6.33313C7.22694 5.82355 7.71461 5.40152 8.35555 5.06698C8.99652 4.73255 9.7443 4.56525 10.5989 4.56525C11.3932 4.56525 12.0945 4.70515 12.7026 4.98467C13.3107 5.26433 13.7803 5.64457 14.1119 6.12536C14.4432 6.6063 14.609 7.12887 14.609 7.69333C14.609 8.13762 14.5145 8.52707 14.3255 8.86147C14.1365 9.19601 13.9118 9.48477 13.6516 9.72775C13.3914 9.9708 12.9244 10.3798 12.2506 10.9547C12.0643 11.1168 11.9149 11.2593 11.8027 11.382C11.6904 11.5049 11.6068 11.6172 11.5521 11.7191C11.4972 11.821 11.4547 11.9229 11.4247 12.0249C11.3945 12.1267 11.3493 12.3059 11.2891 12.5619C11.185 13.1055 10.859 13.3773 10.3113 13.3773C10.0264 13.3773 9.78664 13.2885 9.59224 13.1107C9.39773 12.933 9.30053 12.6691 9.30053 12.3189C9.30053 11.8798 9.37167 11.4996 9.51419 11.1782C9.65661 10.8567 9.84558 10.5745 10.0812 10.3315C10.3167 10.0884 10.6345 9.79972 11.0344 9.46518C11.3849 9.17253 11.6384 8.95167 11.7945 8.8027C11.9507 8.65374 12.0821 8.4879 12.189 8.30486C12.2958 8.12196 12.3492 7.9234 12.3492 7.70903C12.3492 7.29093 12.1862 6.93816 11.8603 6.65065C11.5343 6.36328 11.1138 6.21945 10.5989 6.21945C9.99618 6.21945 9.55245 6.36449 9.26766 6.65457C8.98276 6.94465 8.74176 7.37193 8.54452 7.93639C8.35824 8.52707 8.00486 8.82229 7.48446 8.82229C7.17757 8.82229 6.91873 8.71914 6.70792 8.51262C6.49703 8.30618 6.3916 8.08275 6.3916 7.8423ZM10.4017 16.4348C10.0675 16.4348 9.77576 16.3315 9.52653 16.1251C9.2772 15.9187 9.15262 15.63 9.15262 15.2588C9.15262 14.9295 9.27305 14.6526 9.51419 14.4278C9.75519 14.2031 10.051 14.0907 10.4017 14.0907C10.7468 14.0907 11.0371 14.2031 11.2727 14.4278C11.5082 14.6526 11.626 14.9295 11.626 15.2588C11.626 15.6247 11.5028 15.9122 11.2563 16.1212C11.0097 16.3302 10.7249 16.4348 10.4017 16.4348Z" fill="#C5D4F2"/>
</g>
<defs>
<clipPath id="clip0_545_845">
<rect width="21" height="21" fill="white"/>
</clipPath>
</defs>
</svg>
