<svg width="20" height="20" viewBox="0 0 20 20" fill="none" xmlns="http://www.w3.org/2000/svg">
<path d="M0 8.3241C0 12.9146 3.73464 16.6452 8.32105 16.6452C10.4341 16.6452 12.3669 15.8507 13.837 14.5485L19.14 19.8515C19.2383 19.9498 19.3653 19.999 19.4963 19.999C19.6274 19.999 19.7543 19.9498 19.8526 19.8515C20.0491 19.655 20.0491 19.3397 19.8526 19.1431L14.5455 13.8401C15.8477 12.37 16.6421 10.4412 16.6421 8.3241C16.6421 3.7336 12.9075 0.00305176 8.32105 0.00305176C3.73464 0.00305176 0 3.7336 0 8.3241ZM15.6388 8.3241C15.6388 12.3577 12.3546 15.6419 8.32105 15.6419C4.28747 15.6419 1.00328 12.3577 1.00328 8.3241C1.00328 4.29052 4.28747 1.00633 8.32105 1.00633C12.3546 1.00633 15.6388 4.28643 15.6388 8.3241Z" fill="#F8FAFF"/>
</svg>
