<svg width="20" height="20" viewBox="0 0 20 20" fill="none" xmlns="http://www.w3.org/2000/svg">
<path fill-rule="evenodd" clip-rule="evenodd" d="M11.25 0H8.75L8.06179 2.75285C7.41862 2.92443 6.80948 3.17934 6.24662 3.50533L3.81283 2.04505L2.04506 3.81281L3.50534 6.2466C3.17935 6.80946 2.92443 7.41861 2.75285 8.06179L0 8.75V11.25L2.75285 11.9382C2.92443 12.5814 3.17934 13.1905 3.50534 13.7534L2.04506 16.1871L3.81283 17.955L6.24661 16.4946C6.80946 16.8206 7.41861 17.0756 8.06179 17.2471L8.75 20H11.25L11.9382 17.2471C12.5814 17.0756 13.1905 16.8206 13.7534 16.4946L16.1873 17.955L17.955 16.1871L16.4946 13.7534C16.8206 13.1905 17.0756 12.5814 17.2471 11.9382L20 11.25V8.75L17.2471 8.06179C17.0756 7.41862 16.8206 6.80948 16.4946 6.24662L17.955 3.81281L16.1873 2.04504L13.7534 3.50533C13.1905 3.17934 12.5814 2.92443 11.9382 2.75285L11.25 0ZM10 12.5C11.3807 12.5 12.5 11.3807 12.5 10C12.5 8.61929 11.3807 7.5 10 7.5C8.61929 7.5 7.5 8.61929 7.5 10C7.5 11.3807 8.61929 12.5 10 12.5Z" fill="#F8FAFF"/>
</svg>
