<svg width="23" height="23" viewBox="0 0 23 23" fill="none" xmlns="http://www.w3.org/2000/svg">
<g clip-path="url(#clip0_545_830)">
<path d="M11.4998 12.2767C13.4785 12.2767 15.0826 10.3922 15.0826 8.06755C15.0826 5.7429 13.4785 3.8584 11.4998 3.8584C9.52106 3.8584 7.91699 5.7429 7.91699 8.06755C7.91699 10.3922 9.52106 12.2767 11.4998 12.2767Z" fill="#F8FAFF"/>
<path d="M11.5 0C5.14549 0 0 5.14969 0 11.5C0 17.8299 5.12068 23 11.5 23C17.8382 23 23 17.8717 23 11.5C23 5.1522 17.8586 0 11.5 0ZM18.8343 17.5323C18.385 15.2928 16.8468 13.4212 14.7715 12.4462C13.8729 13.2945 12.7236 13.78 11.5 13.78C10.2431 13.78 9.09637 13.2697 8.21872 12.437C6.13859 13.4037 4.60822 15.268 4.16365 17.5299C3.74239 17.0192 3.3794 16.4708 3.07724 15.8931C3.53544 14.6878 4.27078 13.5872 5.24976 12.668C5.85834 12.0967 6.53726 11.6187 7.2667 11.2405C6.71249 10.3087 6.41394 9.21147 6.41394 8.06754C6.41394 4.88898 8.69981 2.35512 11.5 2.35512C14.3057 2.35512 16.5861 4.89494 16.5861 8.06754C16.5861 9.21298 16.2868 10.3116 15.7312 11.2442C17.6531 12.2421 19.1578 13.8971 19.921 15.8966C19.6187 16.4739 19.2556 17.022 18.8343 17.5323Z" fill="#F8FAFF"/>
</g>
<defs>
<clipPath id="clip0_545_830">
<rect width="23" height="23" fill="white"/>
</clipPath>
</defs>
</svg>
