<svg width="19" height="23" viewBox="0 0 19 23" fill="none" xmlns="http://www.w3.org/2000/svg">
<path d="M18.6006 15.2915C18.5185 15.1926 18.4379 15.0938 18.3588 14.9983C17.2712 13.6828 16.6132 12.8888 16.6132 9.16472C16.6132 7.23666 16.1519 5.65466 15.2428 4.46816C14.5724 3.59163 13.6662 2.9267 12.4718 2.43529C12.4564 2.42674 12.4427 2.41552 12.4313 2.40217C12.0017 0.963536 10.826 0 9.50012 0C8.17421 0 6.99908 0.963536 6.56947 2.40068C6.558 2.41355 6.54447 2.42441 6.52942 2.43282C3.74214 3.58026 2.38755 5.78171 2.38755 9.16323C2.38755 12.8888 1.73053 13.6828 0.641918 14.9969C0.562818 15.0923 0.482235 15.1892 0.400168 15.29C0.188181 15.5457 0.0538694 15.8567 0.0131292 16.1863C-0.0276111 16.5159 0.0269252 16.8503 0.170284 17.1499C0.475313 17.7925 1.12542 18.1915 1.86747 18.1915H17.1382C17.8768 18.1915 18.5225 17.793 18.8285 17.1533C18.9725 16.8537 19.0275 16.519 18.9871 16.189C18.9467 15.8591 18.8126 15.5476 18.6006 15.2915Z" fill="#3B69E4"/>
<path d="M9.50092 22.148C10.2153 22.1474 10.9162 21.9535 11.5293 21.5868C12.1424 21.2201 12.6448 20.6943 12.9833 20.0652C12.9992 20.0351 13.0071 20.0013 13.0062 19.9672C13.0052 19.9331 12.9954 19.8999 12.9778 19.8707C12.9602 19.8414 12.9353 19.8173 12.9056 19.8005C12.8759 19.7838 12.8424 19.775 12.8083 19.775H6.19454C6.16039 19.7749 6.12679 19.7836 6.09702 19.8004C6.06724 19.8171 6.0423 19.8412 6.02463 19.8704C6.00696 19.8997 5.99716 19.933 5.99618 19.9671C5.99519 20.0012 6.00307 20.035 6.01904 20.0652C6.35745 20.6943 6.85979 21.22 7.4728 21.5867C8.0858 21.9534 8.78661 22.1474 9.50092 22.148Z" fill="#3B69E4"/>
</svg>
