<svg width="41" height="41" viewBox="0 0 41 41" fill="none" xmlns="http://www.w3.org/2000/svg">
<g clip-path="url(#clip0_251_1116)" filter="url(#filter0_d_251_1116)">
<path d="M20.5 33C11.4021 33 4 25.5979 4 16.5C4 7.40205 11.4021 0 20.5 0C29.5979 0 37 7.40205 37 16.5C37 25.5979 29.5979 33 20.5 33Z" fill="#00D2FF"/>
<path d="M28.2 27.5001C19.1021 27.5001 11.7 20.098 11.7 11.0001C11.7 7.19171 13.0096 3.69042 15.1851 0.894897C8.69012 3.11383 4 9.26323 4 16.5C4 25.598 11.4021 33 20.5 33C25.7896 33 30.4934 30.488 33.515 26.6052C31.8445 27.1759 30.0611 27.5001 28.2 27.5001Z" fill="#18BDF6"/>
<path d="M15.6955 16.9427H13.4356C13.1367 16.9427 12.8945 17.185 12.8945 17.4838V23.1461C12.8945 23.4449 13.1367 23.6872 13.4356 23.6872H15.6955C15.9944 23.6872 16.2366 23.4449 16.2366 23.1461V17.4838C16.2366 17.185 15.9944 16.9427 15.6955 16.9427ZM15.1544 22.605H13.9767V18.0248H15.1544V22.605Z" fill="white"/>
<path d="M19.9513 13.9464H17.6915C17.3926 13.9464 17.1504 14.1886 17.1504 14.4874V23.1461C17.1504 23.4449 17.3926 23.6871 17.6915 23.6871H19.9514C20.2502 23.6871 20.4924 23.4449 20.4924 23.1461V14.4874C20.4924 14.1886 20.2502 13.9464 19.9513 13.9464ZM19.4102 22.605H18.2325V15.0285H19.4102V22.605Z" fill="white"/>
<path d="M24.2033 17.3898H21.9434C21.6446 17.3898 21.4023 17.632 21.4023 17.9308V23.1461C21.4023 23.4449 21.6446 23.6871 21.9434 23.6871H24.2033C24.5022 23.6871 24.7444 23.4449 24.7444 23.1461V17.9308C24.7444 17.632 24.5022 17.3898 24.2033 17.3898ZM23.6623 22.605H22.4845V18.4719H23.6623V22.605Z" fill="white"/>
<path d="M28.4592 14.1461H26.1993C25.9004 14.1461 25.6582 14.3883 25.6582 14.6871V23.1461C25.6582 23.4449 25.9004 23.6871 26.1993 23.6871H28.4592C28.758 23.6871 29.0003 23.4449 29.0003 23.1461V14.6871C29.0003 14.3883 28.758 14.1461 28.4592 14.1461ZM27.9182 22.605H26.7403V15.2282H27.9181V22.605H27.9182Z" fill="white"/>
<path d="M22.7563 15.1248C22.9532 15.2679 23.2216 15.2619 23.4119 15.11L27.456 11.8827L27.4381 12.4146C27.4281 12.7132 27.662 12.9635 27.9606 12.9736C27.9669 12.9737 27.973 12.9739 27.9792 12.9739C28.2697 12.9739 28.5098 12.7434 28.5197 12.451L28.5835 10.5593C28.5885 10.4096 28.5312 10.2644 28.4253 10.1585C28.3194 10.0525 28.1738 9.99505 28.0245 10.0003L26.1328 10.0641C25.8341 10.0742 25.6002 10.3245 25.6103 10.6231C25.6203 10.9217 25.8696 11.1552 26.1692 11.1457L26.6659 11.1289L23.0592 14.0072L18.9579 11.0262C18.7783 10.8956 18.5371 10.888 18.3497 11.0071L12.2511 14.8806C11.9988 15.0408 11.9242 15.3752 12.0844 15.6274C12.1875 15.7897 12.3626 15.8784 12.5416 15.8784C12.6408 15.8784 12.7413 15.8511 12.8312 15.794L18.6192 12.1178L22.7563 15.1248Z" fill="white"/>
</g>
<defs>
<filter id="filter0_d_251_1116" x="0" y="0" width="41" height="41" filterUnits="userSpaceOnUse" color-interpolation-filters="sRGB">
<feFlood flood-opacity="0" result="BackgroundImageFix"/>
<feColorMatrix in="SourceAlpha" type="matrix" values="0 0 0 0 0 0 0 0 0 0 0 0 0 0 0 0 0 0 127 0" result="hardAlpha"/>
<feOffset dy="4"/>
<feGaussianBlur stdDeviation="2"/>
<feComposite in2="hardAlpha" operator="out"/>
<feColorMatrix type="matrix" values="0 0 0 0 0 0 0 0 0 0 0 0 0 0 0 0 0 0 0.25 0"/>
<feBlend mode="normal" in2="BackgroundImageFix" result="effect1_dropShadow_251_1116"/>
<feBlend mode="normal" in="SourceGraphic" in2="effect1_dropShadow_251_1116" result="shape"/>
</filter>
<clipPath id="clip0_251_1116">
<rect width="33" height="33" fill="white" transform="translate(4)"/>
</clipPath>
</defs>
</svg>
