<svg width="18" height="18" viewBox="0 0 18 18" fill="none" xmlns="http://www.w3.org/2000/svg">
<g clip-path="url(#clip0_265_1634)">
<path d="M1.13477 4.34731L1.17812 13.6648C1.17877 13.7846 1.24478 13.8944 1.35 13.9511L8.79195 17.8477C8.84053 17.8736 8.89368 17.8867 8.94684 17.8867C8.94706 17.8867 8.94728 17.8867 8.94749 17.8867C8.96993 17.9122 8.99498 17.9361 9.02483 17.954C9.07624 17.9847 9.13419 18.0002 9.19236 18.0002C9.24595 18.0002 9.2991 17.9869 9.34746 17.9608L16.6953 13.9759C16.8007 13.9186 16.8667 13.8082 16.8667 13.6886V3.9944C16.8667 3.99157 16.8657 3.98896 16.8657 3.98591C16.8654 3.98351 16.8663 3.98133 16.8663 3.97872C16.8659 3.96935 16.8622 3.96085 16.8615 3.9517C16.8587 3.93384 16.8567 3.91598 16.8513 3.89877C16.8474 3.88679 16.8423 3.87611 16.8373 3.86457C16.8306 3.84932 16.8238 3.83429 16.8147 3.82034C16.8079 3.80945 16.7999 3.79965 16.7918 3.78963C16.7816 3.77699 16.7709 3.76523 16.7587 3.75412C16.7491 3.7454 16.7389 3.73756 16.728 3.72994C16.721 3.72514 16.7151 3.71839 16.7075 3.71403C16.7005 3.70968 16.6925 3.70793 16.6848 3.70423C16.6785 3.70096 16.6735 3.69639 16.6672 3.69356L9.0952 0.0256747C9.00697 -0.0115771 8.90697 -0.00809155 8.82114 0.0348242L1.33628 3.93667C1.22648 3.99201 1.15721 4.10441 1.15655 4.22706C1.15655 4.22902 1.15743 4.23077 1.15743 4.23251C1.14414 4.26889 1.13455 4.30723 1.13477 4.34731ZM15.7851 4.03035L9.18865 7.71849L2.20332 4.23164L8.97995 0.686403L15.7851 4.03035ZM9.51891 17.1249V8.28271L16.2132 4.54163V13.4929L9.51891 17.1249Z" fill="white"/>
</g>
<defs>
<clipPath id="clip0_265_1634">
<rect width="18" height="18" fill="white"/>
</clipPath>
</defs>
</svg>
