<svg width="33" height="33" viewBox="0 0 33 33" fill="none" xmlns="http://www.w3.org/2000/svg">
<g clip-path="url(#clip0_429_257)">
<path d="M16.5 33C7.40205 33 0 25.5979 0 16.5C0 7.40205 7.40205 0 16.5 0C25.5979 0 33 7.40205 33 16.5C33 25.5979 25.5979 33 16.5 33Z" fill="#00D2FF"/>
<path d="M24.2 27.5C15.1021 27.5 7.70002 20.098 7.70002 11C7.70002 7.1917 9.00958 3.69041 11.1851 0.894885C4.69012 3.11381 0 9.26322 0 16.5C0 25.598 7.40205 33 16.5 33C21.7896 33 26.4934 30.488 29.515 26.6052C27.8445 27.1759 26.0611 27.5 24.2 27.5Z" fill="#18BDF6"/>
<g clip-path="url(#clip1_429_257)">
<path d="M16.5036 6C10.7048 6 6.00391 10.7013 6.00391 16.4998C6.00391 22.2984 10.7048 27 16.5036 27C22.3024 27 27.0036 22.2986 27.0036 16.4998C27.0036 10.7011 22.3024 6 16.5036 6ZM15.9137 22.4231H11.1404C10.8067 22.4231 10.5353 22.1517 10.5353 21.8179V17.0446H15.9137V22.4231ZM15.9138 15.9554H15.9137H10.5353V11.182C10.5353 10.8483 10.8067 10.5769 11.1404 10.5769H15.9138V15.9554ZM22.3815 21.818C22.3815 22.1517 22.1099 22.4231 21.7765 22.4231H17.003V17.0446H22.3815V21.818ZM22.3815 15.9554H17.003V10.5769H21.7765C22.1099 10.5769 22.3815 10.8483 22.3815 11.182V15.9554Z" fill="white"/>
<path d="M12.6479 14.9116H13.7372V13.8223H14.8265V12.733H13.7372V11.6437H12.6479V12.733H11.5586V13.8223H12.6479V14.9116Z" fill="white"/>
<path d="M12.4225 21.2481L13.1928 20.4778L13.9631 21.2481L14.7332 20.478L13.9629 19.7077L14.7332 18.9373L13.9631 18.1672L13.1928 18.9375L12.4225 18.1672L11.6523 18.9373L12.4227 19.7077L11.6523 20.478L12.4225 21.2481Z" fill="white"/>
<path d="M21.3929 12.733H18.125V13.8223H21.3929V12.733Z" fill="white"/>
<path d="M21.3929 18.3433H18.125V19.4326H21.3929V18.3433Z" fill="white"/>
<path d="M21.3929 19.9829H18.125V21.0722H21.3929V19.9829Z" fill="white"/>
</g>
</g>
<defs>
<clipPath id="clip0_429_257">
<rect width="33" height="33" fill="white"/>
</clipPath>
<clipPath id="clip1_429_257">
<rect width="21" height="21" fill="white" transform="translate(6 6)"/>
</clipPath>
</defs>
</svg>
