<svg width="33" height="33" viewBox="0 0 33 33" fill="none" xmlns="http://www.w3.org/2000/svg">
<g clip-path="url(#clip0_429_405)">
<path d="M16.5 33C7.40205 33 0 25.5979 0 16.5C0 7.40205 7.40205 0 16.5 0C25.5979 0 33 7.40205 33 16.5C33 25.5979 25.5979 33 16.5 33Z" fill="#00D2FF"/>
<path d="M24.2 27.5001C15.1021 27.5001 7.70002 20.098 7.70002 11.0001C7.70002 7.19171 9.00958 3.69042 11.1851 0.894897C4.69012 3.11383 0 9.26323 0 16.5C0 25.598 7.40205 33 16.5 33C21.7896 33 26.4934 30.488 29.515 26.6052C27.8445 27.1759 26.0611 27.5001 24.2 27.5001Z" fill="#18BDF6"/>
<path d="M22.6583 11.4017L14.8983 19.1616L11.3417 15.605C10.8061 15.0694 9.93751 15.0693 9.40179 15.6049C8.86607 16.1406 8.86607 17.0092 9.40179 17.5449L13.9283 22.0715C14.1855 22.3288 14.5344 22.4734 14.8982 22.4734C14.8983 22.4734 14.8982 22.4734 14.8983 22.4734C15.2621 22.4734 15.6109 22.3288 15.8682 22.0716L24.5982 13.3418C25.1339 12.8061 25.1339 11.9376 24.5982 11.4018C24.0625 10.8661 23.194 10.866 22.6583 11.4017Z" fill="white"/>
</g>
<defs>
<clipPath id="clip0_429_405">
<rect width="33" height="33" fill="white"/>
</clipPath>
</defs>
</svg>
