<svg width="30" height="30" viewBox="0 0 30 30" fill="none" xmlns="http://www.w3.org/2000/svg">
<g clip-path="url(#clip0_37_157)">
<path d="M15 30C6.72914 30 0 23.2709 0 15C0 6.72914 6.72914 0 15 0C23.2709 0 30 6.72914 30 15C30 23.2709 23.2709 30 15 30Z" fill="#00D2FF"/>
<path d="M22 25C13.7292 25 7.00002 18.2708 7.00002 9.99998C7.00002 6.53785 8.19053 3.35486 10.1682 0.813477C4.26375 2.83068 0 8.42106 0 15C0 23.2708 6.72914 30 15 30C19.8087 30 24.0849 27.7163 26.8318 24.1865C25.3132 24.7053 23.6919 25 22 25Z" fill="#18BDF6"/>
<path d="M14.0986 8.92658C13.6054 8.2511 12.8903 7.82295 12.0848 7.72095C11.2793 7.61896 10.4801 7.85535 9.83409 8.38658C9.18812 8.91782 8.77288 9.68025 8.66484 10.5335C8.55679 11.3868 8.76888 12.2286 9.26205 12.9041L14.4346 19.9889C15.1034 20.9049 16.36 21.0638 17.2358 20.3436C18.1117 19.6232 18.2802 18.2921 17.6116 17.3762L12.4901 10.3616C12.2932 10.0918 11.9243 10.0451 11.6664 10.2573C11.4084 10.4694 11.3589 10.8601 11.5559 11.1299L16.6772 18.1445C16.9526 18.5217 16.8832 19.0701 16.5225 19.3667C16.1618 19.6633 15.6443 19.5978 15.3688 19.2206L10.1962 12.1359C9.89355 11.7213 9.76348 11.2047 9.82978 10.6811C9.89609 10.1575 10.1509 9.68955 10.5473 9.36358C11.3657 8.69055 12.5396 8.8392 13.1644 9.69497L18.584 17.1182C19.5563 18.45 19.3112 20.3855 18.0377 21.4329C17.4208 21.9402 16.6573 22.166 15.8881 22.0686C15.1188 21.9712 14.4358 21.5622 13.9648 20.9171L9.79786 15.2096C9.60092 14.9398 9.23202 14.8931 8.97415 15.1053C8.71618 15.3174 8.66671 15.7081 8.86365 15.9779L13.0306 21.6853C13.6921 22.5914 14.6514 23.1657 15.7318 23.3025C16.8122 23.4393 17.8845 23.1223 18.7509 22.4097C19.6173 21.697 20.1744 20.6743 20.3193 19.5297C20.4643 18.3852 20.1798 17.2558 19.5182 16.3499L14.0986 8.92658Z" fill="white"/>
</g>
<defs>
<clipPath id="clip0_37_157">
<rect width="30" height="30" fill="white"/>
</clipPath>
</defs>
</svg>
