<svg width="14" height="14" viewBox="0 0 14 14" fill="none" xmlns="http://www.w3.org/2000/svg">
<path d="M12.4268 6.84631H1.57304C1.04807 6.84631 0.62085 7.27717 0.62085 7.80668V7.88551L1.81364 13.1018L1.83111 13.1645C1.97303 13.5945 2.39037 13.9066 2.82331 13.9066H11.1768C11.6097 13.9066 12.027 13.5946 12.169 13.1645L13.379 7.88554V7.80671C13.3789 7.27714 12.9518 6.84631 12.4268 6.84631ZM8.88112 12.5776L8.9573 11.7296H9.58276L9.44933 12.5776H8.88112ZM7.43365 12.5776V11.7296H8.08591L8.00973 12.5776H7.43365ZM5.99001 12.5776L5.91383 11.7296H6.56609V12.5776H5.99001ZM4.55056 12.5776L4.41701 11.7296H5.04258L5.11876 12.5776H4.55056ZM2.38769 9.93706H3.25575L3.39405 10.8159H2.5887L2.38769 9.93706ZM4.13482 9.93706H4.88158L4.96052 10.8159H4.27321L4.13482 9.93706ZM4.72334 8.1753L4.79952 9.0234H3.99113L3.85769 8.1753H4.72334ZM10.1422 8.1753L10.0088 9.0234H9.20025L9.27643 8.1753H10.1422ZM8.32889 9.02342H7.43357V8.1753H8.40515L8.32889 9.02342ZM7.43365 9.93706H8.24699L8.16805 10.8159H7.43374V9.93706H7.43365ZM6.5662 10.8159H5.83188L5.75294 9.93706H6.56628V10.8159H6.5662ZM6.5662 9.02342H5.6708L5.59462 8.17533H6.5662V9.02342ZM9.03925 10.8159L9.11819 9.93706H9.86495L9.72656 10.8159H9.03925ZM10.7441 9.93706H11.6122L11.4113 10.8159H10.6059L10.7441 9.93706ZM11.821 9.02342H10.888L11.0214 8.17533H12.0149L11.821 9.02342ZM2.97832 8.1753L3.11176 9.0234H2.17873L1.98478 8.1753H2.97832ZM2.79747 11.7296H3.53785L3.67129 12.5776H2.99142L2.79747 11.7296ZM11.0084 12.5776H10.3285L10.4619 11.7296H11.2022L11.0084 12.5776Z" fill="white"/>
<path d="M14 7.8405C14 8.0374 13.8403 8.19706 13.6434 8.19706H0.356562C0.15966 8.19706 0 8.0374 0 7.8405V6.38592C0 6.18902 0.15966 6.02936 0.356562 6.02936H13.6434C13.8403 6.02936 14 6.18902 14 6.38592V7.8405Z" fill="white" fill-opacity="0.85"/>
<path d="M7.83476 6.11404C7.83476 6.31094 7.6751 6.4706 7.47819 6.4706H6.18358C5.98667 6.4706 5.8269 6.31094 5.8269 6.11404V0.356563C5.8269 0.15966 5.98667 0 6.18358 0H7.47819C7.6751 0 7.83476 0.15966 7.83476 0.356563V6.11404Z" fill="white" fill-opacity="0.85"/>
<path d="M5.43921 5.69763V6.36299C5.43921 7.13159 6.06229 7.75459 6.8307 7.75459C7.59931 7.75459 8.22231 7.13151 8.22231 6.36299V5.69763H5.43921Z" fill="white"/>
<path d="M6.95138 5.32943C6.95138 5.39593 6.89743 5.44997 6.83074 5.44997C6.76424 5.44997 6.71021 5.39602 6.71021 5.32943V0.612475C6.71021 0.545893 6.76415 0.491943 6.83074 0.491943C6.89732 0.491943 6.95138 0.545893 6.95138 0.612475V5.32943Z" fill="white"/>
</svg>
