<svg width="29" height="29" viewBox="0 0 29 29" fill="none" xmlns="http://www.w3.org/2000/svg">
<g clip-path="url(#clip0_74_175)">
<path d="M14.5 29C6.50484 29 0 22.4952 0 14.5C0 6.50484 6.50484 0 14.5 0C22.4952 0 29 6.50484 29 14.5C29 22.4952 22.4952 29 14.5 29Z" fill="#00D2FF"/>
<path d="M21.2667 24.1667C13.2715 24.1667 6.76669 17.6619 6.76669 9.66669C6.76669 6.31997 7.91751 3.24308 9.8293 0.786407C4.12162 2.73637 0 8.1404 0 14.5C0 22.4952 6.50484 29 14.5 29C19.1484 29 23.2821 26.7925 25.9374 23.3803C24.4694 23.8818 22.9022 24.1667 21.2667 24.1667Z" fill="#18BDF6"/>
<g clip-path="url(#clip1_74_175)">
<path d="M9.28757 9.8792C9.21384 9.91954 9.16748 9.99744 9.16748 10.0823V16.5741C9.16748 16.6483 9.20319 16.7178 9.26301 16.7614L13.2726 19.6777C13.2944 19.6934 13.3185 19.7045 13.3403 19.7194V12.3155L9.5236 9.88615C9.45218 9.84118 9.36176 9.83885 9.28757 9.8792ZM10.1278 13.209C10.1941 13.0991 10.336 13.0639 10.4459 13.1297L12.7644 14.5208C12.8743 14.5867 12.9095 14.729 12.8437 14.8389C12.8006 14.9113 12.7236 14.9512 12.6452 14.9512C12.6049 14.9512 12.5636 14.9405 12.5261 14.9182L10.2075 13.5271C10.0976 13.4613 10.062 13.3185 10.1278 13.209ZM10.1278 14.6001C10.1941 14.4907 10.336 14.4545 10.4459 14.5208L12.7644 15.9119C12.8743 15.9778 12.9095 16.1202 12.8437 16.23C12.8006 16.3024 12.7236 16.3423 12.6452 16.3423C12.6049 16.3423 12.5636 16.3316 12.5261 16.3093L10.2075 14.9182C10.0976 14.8524 10.062 14.7096 10.1278 14.6001Z" fill="white"/>
<path d="M13.8044 12.5395V19.9545C14.0261 20.0333 14.2593 20.0769 14.5 20.0769C14.7407 20.0769 14.9739 20.0328 15.1955 19.9545V12.5395C14.7476 12.6943 14.2524 12.6943 13.8044 12.5395Z" fill="white"/>
<path d="M19.7125 9.87922C19.6379 9.83888 19.5479 9.8412 19.4765 9.88711L15.6593 12.316V19.7199C15.6816 19.705 15.7057 19.6939 15.727 19.6781L19.7366 16.7619C19.7969 16.7179 19.8326 16.6483 19.8326 16.5741V10.0823C19.8326 9.99746 19.7862 9.91956 19.7125 9.87922Z" fill="white"/>
<path d="M14.5 8.92307C13.6051 8.92307 12.8771 9.65107 12.8771 10.546C12.8771 11.441 13.6051 12.169 14.5 12.169C15.395 12.169 16.123 11.441 16.123 10.546C16.123 9.65107 15.395 8.92307 14.5 8.92307Z" fill="white"/>
</g>
</g>
<defs>
<clipPath id="clip0_74_175">
<rect width="29" height="29" fill="white"/>
</clipPath>
<clipPath id="clip1_74_175">
<rect width="11.1538" height="11.1538" fill="white" transform="translate(8.9231 8.92307)"/>
</clipPath>
</defs>
</svg>
