<svg width="23" height="23" viewBox="0 0 23 23" fill="none" xmlns="http://www.w3.org/2000/svg">
<g clip-path="url(#clip0_642_1597)">
<path d="M11.5 23C5.15901 23 0 17.841 0 11.5C0 5.15901 5.15901 0 11.5 0C17.841 0 23 5.15901 23 11.5C23 17.841 17.841 23 11.5 23Z" fill="#00D2FF"/>
<path d="M16.8667 19.1667C10.5257 19.1667 5.36668 14.0077 5.36668 7.66671C5.36668 5.01241 6.2794 2.57211 7.79565 0.623718C3.26887 2.17024 0 6.4562 0 11.5C0 17.841 5.15901 23 11.5 23C15.1867 23 18.4651 21.2492 20.571 18.543C19.4068 18.9408 18.1638 19.1667 16.8667 19.1667Z" fill="#18BDF6"/>
<path d="M16.705 15.8404C16.705 15.9287 16.6337 16 16.5454 16H7.4525C7.36428 16 7.29297 15.9287 7.29297 15.8404V15.5613C7.29297 15.473 7.36428 15.4017 7.4525 15.4017H16.5454C16.6337 15.4017 16.705 15.473 16.705 15.5613V15.8404Z" fill="#FDFEFF"/>
<path d="M7.45241 15.4017C7.37138 15.4017 7.30724 15.4632 7.29688 15.5413C7.30724 15.6195 7.37138 15.6809 7.45241 15.6809H16.5454C16.6264 15.6809 16.6905 15.6195 16.7009 15.5413C16.6907 15.4631 16.6264 15.4017 16.5454 15.4017H7.45241Z" fill="white"/>
<path d="M15.5898 9.42325C15.4935 9.42325 15.3959 9.39676 15.3083 9.34125L12.0004 7.24845L8.69246 9.34125C8.44599 9.49711 8.1204 9.42388 7.9647 9.17774C7.80884 8.93127 7.88207 8.60567 8.12838 8.44997L12.0004 6L15.8722 8.44983C16.1185 8.60569 16.1919 8.93129 16.0359 9.17759C15.9357 9.33631 15.7648 9.42293 15.5898 9.42325Z" fill="white"/>
<path d="M8.69139 9.3413L11.9993 7.24849L15.3072 9.3413C15.3948 9.39681 15.4922 9.4233 15.5888 9.4233C15.745 9.42297 15.8949 9.35071 15.9975 9.22294C15.9619 9.1794 15.9212 9.1395 15.8713 9.10793L11.9993 6.65808L8.12731 9.10791C8.07706 9.13965 8.03558 9.18017 8 9.2242C8.16591 9.43079 8.46199 9.48646 8.69139 9.3413Z" fill="white"/>
<path d="M11.6429 14.7545C11.6429 14.8256 11.5853 14.8835 11.5138 14.8835H9.37905C9.30774 14.8835 9.25 14.8258 9.25 14.7545V12.6195C9.25 12.5484 9.3076 12.4905 9.37905 12.4905H11.514C11.5853 12.4905 11.643 12.5482 11.643 12.6195V14.7545H11.6429Z" fill="white"/>
<path d="M11.6427 12.6195V14.7544C11.6427 14.8256 11.5851 14.8835 11.5137 14.8835H9.37891" fill="white"/>
<path d="M9.25 12.6195C9.25 12.5484 9.3076 12.4905 9.37905 12.4905H11.514C11.5853 12.4905 11.643 12.5482 11.643 12.6195V14.7545C11.643 14.8256 11.5854 14.8835 11.514 14.8835" fill="white"/>
<path d="M14.7522 14.7545C14.7522 14.8256 14.6946 14.8835 14.6232 14.8835H12.4884C12.4171 14.8835 12.3594 14.8258 12.3594 14.7545V12.6195C12.3594 12.5484 12.417 12.4905 12.4884 12.4905H14.6234C14.6947 12.4905 14.7524 12.5482 14.7524 12.6195V14.7545H14.7522Z" fill="white"/>
<path d="M14.7521 12.6195V14.7544C14.7521 14.8256 14.6945 14.8835 14.623 14.8835H12.4883" fill="white"/>
<path d="M12.3594 12.6195C12.3594 12.5484 12.417 12.4905 12.4884 12.4905H14.6234C14.6947 12.4905 14.7524 12.5482 14.7524 12.6195V14.7545C14.7524 14.8256 14.6948 14.8835 14.6234 14.8835" fill="white"/>
<path d="M13.1975 11.7501C13.1975 11.8212 13.14 11.8791 13.0685 11.8791H10.9337C10.8624 11.8791 10.8047 11.8214 10.8047 11.7501V9.61513C10.8047 9.54399 10.8623 9.48608 10.9337 9.48608H13.0687C13.14 9.48608 13.1977 9.54382 13.1977 9.61513V11.7501H13.1975Z" fill="white"/>
<path d="M13.1974 9.61511V11.75C13.1974 11.8212 13.1398 11.8791 13.0684 11.8791H10.9336" fill="white"/>
<path d="M10.8047 9.61513C10.8047 9.54399 10.8623 9.48608 10.9337 9.48608H13.0687C13.14 9.48608 13.1977 9.54382 13.1977 9.61513V11.7501C13.1977 11.8212 13.1401 11.8791 13.0687 11.8791" fill="white"/>
</g>
<defs>
<clipPath id="clip0_642_1597">
<rect width="23" height="23" fill="white"/>
</clipPath>
</defs>
</svg>
