<svg width="39" height="39" viewBox="0 0 39 39" fill="none" xmlns="http://www.w3.org/2000/svg">
<path d="M20 13.9062H21.8088V13.9752V24.5869V24.6653H19.9381V24.4083V23.9083H19.4381H19.4095H19.1372L18.9894 24.1372C18.5961 24.7466 17.9636 25.0938 17.2815 25.0938C15.9081 25.0938 14.7945 24.1351 14.3268 22.8157L14.4901 22.3968H14.2032C14.1653 22.2376 14.1364 22.0746 14.1172 21.9085L14.0658 21.4661H13.8996L14.2351 20.2733C14.6453 18.8153 15.7864 17.7767 17.2458 17.7767C17.9813 17.7767 18.5499 17.9783 19.0186 18.5398L19.1685 18.7194H19.4024H19.5H20V18.2194V13.9062ZM11.4463 23.3968H12.9548C11.1203 26.3672 6.32477 25.2277 6.32477 21.3876C6.32477 21.0193 6.36901 20.6702 6.45009 20.348L6.60664 19.726H5.96521H2.98499H2.48499V20.226V24.6653H0.5V13.9134H6.14124V15.5318H2.98499H2.48499V16.0318V17.7028V18.2028H2.98499H5.82465V19.2453L6.76514 19.4819C7.40416 18.292 8.78408 17.6411 10.1561 17.7281C11.5021 17.8136 12.7899 18.6075 13.2735 20.2771L13.6179 21.4661H8.40985H7.90985V21.9661C7.90985 22.9419 8.53109 23.6849 9.29862 23.9628C10.0118 24.221 10.8583 24.0791 11.4463 23.3968ZM11.321 20.7522H11.9186L11.8132 20.164C11.6232 19.1041 10.7985 18.5198 9.94018 18.512C9.08101 18.5043 8.23772 19.0727 8.00025 20.144L7.86544 20.7522H8.4884H11.321ZM17.8361 23.8705C18.5464 23.8705 19.0808 23.5217 19.4166 23.0249C19.7409 22.5453 19.8777 21.9377 19.8694 21.3614C19.8611 20.7845 19.7066 20.1826 19.3822 19.7095C19.0492 19.2238 18.5264 18.8667 17.8361 18.8667C17.1325 18.8667 16.5974 19.2161 16.2555 19.7062C15.9235 20.182 15.7712 20.7875 15.7685 21.3663C15.7659 21.945 15.9127 22.5522 16.2446 23.0301C16.5873 23.5236 17.1262 23.8705 17.8361 23.8705Z" stroke="#FF912C"/>
</svg>
