<svg width="18" height="18" viewBox="0 0 18 18" fill="none" xmlns="http://www.w3.org/2000/svg">
<g clip-path="url(#clip0_74_144)">
<path d="M17.7621 0.0878529C17.6448 -0.0294471 17.4552 -0.0294471 17.3379 0.0878529L16.2258 1.19995H9.24092L0.460224 10.0533C0.260124 10.2531 0.150024 10.5189 0.150024 10.8018C0.150024 11.0847 0.260124 11.3505 0.460224 11.5503L6.60002 17.6901C6.79982 17.8899 7.06562 18 7.34852 18C7.63112 18 7.89692 17.8899 8.09972 17.6871L16.65 8.90605V1.62415L17.7621 0.512053C17.8794 0.394753 17.8794 0.205153 17.7621 0.0878529ZM11.6997 10.1577C11.5824 10.275 11.3928 10.275 11.2755 10.1577C11.1582 10.0404 11.1582 9.85075 11.2755 9.73345C12.0219 8.98675 12.0855 7.81435 11.4708 6.99235L8.78672 9.67645L9.01502 11.5035C9.07832 12.009 8.93072 12.5256 8.60972 12.921C8.29832 13.305 7.86032 13.5387 7.37642 13.5786C7.30082 13.5849 7.22492 13.5882 7.14962 13.5882C6.53612 13.5882 5.94422 13.3788 5.46632 12.9966L5.12342 13.3395C5.06492 13.398 4.98812 13.4274 4.91132 13.4274C4.83452 13.4274 4.75772 13.398 4.69922 13.3395C4.58192 13.2222 4.58192 13.0326 4.69922 12.9153L5.04182 12.5727C4.19462 11.5137 4.26032 9.95995 5.24132 8.97895C5.35862 8.86165 5.54822 8.86165 5.66552 8.97895C5.78282 9.09625 5.78282 9.28585 5.66552 9.40315C4.91912 10.1499 4.85552 11.322 5.47052 12.144L8.15462 9.45985L7.92632 7.63285C7.86302 7.12735 8.01062 6.61105 8.33132 6.21565C8.64302 5.83195 9.08102 5.59795 9.56462 5.55775C10.2591 5.49895 10.9395 5.70955 11.4756 6.13885L11.6994 5.91505C11.8167 5.79775 12.0063 5.79775 12.1236 5.91505C12.2409 6.03235 12.2409 6.22195 12.1236 6.33925L11.8989 6.56395C12.7464 7.62295 12.6807 9.17665 11.6997 10.1577ZM13.35 5.99995C12.5229 5.99995 11.85 5.32705 11.85 4.49995C11.85 3.67285 12.5229 2.99995 13.35 2.99995C14.1771 2.99995 14.85 3.67285 14.85 4.49995C14.85 5.32705 14.1771 5.99995 13.35 5.99995Z" fill="white"/>
<path d="M9.61469 6.15561C9.29519 6.18261 9.00479 6.33801 8.79719 6.59391C8.57909 6.86271 8.47859 7.21461 8.52179 7.55871L8.69219 8.92281L11.0463 6.56871C10.6374 6.26271 10.1301 6.11331 9.61469 6.15561Z" fill="white"/>
<path d="M8.24913 10.2141L5.89532 12.5682C6.30422 12.8733 6.81123 13.0218 7.32663 12.981C7.64613 12.9543 7.93623 12.7989 8.14383 12.543C8.36223 12.2739 8.46273 11.9223 8.41953 11.5779L8.24913 10.2141Z" fill="white"/>
</g>
<defs>
<clipPath id="clip0_74_144">
<rect width="18" height="18" fill="white"/>
</clipPath>
</defs>
</svg>
