<svg width="29" height="29" viewBox="0 0 29 29" fill="none" xmlns="http://www.w3.org/2000/svg">
<g clip-path="url(#clip0_37_59)">
<path d="M14.5 29C6.50484 29 0 22.4952 0 14.5C0 6.50484 6.50484 0 14.5 0C22.4952 0 29 6.50484 29 14.5C29 22.4952 22.4952 29 14.5 29Z" fill="#00D2FF"/>
<path d="M21.2667 24.1667C13.2715 24.1667 6.76669 17.6619 6.76669 9.66669C6.76669 6.31997 7.91751 3.24308 9.8293 0.786407C4.12162 2.73637 0 8.1404 0 14.5C0 22.4952 6.50484 29 14.5 29C19.1484 29 23.2821 26.7925 25.9374 23.3803C24.4694 23.8818 22.9022 24.1667 21.2667 24.1667Z" fill="#18BDF6"/>
<path d="M16.5 22.5H16.4995C16.2234 22.5 15.9995 22.2761 15.9995 21.9999V11.4999C15.9995 11.2238 16.2234 10.9999 16.4995 10.9999H16.5C16.7763 10.9999 17 10.776 17 10.4999C17 10.2238 16.7764 9.99988 16.5 9.99988H12.5C12.2237 9.99988 12 10.2238 12 10.4999C12 10.776 12.2236 10.9999 12.5 10.9999H12.4995C12.7756 10.9999 12.9995 11.2238 12.9995 11.4999V21.9999C12.9995 22.2761 12.7756 22.5 12.4995 22.5H12.5C12.2237 22.5 12 22.7239 12 23C12 23.2761 12.2236 23.5 12.5 23.5H16.5C16.7764 23.5 17.0001 23.2761 17.0001 23C17.0001 22.7239 16.7764 22.5 16.5 22.5Z" fill="white"/>
<path d="M14.5 8.49999C15.3284 8.49999 16 7.82842 16 6.99998C16 6.17155 15.3284 5.49997 14.5 5.49997C13.6716 5.49997 13 6.17155 13 6.99998C13 7.82842 13.6716 8.49999 14.5 8.49999Z" fill="white"/>
</g>
<defs>
<clipPath id="clip0_37_59">
<rect width="29" height="29" fill="white"/>
</clipPath>
</defs>
</svg>
