<svg width="15" height="17" viewBox="0 0 15 17" fill="none" xmlns="http://www.w3.org/2000/svg">
<path d="M13.2445 6.80858C13.5658 6.19256 13.7334 5.46334 13.7334 4.61425C13.7334 2.06969 10.9379 0 7.49998 0C4.06167 0 1.26659 2.06969 1.26659 4.61425C1.26659 5.52212 1.44586 6.24626 1.74052 6.83226C1.13437 7.8413 0.780823 9.01797 0.780823 10.281C0.780823 13.9921 3.78903 17 7.49987 17C11.211 17 14.2189 13.9921 14.2189 10.281C14.219 9.00841 13.8586 7.82322 13.2445 6.80858ZM7.13469 12.8524H6.4469L4.92561 10.637L4.41585 11.1613V12.8538H3.88998H3.3635V7.81668H3.88811H4.41595V9.90216L6.34522 7.81668H7.01691H7.68797L5.67758 9.87235L7.82247 12.8538H7.13469V12.8524ZM11.7006 12.6532C11.7006 13.244 11.5552 13.6777 11.263 13.9573C10.9708 14.2363 10.5186 14.378 9.90006 14.378C9.39414 14.378 8.99063 14.2787 8.6914 14.0813C8.39227 13.8835 8.23222 13.6102 8.21207 13.2599H9.27895C9.2909 13.387 9.34782 13.4812 9.45531 13.54C9.56281 13.5975 9.72993 13.626 9.95625 13.626C10.2333 13.626 10.4318 13.5595 10.5526 13.4254C10.6747 13.2927 10.7354 13.0726 10.7354 12.7633V12.3041L10.6551 12.4237C10.4395 12.7234 10.127 12.8727 9.71975 12.8727C9.23658 12.8727 8.84439 12.6981 8.54723 12.3502C8.24738 12.0019 8.09885 11.5421 8.09885 10.9716C8.09885 10.3866 8.24489 9.9167 8.53581 9.55868C8.82548 9.20191 9.20625 9.02482 9.67935 9.02482C10.098 9.02482 10.423 9.17605 10.6533 9.48141C10.695 9.53708 10.7368 9.60044 10.7747 9.66867V9.12412H11.6993V12.6532H11.7006ZM12.3268 5.6129C11.1049 4.34992 9.39601 3.5619 7.49998 3.5619C5.60104 3.5619 3.89061 4.35179 2.66875 5.61737C2.6001 5.31564 2.56188 4.984 2.56188 4.61425C2.56188 2.78396 4.77729 1.29518 7.49998 1.29518C10.2227 1.29518 12.4381 2.78396 12.4381 4.61425C12.4381 4.94319 12.409 5.28272 12.3268 5.6129ZM10.5294 10.1645C10.6761 10.358 10.7481 10.6256 10.7481 10.9689C10.7481 11.3092 10.6761 11.5774 10.5294 11.7735C10.3845 11.967 10.1828 12.0638 9.92416 12.0638C9.67177 12.0638 9.47193 11.9682 9.32902 11.7786C9.1861 11.5876 9.11339 11.322 9.11339 10.9816C9.11339 10.6344 9.1861 10.3631 9.32902 10.1676C9.47204 9.97227 9.67301 9.87422 9.92738 9.87422C10.1853 9.87495 10.3845 9.97102 10.5294 10.1645Z" fill="white"/>
</svg>
