<svg width="23" height="23" viewBox="0 0 23 23" fill="none" xmlns="http://www.w3.org/2000/svg">
<g clip-path="url(#clip0_642_1586)">
<path d="M11.5 23C5.15901 23 0 17.841 0 11.5C0 5.15901 5.15901 0 11.5 0C17.841 0 23 5.15901 23 11.5C23 17.841 17.841 23 11.5 23Z" fill="#00D2FF"/>
<path d="M16.8667 19.1667C10.5257 19.1667 5.36668 14.0077 5.36668 7.66671C5.36668 5.01241 6.2794 2.57211 7.79565 0.623718C3.26887 2.17024 0 6.4562 0 11.5C0 17.841 5.15901 23 11.5 23C15.1867 23 18.4651 21.2492 20.571 18.543C19.4068 18.9408 18.1638 19.1667 16.8667 19.1667Z" fill="#18BDF6"/>
<g clip-path="url(#clip1_642_1586)">
<path d="M10.7138 11.8922H9.44192C9.22516 11.8922 9.04881 12.0685 9.04881 12.2853V12.5572C9.04881 12.6294 8.99003 12.6882 8.91778 12.6882H8.18915C8.11689 12.6882 8.05811 12.6294 8.05811 12.5572V12.2853C8.05811 12.0685 7.88176 11.8922 7.66501 11.8922H6.3931C6.17635 11.8922 6 12.0685 6 12.2853V16.0523C6 16.269 6.17635 16.4454 6.3931 16.4454H10.7138C10.9306 16.4454 11.1069 16.269 11.1069 16.0523V12.2853C11.1069 12.0685 10.9306 11.8922 10.7138 11.8922ZM8.92139 14.5333V15.6146H8.18545V14.5333H7.7838L8.5535 13.6654L9.32315 14.5333H8.92139Z" fill="white"/>
<path d="M16.6083 11.8922H15.3364C15.1197 11.8922 14.9433 12.0685 14.9433 12.2853V12.5572C14.9433 12.6294 14.8846 12.6882 14.8123 12.6882H14.0837C14.0114 12.6882 13.9526 12.6294 13.9526 12.5572V12.2853C13.9526 12.0685 13.7763 11.8922 13.5595 11.8922H12.2876C12.0709 11.8922 11.8945 12.0685 11.8945 12.2853V16.0523C11.8945 16.2691 12.0709 16.4454 12.2876 16.4454H16.6083C16.8251 16.4454 17.0015 16.2691 17.0015 16.0523V12.2853C17.0015 12.0685 16.8251 11.8922 16.6083 11.8922ZM14.8159 14.5333V15.6146H14.08V14.5334H13.6783L14.448 13.6654L15.2177 14.5333H14.8159Z" fill="white"/>
<path d="M9.33842 11.1079H13.6591C13.8759 11.1079 14.0522 10.9315 14.0522 10.7148V6.94776C14.0522 6.731 13.8759 6.55466 13.6591 6.55466H12.3872C12.1705 6.55466 11.9941 6.731 11.9941 6.94776V7.21966C11.9941 7.29191 11.9353 7.35069 11.8631 7.35069H11.1345C11.0622 7.35069 11.0034 7.29191 11.0034 7.21966V6.94776C11.0034 6.731 10.8271 6.55466 10.6103 6.55466H9.33842C9.12166 6.55466 8.94531 6.731 8.94531 6.94776V10.7148C8.94531 10.9315 9.12166 11.1079 9.33842 11.1079ZM11.4988 8.32795L12.2684 9.19582H11.8667V10.2771H11.1307V9.19587H10.7291L11.4988 8.32795Z" fill="white"/>
</g>
</g>
<defs>
<clipPath id="clip0_642_1586">
<rect width="23" height="23" fill="white"/>
</clipPath>
<clipPath id="clip1_642_1586">
<rect width="11" height="11" fill="white" transform="translate(6 6)"/>
</clipPath>
</defs>
</svg>
