<svg width="17" height="17" viewBox="0 0 17 17" fill="none" xmlns="http://www.w3.org/2000/svg">
<path d="M16.9134 13.2038L16.138 12.0205C15.9778 11.776 15.6497 11.7077 15.4052 11.8679L11.0821 14.7005C10.8376 14.8607 10.7693 15.1888 10.9294 15.4333L11.7048 16.6166C11.8651 16.8611 12.1931 16.9295 12.4376 16.7693L16.7607 13.9366C17.0053 13.7764 17.0736 13.4484 16.9134 13.2038Z" fill="white"/>
<path d="M11.8166 13.1787L13.232 12.2512C13.8033 11.8769 14.1947 11.3025 14.3339 10.6339C14.4656 10.0014 14.3631 9.31784 13.9694 8.71095C13.7672 8.40234 12.0787 5.82551 11.8803 5.52272C11.6186 5.12333 11.0827 5.01174 10.6834 5.27342C10.4234 5.44374 10.2863 5.73028 10.2938 6.01972L10.1398 5.78462C9.87809 5.38529 9.34208 5.27364 8.94281 5.53532C8.68284 5.70564 8.54582 5.99218 8.55329 6.28157L8.44666 6.11883C8.18492 5.71944 7.64909 5.60785 7.2497 5.86953C6.98974 6.03985 6.85265 6.32645 6.86018 6.61589L5.42681 4.42829C5.16514 4.0289 4.6293 3.91737 4.22986 4.17899C3.83047 4.44066 3.71888 4.97656 3.98056 5.37594L7.54496 10.8158L6.05297 10.3075C5.60056 10.1534 5.10977 10.395 4.95581 10.847C4.80185 11.299 5.04339 11.7902 5.49535 11.9442L9.69048 13.3735C9.96949 13.4896 10.2693 13.5506 10.5717 13.5506C10.9998 13.5506 11.4326 13.4303 11.8166 13.1787Z" fill="white"/>
<path d="M5.8685 3.91344C6.04105 4.17683 6.39459 4.25061 6.65798 4.07789C6.92142 3.90534 6.99503 3.55181 6.82243 3.28842C6.01955 2.06312 4.36967 1.71939 3.14443 2.52227C1.9192 3.32508 1.57552 4.97508 2.37828 6.20032C2.48771 6.3674 2.66989 6.45812 2.85579 6.45812C2.96293 6.45812 3.07139 6.42795 3.16776 6.36477C3.43114 6.19222 3.50481 5.83874 3.33221 5.5753C2.87409 4.87598 3.07019 3.93437 3.76945 3.47614C4.46866 3.01808 5.41033 3.21418 5.8685 3.91344Z" fill="white"/>
<path d="M1.21466 4.03918C1.403 3.13486 1.93228 2.35799 2.70493 1.85169C3.47759 1.34539 4.40112 1.17033 5.30555 1.35867C6.20987 1.54702 6.98674 2.0763 7.49304 2.84895C7.66565 3.11233 8.01907 3.18612 8.28251 3.0134C8.54596 2.84085 8.61957 2.48731 8.44697 2.22393C7.7737 1.19644 6.74069 0.492617 5.53809 0.242175C4.3356 -0.0083238 3.1074 0.224498 2.07991 0.89776C1.05243 1.57102 0.348602 2.60404 0.0981601 3.80664C-0.152282 5.00924 0.0805403 6.23738 0.753746 7.26481C0.863228 7.43189 1.04536 7.52261 1.23125 7.52261C1.33839 7.52261 1.44685 7.49245 1.54322 7.42926C1.80666 7.25666 1.88028 6.90318 1.70767 6.63979C1.20131 5.86708 1.02626 4.94349 1.21466 4.03918Z" fill="white"/>
</svg>
