<svg width="29" height="29" viewBox="0 0 29 29" fill="none" xmlns="http://www.w3.org/2000/svg">
<g clip-path="url(#clip0_126_1947)">
<path d="M14.5 29C6.50484 29 0 22.4952 0 14.5C0 6.50484 6.50484 0 14.5 0C22.4952 0 29 6.50484 29 14.5C29 22.4952 22.4952 29 14.5 29Z" fill="#00D2FF"/>
<path d="M21.2667 24.1667C13.2715 24.1667 6.76669 17.6619 6.76669 9.66669C6.76669 6.31997 7.91751 3.24308 9.8293 0.786407C4.12162 2.73637 0 8.1404 0 14.5C0 22.4952 6.50484 29 14.5 29C19.1484 29 23.2821 26.7925 25.9374 23.3803C24.4694 23.8818 22.9022 24.1667 21.2667 24.1667Z" fill="#18BDF6"/>
<path d="M18.8499 12.9066C18.9533 12.9063 19.0529 12.9442 19.1288 13.0125C19.2047 13.0809 19.2511 13.1747 19.2589 13.2751V18.8819C19.2591 19.1914 19.136 19.4889 18.9156 19.7118C18.6951 19.9347 18.3945 20.0656 18.077 20.0769H9.85249C9.53474 20.0771 9.22929 19.9573 9.00045 19.7425C8.77161 19.5278 8.63722 19.235 8.62557 18.9257V13.3049C8.62527 13.2043 8.66413 13.1072 8.73431 13.0333C8.80449 12.9594 8.9008 12.9141 9.00387 12.9066H18.8499ZM15.6804 14.5677L15.6558 14.5876L13.3145 17.0594L12.2511 16.0635C12.1972 16.0121 12.1259 15.9817 12.0505 15.978C11.9752 15.9744 11.901 15.9977 11.8421 16.0436L11.8197 16.0635L11.3821 16.446C11.3543 16.4669 11.3314 16.4935 11.3151 16.5238C11.2988 16.5541 11.2893 16.5875 11.2874 16.6217C11.2854 16.6558 11.2911 16.69 11.3039 16.7219C11.3167 16.7538 11.3364 16.7826 11.3616 16.8065L11.3821 16.8284L12.8809 18.2106C12.9974 18.3232 13.1545 18.3868 13.3185 18.3879C13.3999 18.3901 13.4808 18.3754 13.5559 18.3449C13.631 18.3143 13.6985 18.2686 13.7541 18.2106L14.9647 16.9578L15.0526 16.8702L15.1385 16.7806L15.251 16.665L15.2939 16.6212L15.3798 16.5336L16.529 15.3525C16.571 15.3016 16.5952 15.239 16.5981 15.1738C16.6011 15.1086 16.5826 15.0442 16.5454 14.99L16.529 14.9701L16.0914 14.5876C16.0374 14.5357 15.9656 14.5049 15.8898 14.5013C15.814 14.4976 15.7394 14.5213 15.6804 14.5677ZM18.8499 8.92308C19.1753 8.92308 19.4874 9.04899 19.7175 9.2731C19.9476 9.49722 20.0768 9.80119 20.0768 10.1181V11.3132C20.0768 11.4188 20.0338 11.5202 19.9571 11.5949C19.8804 11.6696 19.7763 11.7115 19.6679 11.7115H8.21659C8.10812 11.7115 8.0041 11.6696 7.9274 11.5949C7.85071 11.5202 7.80762 11.4188 7.80762 11.3132V10.1181C7.80762 9.80119 7.93688 9.49722 8.16697 9.2731C8.39707 9.04899 8.70914 8.92308 9.03454 8.92308H18.8499Z" fill="white"/>
</g>
<defs>
<clipPath id="clip0_126_1947">
<rect width="29" height="29" fill="white"/>
</clipPath>
</defs>
</svg>
