<svg width="30" height="30" viewBox="0 0 30 30" fill="none" xmlns="http://www.w3.org/2000/svg">
<g clip-path="url(#clip0_126_1657)">
<path d="M15 30C6.72914 30 0 23.2709 0 15C0 6.72914 6.72914 0 15 0C23.2709 0 30 6.72914 30 15C30 23.2709 23.2709 30 15 30Z" fill="#00D2FF"/>
<path d="M22 25C13.7292 25 7.00002 18.2708 7.00002 9.99998C7.00002 6.53785 8.19053 3.35486 10.1682 0.813477C4.26375 2.83068 0 8.42106 0 15C0 23.2708 6.72914 30 15 30C19.8087 30 24.0849 27.7163 26.8318 24.1865C25.3132 24.7053 23.6919 25 22 25Z" fill="#18BDF6"/>
<path d="M21.3159 9H9.68421C9.30639 9 9 9.31212 9 9.69716V12.8695C9 13.2546 9.30639 13.5667 9.68421 13.5667H9.93977V20.3028C9.93977 20.6879 10.2461 21 10.624 21H20.3758C20.7537 21 21.06 20.6879 21.06 20.3028V13.5666H21.3158C21.6936 13.5666 22 13.2545 22 12.8694V9.69716C22.0001 9.31212 21.6937 9 21.3159 9ZM16.9393 15.223H14.0607C13.7588 15.223 13.5133 14.9728 13.5133 14.6653C13.5133 14.3577 13.7588 14.1075 14.0607 14.1075H16.9393C17.2411 14.1075 17.4866 14.3577 17.4866 14.6653C17.4866 14.9728 17.2411 15.223 16.9393 15.223ZM20.6316 12.1723H20.3759H10.624H10.3684V10.3943H20.6316V12.1723Z" fill="white"/>
</g>
<defs>
<clipPath id="clip0_126_1657">
<rect width="30" height="30" fill="white"/>
</clipPath>
</defs>
</svg>
