<svg width="33" height="33" viewBox="0 0 33 33" fill="none" xmlns="http://www.w3.org/2000/svg">
<path d="M29.292 16.2476H3.70807C2.47064 16.2476 1.46362 17.2631 1.46362 18.5113V18.6971L4.2752 30.9926L4.31638 31.1404C4.65089 32.1539 5.63464 32.8897 6.65513 32.8897H26.3454C27.3659 32.8897 28.3495 32.1542 28.6842 31.1404L31.5365 18.6972V18.5113C31.5362 17.2631 30.5294 16.2476 29.292 16.2476ZM20.9343 29.757L21.1138 27.7581H22.5881L22.2736 29.757H20.9343ZM17.5224 29.757V27.7581H19.0598L18.8803 29.757H17.5224ZM14.1195 29.757L13.9399 27.7581H15.4774V29.757H14.1195ZM10.7265 29.757L10.4117 27.7581H11.8863L12.0658 29.757H10.7265ZM5.62833 23.5329H7.67445L8.00046 25.6045H6.10212L5.62833 23.5329ZM9.74656 23.5329H11.5068L11.6928 25.6045H10.0728L9.74656 23.5329ZM11.1338 19.3802L11.3133 21.3793H9.40786L9.09333 19.3802H11.1338ZM23.9068 19.3802L23.5922 21.3793H21.6865L21.8661 19.3802H23.9068ZM19.6326 21.3793H17.5222V19.3802H19.8123L19.6326 21.3793ZM17.5224 23.5329H19.4395L19.2535 25.6045H17.5226V23.5329H17.5224ZM15.4777 25.6045H13.7468L13.5607 23.5329H15.4779V25.6045H15.4777ZM15.4777 21.3793H13.3671L13.1875 19.3802H15.4777V21.3793ZM21.307 25.6045L21.4931 23.5329H23.2533L22.9271 25.6045H21.307ZM25.3256 23.5329H27.3717L26.8982 25.6045H24.9998L25.3256 23.5329ZM27.864 21.3793H25.6647L25.9793 19.3802H28.3211L27.864 21.3793ZM7.02051 19.3802L7.33504 21.3793H5.13577L4.67861 19.3802H7.02051ZM6.59422 27.7581H8.33942L8.65395 29.757H7.05139L6.59422 27.7581ZM25.9485 29.757H24.3459L24.6604 27.7581H26.4054L25.9485 29.757Z" fill="white"/>
<path d="M33 18.5911C33 19.0553 32.6237 19.4316 32.1595 19.4316H0.840469C0.376342 19.4316 0 19.0553 0 18.5911V15.1625C0 14.6984 0.376342 14.322 0.840469 14.322H32.1595C32.6237 14.322 33 14.6984 33 15.1625V18.5911Z" fill="white" fill-opacity="0.85"/>
<path d="M18.4674 14.5218C18.4674 14.9859 18.091 15.3622 17.6269 15.3622H14.5753C14.1112 15.3622 13.7346 14.9859 13.7346 14.5218V0.950576C13.7346 0.486449 14.1112 0.110107 14.5753 0.110107H17.6269C18.091 0.110107 18.4674 0.486449 18.4674 0.950576V14.5218Z" fill="white" fill-opacity="0.85"/>
<path d="M12.8212 13.5405V15.1089C12.8212 16.9206 14.2899 18.3891 16.1012 18.3891C17.9129 18.3891 19.3814 16.9204 19.3814 15.1089V13.5405H12.8212Z" fill="white"/>
<path d="M16.3855 12.6724C16.3855 12.8292 16.2584 12.9565 16.1012 12.9565C15.9444 12.9565 15.817 12.8294 15.817 12.6724V1.55388C15.817 1.39694 15.9442 1.26978 16.1012 1.26978C16.2581 1.26978 16.3855 1.39694 16.3855 1.55388V12.6724Z" fill="white"/>
</svg>
