<svg width="18" height="22" viewBox="0 0 18 22" fill="none" xmlns="http://www.w3.org/2000/svg">
<path d="M17.25 2.67057H13.2908L13.2165 2.40798C12.8123 0.967624 11.6813 0 10.4025 0H7.59749C6.31875 0 5.18774 0.967624 4.78274 2.40798L4.70926 2.67057H0.74999C0.335251 2.67057 0 3.06937 0 3.56075C0 4.05214 0.335251 4.45093 0.74999 4.45093H5.25H12.75H17.25C17.6647 4.45093 18 4.05214 18 3.56075C18 3.06937 17.6648 2.67057 17.25 2.67057ZM6.31801 2.67057C6.57378 2.12757 7.059 1.7804 7.59753 1.7804H10.4025C10.941 1.7804 11.427 2.12757 11.6821 2.67057H6.31801Z" fill="white"/>
<path d="M15.7504 5.34106H2.25034C2.04334 5.34106 1.84534 5.44255 1.70359 5.62148C1.56184 5.80129 1.48832 6.04165 1.50182 6.28648L2.1641 18.8546C2.23684 20.2629 3.2261 21.365 4.41411 21.365H13.5867C14.7747 21.365 15.7639 20.2629 15.8367 18.8555L16.4989 6.28648C16.5124 6.04165 16.4389 5.80129 16.2971 5.62148C16.1554 5.44255 15.9574 5.34106 15.7504 5.34106ZM12.7504 17.8041H5.25037C4.83563 17.8041 4.50038 17.4053 4.50038 16.9139C4.50038 16.4225 4.8356 16.0237 5.25037 16.0237H12.7504C13.1651 16.0237 13.5004 16.4225 13.5004 16.9139C13.5004 17.4053 13.1651 17.8041 12.7504 17.8041ZM12.7504 14.2432H5.25037C4.83563 14.2432 4.50038 13.8444 4.50038 13.353C4.50038 12.8616 4.83563 12.4628 5.25037 12.4628H12.7504C13.1651 12.4628 13.5004 12.8616 13.5004 13.353C13.5004 13.8444 13.1651 14.2432 12.7504 14.2432Z" fill="white"/>
</svg>
