<svg width="30" height="30" viewBox="0 0 30 30" fill="none" xmlns="http://www.w3.org/2000/svg">
<g clip-path="url(#clip0_37_108)">
<path d="M15 30C6.72914 30 0 23.2709 0 15C0 6.72914 6.72914 0 15 0C23.2709 0 30 6.72914 30 15C30 23.2709 23.2709 30 15 30Z" fill="#00D2FF"/>
<path d="M22 25C13.7292 25 7.00002 18.2708 7.00002 9.99998C7.00002 6.53785 8.19053 3.35486 10.1682 0.813477C4.26375 2.83068 0 8.42106 0 15C0 23.2708 6.72914 30 15 30C19.8087 30 24.0849 27.7163 26.8318 24.1865C25.3132 24.7053 23.6919 25 22 25Z" fill="#18BDF6"/>
<path d="M23.7331 16.2845C23.625 15.9355 23.2985 15.757 23.0052 15.8855L15.6031 19.1193C15.1414 18.3165 14.342 17.8762 13.5281 17.9749L10.1049 6.93567L6.69237 6.01692C6.38811 5.93439 6.08329 6.16183 6.01414 6.52428C5.94498 6.88673 6.13622 7.24743 6.44159 7.32951L9.25354 8.08675L12.4657 18.4457C11.6546 19.1222 11.2922 20.3821 11.6511 21.5383C12.0787 22.9171 13.367 23.6239 14.5288 23.1163C15.4997 22.6919 16.0723 21.5536 15.9854 20.3863L23.397 17.1487C23.6906 17.02 23.8412 16.6333 23.7331 16.2845ZM14.1701 21.9598C13.5465 22.2326 12.8546 21.8528 12.625 21.1129C12.3956 20.3722 12.715 19.5515 13.3388 19.2787C13.9624 19.0062 14.6544 19.3857 14.884 20.1257C15.1136 20.8661 14.7937 21.6871 14.1701 21.9598Z" fill="white"/>
<path d="M22.2207 14.293L19.8446 6.62964L16.8864 7.92208L17.5402 10.0303L16.348 10.5509L15.6943 8.44292L12.7361 9.73512L15.1122 17.3984L22.2207 14.293ZM20.5882 12.8832L20.8491 13.7253L18.208 14.8791L17.9471 14.037L20.5882 12.8832Z" fill="white"/>
</g>
<defs>
<clipPath id="clip0_37_108">
<rect width="30" height="30" fill="white"/>
</clipPath>
</defs>
</svg>
