<svg width="16" height="18" viewBox="0 0 16 18" fill="none" xmlns="http://www.w3.org/2000/svg">
<path d="M0.134159 4.34731L0.177511 13.6648C0.178165 13.7846 0.244173 13.8944 0.349394 13.9511L7.79134 17.8477C7.83992 17.8736 7.89307 17.8867 7.94623 17.8867C7.94645 17.8867 7.94666 17.8867 7.94688 17.8867C7.96932 17.9122 7.99437 17.9361 8.02422 17.954C8.07563 17.9847 8.13358 18.0002 8.19175 18.0002C8.24534 18.0002 8.29849 17.9869 8.34685 17.9608L15.6947 13.9759C15.8001 13.9186 15.8661 13.8082 15.8661 13.6886V3.9944C15.8661 3.99157 15.865 3.98896 15.865 3.98591C15.8648 3.98351 15.8657 3.98133 15.8657 3.97872C15.8653 3.96935 15.8616 3.96085 15.8609 3.9517C15.8581 3.93384 15.8561 3.91598 15.8507 3.89877C15.8467 3.88679 15.8417 3.87611 15.8367 3.86457C15.83 3.84932 15.8232 3.83429 15.8141 3.82034C15.8073 3.80945 15.7993 3.79965 15.7912 3.78963C15.781 3.77699 15.7703 3.76523 15.7581 3.75412C15.7485 3.7454 15.7383 3.73756 15.7274 3.72994C15.7204 3.72514 15.7145 3.71839 15.7069 3.71403C15.6999 3.70968 15.6919 3.70793 15.6842 3.70423C15.6779 3.70096 15.6729 3.69639 15.6666 3.69356L8.09458 0.0256747C8.00636 -0.0115771 7.90636 -0.00809155 7.82053 0.0348242L0.335669 3.93667C0.225873 3.99201 0.156597 4.10441 0.155944 4.22706C0.155944 4.22902 0.156815 4.23077 0.156815 4.23251C0.143526 4.26889 0.133941 4.30723 0.134159 4.34731ZM14.7845 4.03035L8.18804 7.71849L1.20271 4.23164L7.97934 0.686403L14.7845 4.03035ZM8.5183 17.1249V8.28271L15.2126 4.54163V13.4929L8.5183 17.1249Z" fill="white"/>
</svg>
