<svg width="20" height="20" viewBox="0 0 20 20" fill="none" xmlns="http://www.w3.org/2000/svg">
<g clip-path="url(#clip0_663_97)">
<path d="M10 19.2546C10.1657 19.1718 14.4721 17.3084 15.8385 16.1904C17.2464 15.031 17.9917 13.3747 17.9917 11.3871V2.07034L17.8675 2.02894C14.4307 0.165582 10.1657 0.289805 9.95861 0.289805C9.79298 0.289805 5.52797 0.165582 2.09112 2.02894L2.0083 2.07034V11.4285C2.0083 13.4161 2.75364 15.0724 4.16151 16.2318C5.52797 17.3498 9.83439 19.2132 10 19.2546Z" fill="#341B14"/>
<path d="M10.0001 19.4617C10.0001 19.4617 5.44526 17.4741 4.03739 16.3561C2.54671 15.1138 1.84277 13.4161 1.84277 11.4699V1.7805C5.44526 -0.165667 10.0001 -3.57791e-05 10.0001 -3.57791e-05C10.0001 -3.57791e-05 14.555 -0.165667 18.1575 1.7805V11.4285C18.1575 13.3747 17.4535 15.0724 15.9629 16.3147C14.555 17.4741 10.0001 19.4617 10.0001 19.4617ZM2.5053 11.4699C2.5053 13.2919 3.16783 14.7826 4.45147 15.8178C5.61089 16.7701 9.04774 18.3022 10.0001 18.7163C10.9525 18.3022 14.4308 16.7287 15.5488 15.8178C16.8324 14.7826 17.4949 13.2505 17.4949 11.4699V1.94613C12.6916 1.49065 6.97735 1.73909 2.5053 5.87988V11.4699Z" fill="#FFB406"/>
<path d="M14.5961 10.1036C15.2173 10.4763 15.4657 10.7247 15.5071 11.1802C15.5071 11.6771 15.1759 11.967 14.6376 11.967C14.1821 11.967 13.6438 11.7185 13.2711 11.3872V12.7123C13.7266 12.9607 14.2649 13.1678 14.8446 13.1678C16.2525 13.1678 16.915 12.174 16.915 11.263C16.9564 10.4349 16.7079 9.77234 15.5071 9.06841C14.9688 8.73714 14.5547 8.53011 14.5547 8.03321C14.5547 7.53632 15.0102 7.32928 15.3829 7.32928C15.8798 7.32928 16.3767 7.61913 16.6665 7.90899V6.66675C16.4181 6.45971 15.8798 6.16986 15.093 6.21126C14.1407 6.25267 13.1469 6.9152 13.1469 8.07462C13.1883 8.86137 13.4367 9.44108 14.5961 10.1036ZM9.71002 13.085C9.83424 13.1264 10.0413 13.1678 10.3725 13.1678C11.9875 13.1678 12.8984 11.7185 12.8984 9.64812C12.8984 7.53632 11.946 6.25267 10.2483 6.25267C9.46157 6.25267 8.84045 6.4183 8.30215 6.74957V16.1077H9.71002V13.085ZM9.71002 7.4535C9.83424 7.41209 10.0413 7.32928 10.2069 7.32928C11.0351 7.32928 11.3663 7.9918 11.3663 9.60671C11.3663 11.1802 10.9523 11.9256 10.1241 11.9256C9.91706 11.9256 9.75143 11.8841 9.66861 11.8427V7.4535H9.71002ZM5.36219 13.1678C6.23176 13.1678 6.9771 12.9607 7.5154 12.5881V6.33549H6.06613V11.7599C5.9005 11.8841 5.69346 11.9256 5.4036 11.9256C4.74108 11.9256 4.65826 11.3044 4.65826 10.9318V6.33549H3.20898V10.8489C3.20898 12.381 3.95433 13.1678 5.36219 13.1678ZM15.0102 18.7579V19.7102H15.1759V19.3376H15.2173L15.4657 19.7102H15.6728C15.6728 19.7102 15.4243 19.3376 15.3829 19.2962C15.5071 19.2547 15.5899 19.1719 15.5899 19.0477C15.5899 18.9235 15.5071 18.7579 15.2587 18.7579H15.0102ZM15.2587 18.8821C15.3829 18.8821 15.4243 18.9649 15.4243 19.0063C15.4243 19.0891 15.3829 19.1719 15.2173 19.1719H15.1759V18.8821H15.2587Z" fill="#FFB406"/>
<path d="M15.9215 19.2133C15.9215 19.5445 15.6317 19.8344 15.3004 19.8344C14.9692 19.8344 14.6793 19.5445 14.6793 19.2133C14.6793 18.882 14.9692 18.5921 15.3004 18.5921C15.6731 18.5921 15.9215 18.882 15.9215 19.2133ZM15.3004 18.4265C14.8863 18.4265 14.5137 18.7578 14.5137 19.2133C14.5137 19.6273 14.8449 20 15.3004 20C15.7145 20 16.0872 19.6688 16.0872 19.2133C16.0872 18.7992 15.7145 18.4265 15.3004 18.4265Z" fill="#FFB406"/>
</g>
<defs>
<clipPath id="clip0_663_97">
<rect width="20" height="20" fill="white"/>
</clipPath>
</defs>
</svg>
