<svg width="13" height="16" viewBox="0 0 13 16" fill="none" xmlns="http://www.w3.org/2000/svg">
<path d="M7.32719 9.34712C7.32719 9.53426 7.48299 9.68601 7.6752 9.68601C7.86741 9.68601 8.02322 9.53426 8.02322 9.34712C8.02322 8.64584 7.52068 8.05707 6.84797 7.90328V7.67239C6.84797 7.48525 6.69216 7.3335 6.49995 7.3335C6.30774 7.3335 6.15194 7.48525 6.15194 7.67239V7.90328C5.47922 8.05704 4.97668 8.64581 4.97668 9.34712C4.97668 10.0484 5.47922 10.6372 6.15194 10.791V12.3665C5.86924 12.2383 5.67272 11.9591 5.67272 11.636C5.67272 11.4489 5.51691 11.2971 5.3247 11.2971C5.13249 11.2971 4.97668 11.4489 4.97668 11.636C4.97668 12.3373 5.47922 12.926 6.15194 13.0798V13.3107C6.15194 13.4979 6.30774 13.6496 6.49995 13.6496C6.69216 13.6496 6.84797 13.4979 6.84797 13.3107V13.0798C7.52068 12.9261 8.02322 12.3373 8.02322 11.636C8.02322 10.9347 7.52068 10.3459 6.84797 10.1922V8.61656C7.13066 8.7448 7.32719 9.02395 7.32719 9.34712ZM5.67272 9.34712C5.67272 9.02398 5.86924 8.74483 6.15194 8.61659V10.0776C5.86924 9.9494 5.67272 9.67026 5.67272 9.34712ZM7.32719 11.636C7.32719 11.9591 7.13066 12.2383 6.84797 12.3665V10.9054C7.13066 11.0337 7.32719 11.3129 7.32719 11.636Z" fill="white"/>
<path d="M7.45842 1.51672H5.54152C4.17392 1.51672 3.06128 2.60022 3.06128 3.932V5.41063C3.06128 5.59106 3.15949 5.75797 3.31937 5.8492C3.4008 5.89566 3.49202 5.91898 3.5833 5.91898C3.67118 5.91898 3.75912 5.89739 3.8384 5.85415C4.64729 5.413 5.56765 5.17984 6.49999 5.17984C7.43229 5.17984 8.35261 5.413 9.16154 5.85415C9.32319 5.94233 9.52073 5.9404 9.68057 5.8492C9.84041 5.75797 9.93862 5.59106 9.93862 5.41063V3.93204C9.93859 2.60022 8.82598 1.51672 7.45842 1.51672ZM8.89454 4.60757C8.1359 4.3153 7.32172 4.1631 6.49995 4.1631C5.67815 4.1631 4.86397 4.3153 4.10533 4.6076V3.93197C4.10533 3.1608 4.74961 2.53339 5.54152 2.53339H7.45842C8.2503 2.53339 8.89458 3.1608 8.89458 3.93197V4.60757H8.89454Z" fill="white"/>
<path d="M11.4962 6.44431V3.93202C11.4962 1.76391 9.68484 0 7.45844 0H5.54152C3.31512 0 1.50379 1.76391 1.50379 3.93202V6.44431C0.532597 7.57993 0 9.00985 0 10.4929C0 11.6074 0.301761 12.7034 0.872639 13.6624C1.42615 14.5924 2.21955 15.3758 3.16704 15.9279C3.24806 15.9751 3.3407 16 3.43508 16H9.56492C9.6593 16 9.75197 15.9751 9.83296 15.9279C10.7805 15.3758 11.5738 14.5924 12.1274 13.6624C12.6982 12.7034 13 11.6074 13 10.4929C13 9.00985 12.4674 7.57993 11.4962 6.44431ZM11.2241 13.1526C10.7828 13.894 10.1599 14.5246 9.41708 14.9833H3.58292C2.84012 14.5246 2.21722 13.894 1.7759 13.1526C1.29711 12.3483 1.04403 11.4285 1.04403 10.4929C1.04403 9.1931 1.53142 7.94195 2.41642 6.96991C2.50109 6.87692 2.54783 6.75695 2.54783 6.63268V3.93205C2.54783 2.32451 3.8908 1.01673 5.54152 1.01673H7.45844C9.10916 1.01673 10.4521 2.32455 10.4521 3.93205V6.63268C10.4521 6.75695 10.4989 6.87692 10.5835 6.96991C11.4685 7.94195 11.9559 9.19313 11.9559 10.4929C11.9559 11.4285 11.7029 12.3482 11.2241 13.1526Z" fill="white"/>
</svg>
