<svg width="16" height="15" viewBox="0 0 16 15" fill="none" xmlns="http://www.w3.org/2000/svg">
<path d="M11.9115 10.0743C11.8922 10.485 11.5462 10.7998 11.1356 10.7805C10.9303 10.7708 10.7496 10.6803 10.6213 10.5393C10.4929 10.3982 10.4197 10.2099 10.4294 10.0046L10.6022 6.36835L4.79441 11.6538C4.49209 11.929 4.02204 11.9084 3.74539 11.6044C3.46873 11.3004 3.49079 10.8321 3.79478 10.5554L9.60261 5.26993L5.96625 5.10032C5.55562 5.08098 5.24075 4.735 5.26009 4.32437C5.27942 3.91375 5.62541 3.59888 6.03603 3.61822L11.4608 3.87365C11.6582 3.88133 11.8421 3.96877 11.9751 4.11488C12.1081 4.261 12.1778 4.45237 12.1669 4.64959L11.9115 10.0743Z" fill="#18BDF6"/>
</svg>
