<svg width="24" height="24" viewBox="0 0 24 24" fill="none" xmlns="http://www.w3.org/2000/svg">
<g clip-path="url(#clip0_400_1963)">
<path d="M12 24C5.38331 24 0 18.6167 0 12C0 5.38331 5.38331 0 12 0C18.6167 0 24 5.38331 24 12C24 18.6167 18.6167 24 12 24Z" fill="#00D2FF"/>
<path d="M17.6 20C10.9833 20 5.60002 14.6167 5.60002 8.00003C5.60002 5.23033 6.55242 2.68394 8.13459 0.650826C3.411 2.26459 0 6.73689 0 12C0 18.6167 5.38331 24 12 24C15.847 24 19.2679 22.1731 21.4654 19.3492C20.2506 19.7643 18.9535 20 17.6 20Z" fill="#18BDF6"/>
<path d="M6.42429 9.43566L8.92893 10.4684C8.97512 10.4873 9.02275 10.4964 9.06977 10.4964C9.19686 10.4964 9.31974 10.4307 9.38833 10.3154L10.516 8.41633L12.5764 7.40245L12.6399 8.33887C12.6421 8.3665 12.6608 8.39017 12.6873 8.3981C12.7137 8.40622 12.7425 8.39684 12.7595 8.37479L14.4854 6.12497C14.5027 6.10239 14.5059 6.07208 14.493 6.04661C14.4807 6.02098 14.4547 6.00489 14.4265 6.00489L11.5906 6C11.5629 5.99982 11.5383 6.01698 11.5281 6.04301C11.5184 6.06881 11.5257 6.09826 11.5461 6.11668L12.2495 6.73867L10.0909 7.80101C10.0262 7.83279 9.97273 7.88244 9.93588 7.94405L8.91511 9.66271L6.70668 8.75193C6.51704 8.67354 6.30134 8.76404 6.22338 8.95275C6.14535 9.14164 6.23569 9.3578 6.42429 9.43566Z" fill="white"/>
<path d="M16.4302 15.8903H6.56659C6.25986 15.8903 6.01172 16.1387 6.01172 16.4452C6.01172 16.7517 6.25986 17 6.56659 17H16.4302C16.7365 17 16.985 16.7517 16.985 16.4452C16.985 16.1387 16.7365 15.8903 16.4302 15.8903Z" fill="white"/>
<path d="M7.11452 11.3748C6.99102 11.3748 6.89062 11.4753 6.89062 11.599V14.9265C6.89062 15.0502 6.99104 15.1506 7.11452 15.1506H8.42326C8.54708 15.1506 8.64753 15.0502 8.64753 14.9265V11.599C8.64753 11.4753 8.54708 11.3748 8.42326 11.3748H7.11452Z" fill="white"/>
<path d="M14.3516 7.82305V14.9265C14.3516 15.0502 14.452 15.1506 14.5755 15.1506H15.8846C16.0081 15.1506 16.1085 15.0502 16.1085 14.9265V7.82305C16.1085 7.69935 16.008 7.59889 15.8846 7.59889H14.5755C14.452 7.59889 14.3516 7.69935 14.3516 7.82305Z" fill="white"/>
<path d="M12.0875 9.57922C11.9637 9.57922 11.8633 9.67968 11.8633 9.80338V14.9264C11.8633 15.0501 11.9637 15.1506 12.0875 15.1506H13.3963C13.5198 15.1506 13.6202 15.0501 13.6202 14.9264V9.80338C13.6202 9.67968 13.5198 9.57922 13.3963 9.57922H12.0875Z" fill="white"/>
<path d="M9.59927 12.3649C9.47546 12.3649 9.375 12.4653 9.375 12.5891V14.9265C9.375 15.0502 9.47546 15.1506 9.59927 15.1506H10.9077C11.0315 15.1506 11.132 15.0502 11.132 14.9265V12.5891C11.132 12.4653 11.0315 12.3649 10.9077 12.3649H9.59927Z" fill="white"/>
</g>
<defs>
<clipPath id="clip0_400_1963">
<rect width="24" height="24" fill="white"/>
</clipPath>
</defs>
</svg>
