<svg width="24" height="24" viewBox="0 0 24 24" fill="none" xmlns="http://www.w3.org/2000/svg">
<g clip-path="url(#clip0_400_1942)">
<path d="M12 24C5.38331 24 0 18.6167 0 12C0 5.38331 5.38331 0 12 0C18.6167 0 24 5.38331 24 12C24 18.6167 18.6167 24 12 24Z" fill="#00D2FF"/>
<path d="M17.6 20C10.9833 20 5.60002 14.6167 5.60002 8.00003C5.60002 5.23033 6.55242 2.68393 8.13459 0.650826C3.411 2.26459 0 6.73689 0 12C0 18.6167 5.38331 24 12 24C15.847 24 19.2679 22.1731 21.4654 19.3492C20.2506 19.7643 18.9535 20 17.6 20Z" fill="#18BDF6"/>
<path d="M14.9068 17.4892L14.7112 18.2888C14.1243 18.5204 13.6556 18.6967 13.3065 18.8179C12.957 18.9395 12.551 19 12.0884 19C11.378 19 10.8254 18.826 10.4313 18.4803C10.0371 18.1332 9.84003 17.6934 9.84003 17.1599C9.84003 16.9534 9.85433 16.741 9.88407 16.5245C9.91406 16.3078 9.96174 16.0638 10.027 15.791L10.7604 13.1952C10.8256 12.9466 10.8811 12.7111 10.9255 12.4884C10.9705 12.2671 10.9923 12.0634 10.9923 11.8801C10.9923 11.5486 10.9236 11.3167 10.787 11.1864C10.6503 11.0564 10.3896 10.9904 10.0025 10.9904C9.81292 10.9904 9.61806 11.0207 9.41944 11.0795C9.21993 11.1384 9.04942 11.1954 8.90625 11.2483L9.10237 10.4481C9.58281 10.2525 10.042 10.085 10.4813 9.94593C10.9206 9.80653 11.3357 9.73676 11.7283 9.73676C12.4338 9.73676 12.9783 9.90728 13.3606 10.2483C13.7429 10.5896 13.934 11.032 13.934 11.5772C13.934 11.69 13.9214 11.8888 13.8945 12.1728C13.8681 12.4575 13.8191 12.7184 13.7475 12.9557L13.0173 15.5411C12.9574 15.7487 12.9036 15.9861 12.8568 16.2533C12.8085 16.5186 12.7854 16.7214 12.7854 16.8574C12.7854 17.2007 12.8619 17.4351 13.0154 17.5597C13.17 17.6843 13.4362 17.7463 13.8144 17.7463C13.992 17.7463 14.194 17.7148 14.4184 17.6529C14.6423 17.5911 14.8055 17.5367 14.9068 17.4892ZM15.092 6.63492C15.092 7.08538 14.9222 7.47008 14.5811 7.7864C14.2408 8.10385 13.8307 8.2627 13.351 8.2627C12.8698 8.2627 12.4588 8.10385 12.1146 7.7864C11.7711 7.46995 11.5989 7.08538 11.5989 6.63492C11.5989 6.18535 11.7711 5.80002 12.1146 5.47969C12.4582 5.15985 12.87 5 13.351 5C13.8306 5 14.2408 5.16023 14.5811 5.47969C14.9225 5.80002 15.092 6.18548 15.092 6.63492Z" fill="white"/>
</g>
<defs>
<clipPath id="clip0_400_1942">
<rect width="24" height="24" fill="white"/>
</clipPath>
</defs>
</svg>
