<svg width="24" height="24" viewBox="0 0 24 24" fill="none" xmlns="http://www.w3.org/2000/svg">
<g clip-path="url(#clip0_400_2104)">
<path d="M12 24C5.38331 24 0 18.6167 0 12C0 5.38331 5.38331 0 12 0C18.6167 0 24 5.38331 24 12C24 18.6167 18.6167 24 12 24Z" fill="#00D2FF"/>
<path d="M17.6 20C10.9833 20 5.60002 14.6167 5.60002 8.00002C5.60002 5.23032 6.55242 2.68393 8.13459 0.650818C3.411 2.26458 0 6.73688 0 12C0 18.6167 5.38331 24 12 24C15.847 24 19.2679 22.1731 21.4654 19.3492C20.2506 19.7643 18.9535 20 17.6 20Z" fill="#18BDF6"/>
<path d="M16.5369 11.893H6.4584C5.97092 11.893 5.57422 12.3239 5.57422 12.8534V12.9322L6.68181 18.1485L6.69803 18.2112C6.82981 18.6412 7.21735 18.9533 7.61936 18.9533H15.3761C15.7782 18.9533 16.1656 18.6413 16.2975 18.2112L17.4211 12.9322V12.8534C17.421 12.3238 17.0244 11.893 16.5369 11.893ZM13.2445 17.6243L13.3152 16.7763H13.896L13.7721 17.6243H13.2445ZM11.9004 17.6243V16.7763H12.5061L12.4353 17.6243H11.9004ZM10.5599 17.6243L10.4891 16.7763H11.0948V17.6243H10.5599ZM9.22323 17.6243L9.09922 16.7763H9.68011L9.75085 17.6243H9.22323ZM7.21486 14.9838H8.02091L8.14934 15.8626H7.40151L7.21486 14.9838ZM8.83719 14.9838H9.53061L9.60391 15.8626H8.96569L8.83719 14.9838ZM9.38368 13.222L9.45441 14.0701H8.70377L8.57986 13.222H9.38368ZM14.4155 13.222L14.2916 14.0701H13.5408L13.6115 13.222H14.4155ZM12.7317 14.0701H11.9003V13.222H12.8025L12.7317 14.0701ZM11.9004 14.9838H12.6556L12.5823 15.8626H11.9005V14.9838H11.9004ZM11.0949 15.8626H10.413L10.3397 14.9838H11.095V15.8626H11.0949ZM11.0949 14.0701H10.2635L10.1927 13.222H11.0949V14.0701ZM13.3913 15.8626L13.4646 14.9838H14.158L14.0295 15.8626H13.3913ZM14.9744 14.9838H15.7804L15.5939 15.8626H14.8461L14.9744 14.9838ZM15.9744 14.0701H15.108L15.2319 13.222H16.1544L15.9744 14.0701ZM7.7633 13.222L7.8872 14.0701H7.02082L6.84073 13.222H7.7633ZM7.59536 16.7763H8.28286L8.40677 17.6243H7.77546L7.59536 16.7763ZM15.2198 17.6243H14.5884L14.7124 16.7763H15.3998L15.2198 17.6243Z" fill="white"/>
<path d="M18 12.8872C18 13.0841 17.8517 13.2438 17.6689 13.2438H5.33109C5.14826 13.2438 5 13.0841 5 12.8872V11.4326C5 11.2357 5.14826 11.076 5.33109 11.076H17.6689C17.8517 11.076 18 11.2357 18 11.4326V12.8872Z" fill="white"/>
<path d="M12.2746 11.1608C12.2746 11.3577 12.1263 11.5174 11.9435 11.5174H10.7414C10.5585 11.5174 10.4102 11.3577 10.4102 11.1608V5.40332C10.4102 5.20641 10.5585 5.04675 10.7414 5.04675H11.9435C12.1263 5.04675 12.2746 5.20641 12.2746 5.40332V11.1608Z" fill="white"/>
<path d="M10.0508 10.7444V11.4097C10.0508 12.1783 10.6294 12.8013 11.3429 12.8013C12.0566 12.8013 12.6351 12.1783 12.6351 11.4097V10.7444H10.0508Z" fill="white"/>
<path d="M11.4583 10.3761C11.4583 10.4426 11.4082 10.4967 11.3463 10.4967C11.2845 10.4967 11.2344 10.4427 11.2344 10.3761V5.65917C11.2344 5.59258 11.2845 5.53864 11.3463 5.53864C11.4081 5.53864 11.4583 5.59258 11.4583 5.65917V10.3761Z" fill="white"/>
</g>
<defs>
<clipPath id="clip0_400_2104">
<rect width="24" height="24" fill="white"/>
</clipPath>
</defs>
</svg>
