<svg width="24" height="24" viewBox="0 0 24 24" fill="none" xmlns="http://www.w3.org/2000/svg">
<g clip-path="url(#clip0_400_2244)">
<path d="M12 24C5.38331 24 0 18.6167 0 12C0 5.38331 5.38331 0 12 0C18.6167 0 24 5.38331 24 12C24 18.6167 18.6167 24 12 24Z" fill="#00D2FF"/>
<path d="M17.6 20C10.9833 20 5.60002 14.6167 5.60002 8.00002C5.60002 5.23032 6.55242 2.68393 8.13459 0.650818C3.411 2.26458 0 6.73688 0 12C0 18.6167 5.38331 24 12 24C15.847 24 19.2679 22.1731 21.4654 19.3492C20.2506 19.7643 18.9535 20 17.6 20Z" fill="#18BDF6"/>
<path d="M17.798 17.4583H5.1981C4.70035 17.4583 4.29688 17.0548 4.29688 16.5571V11.308C4.29688 10.8102 4.70035 10.4067 5.1981 10.4067H17.798C18.2957 10.4067 18.6992 10.8102 18.6992 11.308V16.5571C18.6992 17.0548 18.2958 17.4583 17.798 17.4583Z" fill="white"/>
<path d="M17.7999 10.108H13.7293L11.7419 7.36635C11.6857 7.2888 11.5958 7.24292 11.5 7.24292C11.4042 7.24292 11.3143 7.28883 11.2581 7.36635L9.27067 10.108H5.20003C4.53833 10.108 4 10.6463 4 11.308V16.5571C4 17.2188 4.53833 17.7571 5.20003 17.7571H17.8C18.4617 17.7571 19 17.2188 19 16.5571V11.308C19 10.6463 18.4616 10.108 17.7999 10.108ZM11.5 8.05084L12.9912 10.1079H10.0088L11.5 8.05084ZM18.4024 16.5571C18.4024 16.8892 18.1321 17.1595 17.7999 17.1595H5.20003C4.86786 17.1595 4.5976 16.8893 4.5976 16.5571V11.308C4.5976 10.9758 4.86783 10.7056 5.20003 10.7056H17.8C18.1321 10.7056 18.4024 10.9758 18.4024 11.308V16.5571H18.4024Z" fill="white"/>
<path d="M14.9145 16.2278H14.7832C14.6181 16.2278 14.4844 16.3616 14.4844 16.5266C14.4844 16.6916 14.6181 16.8254 14.7832 16.8254H14.9145C15.0796 16.8254 15.2133 16.6916 15.2133 16.5266C15.2133 16.3616 15.0796 16.2278 14.9145 16.2278Z" fill="white"/>
<path d="M17.6094 16.2278H15.8691C15.7041 16.2278 15.5703 16.3616 15.5703 16.5266C15.5703 16.6916 15.7041 16.8254 15.8691 16.8254H17.6094C17.7745 16.8254 17.9082 16.6916 17.9082 16.5266C17.9082 16.3616 17.7745 16.2278 17.6094 16.2278Z" fill="white"/>
<path d="M8.91187 14.5067C8.91187 14.1406 7.9529 14.2041 7.9529 13.4962C7.9529 13.0424 8.3492 12.8701 8.72733 12.8701C8.88764 12.8701 9.32932 12.9003 9.32932 13.1362C9.32932 13.2179 9.27486 13.3843 9.14177 13.3843C9.03284 13.3843 8.97539 13.2693 8.72733 13.2693C8.51256 13.2693 8.42481 13.3571 8.42481 13.4509C8.42481 13.7534 9.38379 13.6959 9.38379 14.4582C9.38379 14.8939 9.06612 15.1298 8.62749 15.1298C8.23119 15.1298 7.89844 14.9362 7.89844 14.7366C7.89844 14.6337 7.98917 14.4825 8.10413 14.4825C8.24634 14.4825 8.33707 14.7064 8.61844 14.7064C8.75757 14.7063 8.91187 14.6519 8.91187 14.5067Z" fill="#18BDF6"/>
<path d="M9.83594 14.4038V13.6021C9.83594 13.0818 10.1596 12.8882 10.5771 12.8882C10.9946 12.8882 11.3213 13.0818 11.3213 13.6021V14.4038C11.3213 14.9241 10.9945 15.1177 10.5771 15.1177C10.1596 15.1177 9.83594 14.9241 9.83594 14.4038ZM10.8493 13.6021C10.8493 13.3934 10.7465 13.2996 10.5771 13.2996C10.4077 13.2996 10.3079 13.3934 10.3079 13.6021V14.4038C10.3079 14.6125 10.4077 14.7063 10.5771 14.7063C10.7465 14.7063 10.8493 14.6125 10.8493 14.4038V13.6021Z" fill="#18BDF6"/>
<path d="M12.0729 15.0996C11.97 15.0996 11.8672 15.0512 11.8672 14.9544V13.0304C11.8672 12.9306 11.9852 12.8882 12.1031 12.8882C12.2211 12.8882 12.3391 12.9306 12.3391 13.0304V14.6882H13.0288C13.1196 14.6882 13.165 14.791 13.165 14.8939C13.165 14.9968 13.1196 15.0996 13.0288 15.0996H12.0729V15.0996Z" fill="#18BDF6"/>
<path d="M14.3388 12.8882C14.7563 12.8882 15.083 13.0818 15.083 13.6021V14.3857C15.083 14.906 14.7563 15.0996 14.3388 15.0996H13.8034C13.6793 15.0996 13.5977 15.033 13.5977 14.9574V13.0304C13.5977 12.9547 13.6793 12.8882 13.8034 12.8882H14.3388V12.8882ZM14.0696 13.2997V14.6882H14.3389C14.5083 14.6882 14.6111 14.5914 14.6111 14.3857V13.6021C14.6111 13.3964 14.5083 13.2996 14.3389 13.2996L14.0696 13.2997Z" fill="#18BDF6"/>
</g>
<defs>
<clipPath id="clip0_400_2244">
<rect width="24" height="24" fill="white"/>
</clipPath>
</defs>
</svg>
