<svg width="81" height="81" viewBox="0 0 81 81" fill="none" xmlns="http://www.w3.org/2000/svg">
<path d="M51.6704 5.82946C47.3749 4.13352 42.6971 3.19189 37.7992 3.19189C16.9239 3.19189 0 20.1158 0 40.991C0 61.8663 16.9239 78.7902 37.7992 78.7902C58.6744 78.7902 75.5983 61.8663 75.5983 40.991H37.7992L51.6704 5.82946Z" fill="#BAF3FF"/>
<path d="M57.0705 2.20978L43.1992 37.3714H80.9984C80.9984 21.3941 71.0809 7.74056 57.0705 2.20978Z" fill="#00D2FF"/>
<path d="M59.375 31H53.6387V30.0215L56.4805 26.9219C56.8906 26.4648 57.1816 26.084 57.3535 25.7793C57.5293 25.4707 57.6172 25.1621 57.6172 24.8535C57.6172 24.4473 57.502 24.1191 57.2715 23.8691C57.0449 23.6191 56.7383 23.4941 56.3516 23.4941C55.8906 23.4941 55.5332 23.6348 55.2793 23.916C55.0254 24.1973 54.8984 24.582 54.8984 25.0703H53.4746C53.4746 24.5508 53.5918 24.084 53.8262 23.6699C54.0645 23.252 54.4023 22.9277 54.8398 22.6973C55.2812 22.4668 55.7891 22.3516 56.3633 22.3516C57.1914 22.3516 57.8438 22.5605 58.3203 22.9785C58.8008 23.3926 59.041 23.9668 59.041 24.7012C59.041 25.127 58.9199 25.5742 58.6777 26.043C58.4395 26.5078 58.0469 27.0371 57.5 27.6309L55.4141 29.8633H59.375V31ZM66.1953 31H60.459V30.0215L63.3008 26.9219C63.7109 26.4648 64.002 26.084 64.1738 25.7793C64.3496 25.4707 64.4375 25.1621 64.4375 24.8535C64.4375 24.4473 64.3223 24.1191 64.0918 23.8691C63.8652 23.6191 63.5586 23.4941 63.1719 23.4941C62.7109 23.4941 62.3535 23.6348 62.0996 23.916C61.8457 24.1973 61.7188 24.582 61.7188 25.0703H60.2949C60.2949 24.5508 60.4121 24.084 60.6465 23.6699C60.8848 23.252 61.2227 22.9277 61.6602 22.6973C62.1016 22.4668 62.6094 22.3516 63.1836 22.3516C64.0117 22.3516 64.6641 22.5605 65.1406 22.9785C65.6211 23.3926 65.8613 23.9668 65.8613 24.7012C65.8613 25.127 65.7402 25.5742 65.498 26.043C65.2598 26.5078 64.8672 27.0371 64.3203 27.6309L62.2344 29.8633H66.1953V31ZM72.8398 27.4082C72.8398 28.6348 72.6094 29.5605 72.1484 30.1855C71.6914 30.8066 70.9941 31.1172 70.0566 31.1172C69.1348 31.1172 68.4395 30.8145 67.9707 30.209C67.5059 29.5996 67.2676 28.6992 67.2559 27.5078V26.0312C67.2559 24.8047 67.4844 23.8848 67.9414 23.2715C68.4023 22.6582 69.1035 22.3516 70.0449 22.3516C70.9785 22.3516 71.6738 22.6504 72.1309 23.248C72.5918 23.8457 72.8281 24.7402 72.8398 25.9316V27.4082ZM71.416 25.8145C71.416 25.0137 71.3066 24.4277 71.0879 24.0566C70.8691 23.6816 70.5215 23.4941 70.0449 23.4941C69.5801 23.4941 69.2383 23.6719 69.0195 24.0273C68.8008 24.3789 68.6855 24.9297 68.6738 25.6797V27.6133C68.6738 28.4102 68.7852 29.0039 69.0078 29.3945C69.2305 29.7852 69.5801 29.9805 70.0566 29.9805C70.5137 29.9805 70.8516 29.8008 71.0703 29.4414C71.2891 29.0781 71.4043 28.5117 71.416 27.7422V25.8145Z" fill="white"/>
</svg>
