<svg width="25" height="25" viewBox="0 0 25 25" fill="none" xmlns="http://www.w3.org/2000/svg">
<path d="M19.8855 1.13638H19.3173C19.0031 1.13638 18.7491 1.39092 18.7491 1.70454C18.7491 2.01816 19.0031 2.27271 19.3173 2.27271H19.8855C20.1991 2.27271 20.4536 2.52783 20.4536 2.84087V18.75C20.4536 19.0631 20.1991 19.3182 19.8855 19.3182H5.1127C4.79907 19.3182 4.54453 19.063 4.54453 18.75V2.84092C4.54453 2.52783 4.79907 2.27275 5.1127 2.27275H7.3854V2.99888C7.04731 3.19604 6.81724 3.55855 6.81724 3.97729C6.81724 4.604 7.3269 5.11367 7.95361 5.11367C8.58032 5.11367 9.08999 4.604 9.08999 3.97729C9.08999 3.55855 8.85986 3.19604 8.52183 2.99888V0.568213C8.52178 0.254541 8.26782 0 7.95361 0C7.6394 0 7.38545 0.254541 7.38545 0.568164V1.13633H5.11274C4.17295 1.13633 3.4082 1.90112 3.4082 2.84087V18.75V23.2955C3.4082 24.2353 4.173 25 5.11274 25H19.8855C20.8252 25 21.59 24.2352 21.59 23.2955V18.75V2.84092C21.59 1.90112 20.8252 1.13638 19.8855 1.13638ZM20.4536 23.2955C20.4536 23.6085 20.1991 23.8636 19.8855 23.8636H5.1127C4.79907 23.8636 4.54453 23.6085 4.54453 23.2955V22.6228C4.72295 22.6864 4.9127 22.7273 5.1127 22.7273H19.8854C20.0854 22.7273 20.2752 22.6864 20.4536 22.6228V23.2955H20.4536ZM20.4536 21.0227C20.4536 21.3358 20.1991 21.5909 19.8855 21.5909H5.1127C4.79907 21.5909 4.54453 21.3357 4.54453 21.0227V20.35C4.72295 20.4136 4.9127 20.4545 5.1127 20.4545H19.8854C20.0854 20.4545 20.2752 20.4136 20.4536 20.35V21.0227H20.4536Z" fill="white"/>
<path d="M17.6141 2.99888V0.568213C17.6141 0.254541 17.3602 0 17.0459 0C16.7317 0 16.4778 0.254541 16.4778 0.568164V1.13633H14.7732C14.459 1.13633 14.2051 1.39087 14.2051 1.70449C14.2051 2.01812 14.459 2.27266 14.7732 2.27266H16.4778V2.99878C16.1397 3.19595 15.9096 3.55845 15.9096 3.9772C15.9096 4.60391 16.4193 5.11357 17.046 5.11357C17.6727 5.11357 18.1824 4.60391 18.1824 3.9772C18.1823 3.55855 17.9522 3.19604 17.6141 2.99888Z" fill="white"/>
<path d="M13.0672 2.99888V0.568213C13.0672 0.254541 12.8133 0 12.4991 0C12.1849 0 11.9309 0.254541 11.9309 0.568164V1.13633H10.2264C9.91216 1.13633 9.6582 1.39087 9.6582 1.70449C9.6582 2.01812 9.91216 2.27266 10.2264 2.27266H11.9309V2.99878C11.5928 3.19595 11.3627 3.55845 11.3627 3.9772C11.3627 4.60391 11.8724 5.11357 12.4991 5.11357C13.1258 5.11357 13.6355 4.60391 13.6355 3.9772C13.6354 3.55855 13.4053 3.19604 13.0672 2.99888Z" fill="white"/>
<path d="M12.5 7.95459H6.81816C6.50396 7.95459 6.25 8.20913 6.25 8.52275C6.25 8.83638 6.50396 9.09092 6.81816 9.09092H12.5C12.8142 9.09092 13.0682 8.83638 13.0682 8.52275C13.0682 8.20913 12.8142 7.95459 12.5 7.95459Z" fill="white"/>
<path d="M16.4768 10.2273H11.3631C11.0489 10.2273 10.7949 10.4818 10.7949 10.7955C10.7949 11.1091 11.0489 11.3636 11.3631 11.3636H16.4767C16.7909 11.3636 17.0449 11.1091 17.0449 10.7955C17.0449 10.4818 16.7909 10.2273 16.4768 10.2273Z" fill="white"/>
<path d="M14.7727 14.7727H6.81816C6.50396 14.7727 6.25 15.0272 6.25 15.3409C6.25 15.6545 6.50396 15.909 6.81816 15.909H14.7727C15.0869 15.909 15.3409 15.6545 15.3409 15.3409C15.3409 15.0272 15.0869 14.7727 14.7727 14.7727Z" fill="white"/>
<path d="M18.1823 7.95459H14.7732C14.459 7.95459 14.2051 8.20913 14.2051 8.52275C14.2051 8.83638 14.459 9.09092 14.7732 9.09092H18.1823C18.4965 9.09092 18.7505 8.83638 18.7505 8.52275C18.7505 8.20913 18.4965 7.95459 18.1823 7.95459Z" fill="white"/>
<path d="M11.9318 12.5H6.81816C6.50396 12.5 6.25 12.7545 6.25 13.0682C6.25 13.3818 6.50396 13.6363 6.81816 13.6363H11.9318C12.246 13.6363 12.5 13.3818 12.5 13.0682C12.5 12.7545 12.246 12.5 11.9318 12.5Z" fill="white"/>
<path d="M9.09087 10.2273H6.81816C6.50395 10.2273 6.25 10.4818 6.25 10.7955C6.25 11.1091 6.50395 11.3636 6.81816 11.3636H9.09087C9.40508 11.3636 9.65903 11.1091 9.65903 10.7955C9.65903 10.4818 9.40508 10.2273 9.09087 10.2273Z" fill="white"/>
<path d="M18.1822 12.5H14.2049C13.8907 12.5 13.6367 12.7545 13.6367 13.0682C13.6367 13.3818 13.8907 13.6363 14.2049 13.6363H18.1822C18.4964 13.6363 18.7503 13.3818 18.7503 13.0682C18.7503 12.7545 18.4964 12.5 18.1822 12.5Z" fill="white"/>
</svg>
