<svg width="21" height="21" viewBox="0 0 21 21" fill="none" xmlns="http://www.w3.org/2000/svg">
<path d="M19.6245 1.90442H1.37555C0.615832 1.90442 0 2.52025 0 3.27996V14.8345C0 15.5942 0.615878 16.2101 1.37555 16.2101H7.43253L9.44734 18.6055C9.70869 18.9163 10.094 19.0957 10.5 19.0957C10.9061 19.0957 11.2914 18.9163 11.5528 18.6055L13.5676 16.2101H19.6245C20.3841 16.2101 21 15.5942 21 14.8345V3.27996C21 2.52025 20.3841 1.90442 19.6245 1.90442ZM14.852 12.9088H3.79898C3.41915 12.9088 3.11121 12.6008 3.11121 12.221C3.11121 11.8412 3.41915 11.5332 3.79898 11.5332H14.852C15.2319 11.5332 15.5398 11.8412 15.5398 12.221C15.5398 12.6008 15.2319 12.9088 14.852 12.9088ZM3.11121 9.11324C3.11121 8.73341 3.41915 8.42547 3.79898 8.42547H12.2862C12.6661 8.42547 12.974 8.73341 12.974 9.11324C12.974 9.49308 12.6661 9.80101 12.2862 9.80101H3.79898C3.41915 9.80101 3.11121 9.49308 3.11121 9.11324ZM17.201 6.69315H3.79898C3.41915 6.69315 3.11121 6.38521 3.11121 6.00538C3.11121 5.62555 3.41915 5.31761 3.79898 5.31761H17.201C17.5808 5.31761 17.8887 5.62555 17.8887 6.00538C17.8888 6.38521 17.5809 6.69315 17.201 6.69315Z" fill="white"/>
</svg>
