<svg width="17" height="17" viewBox="0 0 17 17" fill="none" xmlns="http://www.w3.org/2000/svg">
<path d="M14.2449 6.80858C14.5663 6.19256 14.7338 5.46334 14.7338 4.61425C14.7338 2.06969 11.9383 0 8.5004 0C5.0621 0 2.26702 2.06969 2.26702 4.61425C2.26702 5.52212 2.44629 6.24626 2.74095 6.83226C2.1348 7.8413 1.78125 9.01797 1.78125 10.281C1.78125 13.9921 4.78945 17 8.5003 17C12.2115 17 15.2193 13.9921 15.2193 10.281C15.2195 9.00841 14.859 7.82322 14.2449 6.80858ZM8.13511 12.8524H7.44733L5.92604 10.637L5.41627 11.1613V12.8538H4.89041H4.36393V7.81668H4.88854H5.41638V9.90216L7.34565 7.81668H8.01733H8.6884L6.67801 9.87235L8.8229 12.8538H8.13511V12.8524ZM12.7011 12.6532C12.7011 13.244 12.5557 13.6777 12.2634 13.9573C11.9712 14.2363 11.519 14.378 10.9005 14.378C10.3946 14.378 9.99105 14.2787 9.69182 14.0813C9.3927 13.8835 9.23264 13.6102 9.21249 13.2599H10.2794C10.2913 13.387 10.3482 13.4812 10.4557 13.54C10.5632 13.5975 10.7304 13.626 10.9567 13.626C11.2337 13.626 11.4323 13.5595 11.5531 13.4254C11.6751 13.2927 11.7359 13.0726 11.7359 12.7633V12.3041L11.6556 12.4237C11.44 12.7234 11.1274 12.8727 10.7202 12.8727C10.237 12.8727 9.84481 12.6981 9.54766 12.3502C9.24781 12.0019 9.09928 11.5421 9.09928 10.9716C9.09928 10.3866 9.24531 9.9167 9.53624 9.55868C9.82591 9.20191 10.2067 9.02482 10.6798 9.02482C11.0985 9.02482 11.4234 9.17605 11.6537 9.48141C11.6955 9.53708 11.7372 9.60044 11.7751 9.66867V9.12412H12.6997V12.6532H12.7011ZM13.3273 5.6129C12.1053 4.34992 10.3964 3.5619 8.5004 3.5619C6.60146 3.5619 4.89103 4.35179 3.66918 5.61737C3.60053 5.31564 3.56231 4.984 3.56231 4.61425C3.56231 2.78396 5.77772 1.29518 8.5004 1.29518C11.2231 1.29518 13.4385 2.78396 13.4385 4.61425C13.4385 4.94319 13.4094 5.28272 13.3273 5.6129ZM11.5298 10.1645C11.6766 10.358 11.7485 10.6256 11.7485 10.9689C11.7485 11.3092 11.6766 11.5774 11.5298 11.7735C11.3849 11.967 11.1832 12.0638 10.9246 12.0638C10.6722 12.0638 10.4724 11.9682 10.3294 11.7786C10.1865 11.5876 10.1138 11.322 10.1138 10.9816C10.1138 10.6344 10.1865 10.3631 10.3294 10.1676C10.4725 9.97227 10.6734 9.87422 10.9278 9.87422C11.1857 9.87495 11.3849 9.97102 11.5298 10.1645Z" fill="white"/>
</svg>
